#define max_toggled_width 16
#define max_toggled_height 16
static unsigned char max_toggled_bits[] = {
   0x00, 0x00, 0x00, 0x00, 0x00, 0x00, 0xe0, 0x1f, 0x20, 0x10, 0xf8, 0x17,
   0x08, 0x14, 0x08, 0x14, 0x08, 0x14, 0x08, 0x14, 0x08, 0x1c, 0x08, 0x04,
   0xf8, 0x07, 0x00, 0x00, 0x00, 0x00, 0x00, 0x00 };
