<svg width="24" height="24" enable-background="new" version="1.0" xmlns="http://www.w3.org/2000/svg">
 <g transform="translate(0,-276)">
  <g id="22-22-start-here-kde" transform="matrix(1.375 0 0 1.375 -4.5 261.88)" fill="#fff" stroke-linecap="round">
   <path d="m17.091 21.909h-6.5455l3.6364-5.8182z" opacity=".5" stroke-opacity=".494" stroke-width=".727" style="paint-order:stroke fill markers"/>
   <path d="m14.909 21.909h-8l3.6364-8z" stroke-opacity=".494" stroke-width=".727" style="paint-order:stroke fill markers"/>
   <path transform="matrix(.72727 0 0 .72727 4 5.9091)" d="m11 8a10 10 0 0 0-10 10 10 10 0 0 0 10 10 10 10 0 0 0 10-10 10 10 0 0 0-10-10zm0 1a9 9 0 0 1 9 9 9 9 0 0 1-9 9 9 9 0 0 1-9-9 9 9 0 0 1 9-9z" fill-rule="evenodd" stroke-linejoin="round" stroke-width="24.001" style="paint-order:fill markers stroke"/>
  </g>
 </g>
</svg>
