<svg width="24" height="24" fill="#808080" version="1.1" viewBox="0 0 24 24" xmlns="http://www.w3.org/2000/svg">
 <path d="m16.596 7.4038c-0.19587-0.19587-0.51124-0.19587-0.70711 0l-3.8891 3.8891-3.8891-3.8891c-0.19587-0.19587-0.51124-0.19587-0.70711 0s-0.19587 0.51124 0 0.70711l3.8891 3.8891-3.8891 3.8891c-0.19587 0.19587-0.19587 0.51124 0 0.70711s0.51124 0.19587 0.70711 0l3.8891-3.8891 3.8891 3.8891c0.19587 0.19587 0.51124 0.19587 0.70711 0s0.19587-0.51124 0-0.70711l-3.8891-3.8891 3.8891-3.8891c0.19587-0.19587 0.19587-0.51124 0-0.70711z" fill="#808080" stroke-linecap="round" stroke-linejoin="round" stroke-opacity=".08" style="paint-order:stroke markers fill"/>
</svg>
