<svg width="24" height="24" fill="#808080" version="1.1" viewBox="0 0 24 24" xmlns="http://www.w3.org/2000/svg">
 <path d="m12 15c-0.01598 0-0.03291-4.23e-4 -0.04883-2e-3 -0.07895-0.0079-0.15773-0.03453-0.22656-0.08008-0.01387-0.0092-0.0279-0.02054-0.04101-0.03125-0.01271-0.01044-0.02522-0.02132-0.03711-0.0332l-5.6582-5.6582c-0.19587-0.19587-0.19587-0.51116 0-0.70703 0.19587-0.19587 0.51116-0.19587 0.70703 0l5.3047 5.3047 5.3047-5.3047c0.19587-0.19587 0.51116-0.19587 0.70703 0 0.19587 0.19587 0.19587 0.51116 0 0.70703l-5.6582 5.6582c-0.01189 0.01189-0.0244 0.02276-0.03711 0.0332-3.95e-4 3.22e-4 -0.0016-3.22e-4 -2e-3 0-0.07819 0.06385-0.17077 0.10185-0.26562 0.11133-6.36e-4 6.1e-5 -0.0013-5.9e-5 -2e-3 0-0.01582 0.0015-0.0308 2e-3 -0.04678 2e-3z" fill="#808080" stroke-linecap="round" stroke-linejoin="round" stroke-width="1.8974" style="paint-order:stroke fill markers"/>
</svg>
