<svg width="18" height="18" version="1.1" viewBox="0 0 18 18" xmlns="http://www.w3.org/2000/svg">
 <circle cx="9" cy="9" r="8.5" fill="#fb8441"/>
 <path d="m6.0024 6h0.75c0.00778-1e-4 0.015592-3e-4 0.023437 0 0.19121 0.01 0.3824 0.096 0.51562 0.2344l1.7109 1.7109 1.7344-1.7109c0.19922-0.1729 0.335-0.2291 0.51562-0.2344h0.75v0.75c0 0.2149-0.02576 0.413-0.1875 0.5625l-1.7109 1.7109 1.6875 1.6875c0.14114 0.1412 0.21093 0.3401 0.21094 0.5391v0.75h-0.75c-0.19898 0-0.39794-0.07-0.53906-0.2109l-1.7109-1.711-1.7109 1.711c-0.14112 0.1411-0.3401 0.2109-0.53906 0.2109h-0.75v-0.75c-2.3e-6 -0.199 0.069795-0.3979 0.21094-0.5391l1.7109-1.6875-1.7109-1.7109c-0.15806-0.146-0.22737-0.3519-0.21094-0.5625z" color="#bebebe" enable-background="new" fill="#fff" style="text-decoration-line:none;text-indent:0;text-transform:none"/>
</svg>
