<?xml version="1.0" encoding="UTF-8" standalone="no"?>
<svg
   width="400"
   height="240"
   version="1.1"
   viewBox="0 0 400 240"
   id="svg88"
   sodipodi:docname="assets-Win-Round-Light.svg"
   inkscape:version="1.3.2 (091e20ef0f, 2023-11-25)"
   xmlns:inkscape="http://www.inkscape.org/namespaces/inkscape"
   xmlns:sodipodi="http://sodipodi.sourceforge.net/DTD/sodipodi-0.dtd"
   xmlns:xlink="http://www.w3.org/1999/xlink"
   xmlns="http://www.w3.org/2000/svg"
   xmlns:svg="http://www.w3.org/2000/svg">
  <defs
     id="defs88" />
  <sodipodi:namedview
     id="namedview88"
     pagecolor="#dbdbdb"
     bordercolor="#000000"
     borderopacity="0.25"
     inkscape:showpageshadow="2"
     inkscape:pageopacity="0.0"
     inkscape:pagecheckerboard="0"
     inkscape:deskcolor="#d1d1d1"
     inkscape:zoom="1.3906433"
     inkscape:cx="168.26744"
     inkscape:cy="104.26829"
     inkscape:window-width="1920"
     inkscape:window-height="1006"
     inkscape:window-x="0"
     inkscape:window-y="44"
     inkscape:window-maximized="1"
     inkscape:current-layer="svg88" />
  <g
     id="bottom-left-active"
     transform="translate(57,-543.36)">
    <path
       d="m 42,738.36 v 1 h 1 v -1 z"
       fill="#a6a6a6"
       id="path1" />
    <path
       d="m 42,729.36 v 9 h 1 v -9 z"
       fill="#a6a6a6"
       id="path2" />
    <path
       d="m 52,738.36 h -9 v 1 h 9 z"
       fill="#a6a6a6"
       id="path3" />
    <path
       d="m 43,729.36 v 9 h 1 v -9 z"
       fill="#ffffff"
       id="path4" />
    <path
       d="m 52,737.36 h -9 v 1 h 9 z"
       fill="#ffffff"
       id="path5" />
  </g>
  <g
     id="bottom-left-inactive"
     transform="translate(57,-543.36)">
    <path
       d="m 42,749.36 v 1 h 1 v -1 z"
       fill="#a6a6a6"
       id="path6" />
    <path
       d="m 42,740.36 v 9 h 1 v -9 z"
       fill="#a6a6a6"
       id="path7" />
    <path
       d="m 52,749.36 h -9 v 1 h 9 z"
       fill="#a6a6a6"
       id="path8" />
    <path
       d="m 52,748.36 h -9 v 1 h 9 z"
       fill="#ffffff"
       id="path9" />
    <path
       d="m 43,740.36 v 9 h 1 v -9 z"
       fill="#ffffff"
       id="path10" />
  </g>
  <g
     id="bottom-right-active"
     transform="translate(57,-543.36)">
    <path
       d="m 79,738.36 v 1 h 1 v -1 z"
       fill="#a6a6a6"
       id="path11" />
    <path
       d="m 80,729.36 v 9 h -1 v -9 z"
       fill="#a6a6a6"
       id="path12" />
    <path
       d="m 70,738.36 h 9 v 1 h -9 z"
       fill="#a6a6a6"
       id="path13" />
    <path
       d="m 70,737.36 h 9 v 1 h -9 z"
       fill="#ffffff"
       id="path14" />
    <path
       d="m 79,729.36 v 9 h -1 v -9 z"
       fill="#ffffff"
       id="path15" />
  </g>
  <g
     id="bottom-right-inactive"
     transform="translate(57,-543.36)">
    <path
       d="m 79,749.36 v 1 h 1 v -1 z"
       fill="#a6a6a6"
       id="path16" />
    <path
       d="m 80,740.36 v 9 h -1 v -9 z"
       fill="#a6a6a6"
       id="path17" />
    <path
       d="m 70,749.36 h 9 v 1 h -9 z"
       fill="#a6a6a6"
       id="path18" />
    <path
       d="m 70,748.36 h 9 v 1 h -9 z"
       fill="#ffffff"
       id="path19" />
    <path
       d="m 79,740.36 v 9 h -1 v -9 z"
       fill="#ffffff"
       id="path20" />
  </g>
  <g
     id="left-active"
     transform="translate(57,-543.36)">
    <rect
       transform="scale(-1,1)"
       x="-29"
       y="734.35999"
       width="1"
       height="16"
       fill="#a6a6a6"
       id="rect20" />
    <rect
       transform="scale(-1,1)"
       x="-30"
       y="734.35999"
       width="1"
       height="16"
       fill="#ffffff"
       id="rect21" />
  </g>
  <g
     id="left-inactive"
     transform="translate(57,-543.36)">
    <rect
       transform="scale(-1,1)"
       x="-32"
       y="734.35999"
       width="1"
       height="16"
       fill="#a6a6a6"
       id="rect22" />
    <rect
       transform="scale(-1,1)"
       x="-33"
       y="734.35999"
       width="1"
       height="16"
       fill="#ffffff"
       id="rect23" />
  </g>
  <g
     id="right-active"
     transform="translate(57,-543.36)">
    <rect
       transform="scale(-1,1)"
       x="-37"
       y="734.35999"
       width="1"
       height="16"
       fill="#a6a6a6"
       id="rect24" />
    <rect
       transform="scale(-1,1)"
       x="-36"
       y="734.35999"
       width="1"
       height="16"
       fill="#ffffff"
       id="rect25" />
  </g>
  <g
     id="right-inactive"
     transform="translate(57,-543.36)">
    <rect
       transform="scale(-1,1)"
       x="-40"
       y="734.35999"
       width="1"
       height="16"
       fill="#a6a6a6"
       id="rect26" />
    <rect
       transform="scale(-1,1)"
       x="-39"
       y="734.35999"
       width="1"
       height="16"
       fill="#ffffff"
       id="rect27" />
  </g>
  <g
     id="bottom-active"
     transform="translate(57,-543.36)">
    <rect
       transform="matrix(0,-1,-1,0,0,0)"
       x="-739.35999"
       y="-69"
       width="1.0001"
       height="16"
       fill="#a6a6a6"
       id="rect28" />
    <rect
       transform="matrix(0,-1,-1,0,0,0)"
       x="-738.35999"
       y="-69"
       width="1.0001"
       height="16"
       fill="#ffffff"
       id="rect29" />
  </g>
  <g
     id="bottom-inactive"
     transform="translate(57,-532.36)">
    <rect
       transform="matrix(0,-1,-1,0,0,0)"
       x="-739.35999"
       y="-69"
       width="1.0001"
       height="16"
       fill="#a6a6a6"
       id="rect30" />
    <rect
       transform="matrix(0,-1,-1,0,0,0)"
       x="-738.35999"
       y="-69"
       width="1.0001"
       height="16"
       fill="#ffffff"
       id="rect31" />
  </g>
  <use
     id="title-1-active"
     transform="matrix(0.15789,0,0,1,4.84211,-415.36)"
     width="100%"
     height="100%"
     stroke-width="1.0635"
     xlink:href="#g4206" />
  <use
     id="title-2-active"
     transform="translate(7)"
     width="100%"
     height="100%"
     xlink:href="#title-1-active"
     x="0"
     y="0" />
  <use
     id="title-3-active"
     transform="translate(14)"
     width="100%"
     height="100%"
     xlink:href="#title-1-active"
     x="0"
     y="0" />
  <use
     id="title-4-active"
     transform="translate(21)"
     width="100%"
     height="100%"
     xlink:href="#title-1-active"
     x="0"
     y="0" />
  <use
     id="title-5-active"
     transform="translate(28)"
     width="100%"
     height="100%"
     xlink:href="#title-1-active"
     x="0"
     y="0" />
  <use
     id="title-1-inactive"
     transform="translate(35)"
     width="100%"
     height="100%"
     xlink:href="#title-1-active"
     x="0"
     y="0" />
  <use
     id="title-2-inactive"
     transform="translate(42)"
     width="100%"
     height="100%"
     xlink:href="#title-1-active"
     x="0"
     y="0" />
  <use
     id="title-3-inactive"
     transform="translate(49)"
     width="100%"
     height="100%"
     xlink:href="#title-1-active"
     x="0"
     y="0" />
  <use
     id="title-4-inactive"
     transform="translate(56)"
     width="100%"
     height="100%"
     xlink:href="#title-1-active"
     x="0"
     y="0" />
  <use
     id="title-5-inactive"
     transform="translate(63)"
     width="100%"
     height="100%"
     xlink:href="#title-1-active"
     x="0"
     y="0" />
  <g
     id="hide-inactive"
     transform="translate(49,-551.36)">
    <use
       transform="translate(99,66)"
       width="100%"
       height="100%"
       xlink:href="#g4206"
       id="use31" />
    <g
       id="titlebutton-minimize-backdrop-c"
       transform="translate(177,1320)"
       opacity="0.5">
      <rect
         x="-70"
         y="-693.64001"
         width="23"
         height="23"
         ry="11.5"
         opacity="0"
         stroke-width="0.92"
         style="paint-order:stroke fill markers"
         id="rect32" />
      <rect
         x="-63"
         y="-682.64001"
         width="9"
         height="1"
         ry="1.1965e-05"
         fill="#5c616c"
         opacity="1"
         style="paint-order:stroke fill markers"
         id="rect33" />
    </g>
  </g>
  <g
     id="maximize-inactive"
     transform="translate(49,-551.36)">
    <use
       transform="translate(99,33)"
       width="100%"
       height="100%"
       xlink:href="#g4206"
       id="use33" />
    <g
       id="titlebutton-maximize-backdrop-c"
       transform="translate(140,1288)"
       opacity="0.5">
      <rect
         x="-33"
         y="-694.64001"
         width="23"
         height="23"
         ry="11.5"
         opacity="0"
         stroke-width="0.92"
         style="paint-order:stroke fill markers"
         id="rect34" />
      <path
         d="m -26,-687.64 v 9 h 9 v -9 z m 1,1 h 7 v 7 h -7 z"
         fill="#5c616c"
         opacity="1"
         style="paint-order:stroke fill markers"
         id="path34" />
    </g>
  </g>
  <g
     id="close-inactive"
     transform="translate(49,-551.36)">
    <use
       transform="translate(99,-2.2617e-5)"
       width="100%"
       height="100%"
       xlink:href="#g4206"
       id="use34" />
    <g
       id="titlebutton-close-backdrop-c"
       transform="translate(98,1255)"
       opacity="0.5">
      <rect
         x="9"
         y="-694.64001"
         width="23"
         height="23"
         ry="11.5"
         opacity="0"
         stroke-width="0.92"
         style="paint-order:stroke fill markers"
         id="rect35" />
      <path
         d="m 16.354,-687.99 -0.70703,0.70704 4.1465,4.1465 -4.1465,4.1465 0.70703,0.70704 4.1465,-4.1465 4.1465,4.1465 0.70703,-0.70704 -4.1465,-4.1465 4.1465,-4.1465 -0.70703,-0.70704 -4.1465,4.1465 z"
         fill="#5c616c"
         opacity="1"
         style="paint-order:stroke fill markers"
         id="path35" />
    </g>
  </g>
  <g
     id="hide-active"
     transform="translate(4,-551.36)">
    <use
       transform="translate(0,66)"
       width="100%"
       height="100%"
       xlink:href="#g4206"
       id="use35" />
    <g
       id="titlebutton-minimize-c"
       transform="translate(78,1320)">
      <rect
         x="-70"
         y="-693.64001"
         width="23"
         height="23"
         ry="11.5"
         opacity="0"
         stroke-width="0.92"
         style="paint-order:stroke fill markers"
         id="rect36" />
      <rect
         x="-63"
         y="-682.64001"
         width="9"
         height="1"
         ry="1.1965e-05"
         fill="#5c616c"
         style="paint-order:stroke fill markers"
         id="rect37" />
    </g>
  </g>
  <g
     id="maximize-active"
     transform="translate(4,-551.36)">
    <use
       transform="translate(0,33)"
       width="100%"
       height="100%"
       xlink:href="#g4206"
       id="use37" />
    <g
       id="titlebutton-maximize-c"
       transform="translate(41,1288)">
      <rect
         x="-33"
         y="-694.64001"
         width="23"
         height="23"
         ry="11.5"
         opacity="0"
         stroke-width="0.92"
         style="paint-order:stroke fill markers"
         id="rect38" />
      <path
         d="m -26,-687.64 v 9 h 9 v -9 z m 1,1 h 7 v 7 h -7 z"
         fill="#5c616c"
         style="paint-order:stroke fill markers"
         id="path38" />
    </g>
  </g>
  <g
     id="close-active"
     transform="translate(4,-551.36)">
    <g
       id="g4206">
      <rect
         x="1"
         y="557.35999"
         width="38"
         height="28"
         fill="#ffffff"
         id="rect39" />
      <rect
         x="1"
         y="557.35999"
         width="38"
         height="1"
         fill="#000000"
         opacity="0.35"
         id="rect40" />
    </g>
    <g
       id="titlebutton-close-c"
       transform="translate(-1,1255)">
      <rect
         x="9"
         y="-694.64001"
         width="23"
         height="23"
         ry="11.5"
         opacity="0"
         stroke-width="0.92"
         style="paint-order:stroke fill markers"
         id="rect41" />
      <path
         d="m 16.354,-687.99 -0.70703,0.70704 4.1465,4.1465 -4.1465,4.1465 0.70703,0.70704 4.1465,-4.1465 4.1465,4.1465 0.70703,-0.70704 -4.1465,-4.1465 4.1465,-4.1465 -0.70703,-0.70704 -4.1465,4.1465 z"
         fill="#5c616c"
         style="paint-order:stroke fill markers"
         id="path41" />
    </g>
  </g>
  <g
     id="maximize-toggled-active"
     transform="translate(4,-551.36)">
    <g
       transform="translate(0,66)"
       id="g43">
      <use
         transform="translate(0,33)"
         width="100%"
         height="100%"
         xlink:href="#g4206"
         id="use41" />
      <g
         transform="translate(41,1288)"
         id="g42">
        <rect
           x="-33"
           y="-694.64001"
           width="23"
           height="23"
           ry="11.5"
           opacity="0"
           stroke-width="0.92"
           style="paint-order:stroke fill markers"
           id="rect42" />
      </g>
    </g>
    <path
       d="m 17,666.36 v 2 h -2 v 7 l 7,10e-6 v -2 h 2 v -7 z m 1,1 h 5 v 5 h -1 v -4 h -4 z m -2,2 h 5 v 5 h -5 z"
       fill="#5c616c"
       style="paint-order:stroke fill markers"
       id="path43" />
  </g>
  <g
     id="maximize-toggled-inactive"
     transform="translate(49,-551.36)">
    <g
       transform="translate(0,66)"
       id="g45">
      <use
         transform="translate(99,33)"
         width="100%"
         height="100%"
         xlink:href="#g4206"
         id="use43" />
      <g
         transform="translate(140,1288)"
         opacity="0.5"
         id="g44">
        <rect
           x="-33"
           y="-694.64001"
           width="23"
           height="23"
           ry="11.5"
           opacity="0"
           stroke-width="0.92"
           style="paint-order:stroke fill markers"
           id="rect43" />
      </g>
    </g>
    <path
       d="m 116,666.36 v 2 h -2 v 7 l 7,10e-6 v -2 h 2 v -7 z m 1,1 h 5 v 5 h -1 v -4 h -4 z m -2,2 h 5 v 5 h -5 z"
       fill="#adb0b5"
       style="paint-order:stroke fill markers"
       id="path45" />
  </g>
  <g
     id="hide-prelight"
     transform="translate(19,-551.36)">
    <use
       transform="translate(33,66)"
       width="100%"
       height="100%"
       xlink:href="#g4206"
       id="use45" />
    <g
       id="titlebutton-minimize-hover-c"
       transform="translate(111,1320)">
      <rect
         x="-77"
         y="-696.64001"
         width="38"
         height="28"
         ry="0"
         fill="#000000"
         fill-opacity="0.098039"
         style="paint-order:stroke fill markers"
         id="rect45" />
      <rect
         x="-63"
         y="-682.64001"
         width="9"
         height="1"
         ry="1.1965e-05"
         fill="#5c616c"
         style="paint-order:stroke fill markers"
         id="rect46" />
    </g>
  </g>
  <g
     id="maximize-prelight"
     transform="translate(19,-551.36)">
    <use
       transform="translate(33,33)"
       width="100%"
       height="100%"
       xlink:href="#g4206"
       id="use46" />
    <g
       transform="translate(40,592.36)"
       enable-background="new"
       id="g49">
      <g
         transform="translate(0,-1028.4)"
         id="g48">
        <g
           id="titlebutton-max-hover"
           transform="translate(-509,1218)">
          <g
             transform="translate(-781,-432.64)"
             id="g47">
            <g
               transform="translate(1294,247)"
               fill="#c0e3ff"
               id="g46" />
          </g>
          <rect
             x="513"
             y="-185.64"
             width="16"
             height="16"
             fill="none"
             id="rect47" />
        </g>
      </g>
    </g>
    <g
       id="titlebutton-maximize-hover-c"
       transform="translate(74,1288)">
      <rect
         x="-40"
         y="-697.64001"
         width="38"
         height="28"
         ry="0"
         fill="#000000"
         fill-opacity="0.098039"
         style="paint-order:stroke fill markers"
         id="rect49" />
      <path
         d="m -26,-687.64 v 9 h 9 v -9 z m 1,1 h 7 v 7 h -7 z"
         fill="#5c616c"
         style="paint-order:stroke fill markers"
         id="path49" />
    </g>
  </g>
  <g
     id="close-prelight"
     transform="translate(19,-551.36)">
    <use
       transform="translate(33,-2.2617e-5)"
       width="100%"
       height="100%"
       xlink:href="#g4206"
       id="use49" />
    <g
       id="titlebutton-close-hover-c"
       transform="translate(32,1255)">
      <rect
         x="2"
         y="-697.64001"
         width="38"
         height="28"
         ry="0"
         fill="#f68086"
         style="paint-order:stroke fill markers"
         id="rect50" />
      <path
         d="m 16.354,-687.99 -0.70703,0.70704 4.1465,4.1465 -4.1465,4.1465 0.70703,0.70704 4.1465,-4.1465 4.1465,4.1465 0.70703,-0.70704 -4.1465,-4.1465 4.1465,-4.1465 -0.70703,-0.70704 -4.1465,4.1465 z"
         fill="#ffffff"
         style="paint-order:stroke fill markers"
         id="path50" />
      <rect
         x="2"
         y="-697.64001"
         width="38"
         height="0.99993998"
         ry="0"
         fill="#000000"
         opacity="0.35"
         style="paint-order:stroke fill markers"
         id="rect51" />
    </g>
  </g>
  <g
     id="hide-pressed"
     transform="translate(34,-551.36)">
    <use
       transform="translate(66,66)"
       width="100%"
       height="100%"
       xlink:href="#g4206"
       id="use51" />
    <g
       id="titlebutton-minimize-active-c"
       transform="translate(144,1320)">
      <rect
         x="-77"
         y="-696.64001"
         width="38"
         height="28"
         ry="0"
         fill="#000000"
         fill-opacity="0.2"
         style="paint-order:stroke fill markers"
         id="rect52" />
      <rect
         x="-63"
         y="-682.64001"
         width="9"
         height="1"
         ry="1.1965e-05"
         fill="#5c616c"
         style="paint-order:stroke fill markers"
         id="rect53" />
    </g>
  </g>
  <g
     id="maximize-pressed"
     transform="translate(34,-551.36)">
    <use
       transform="translate(66,33)"
       width="100%"
       height="100%"
       xlink:href="#g4206"
       id="use53" />
    <g
       id="titlebutton-maximize-active-c"
       transform="translate(107,1288)">
      <rect
         x="-40"
         y="-697.64001"
         width="38"
         height="28"
         ry="0"
         fill="#000000"
         fill-opacity="0.2"
         style="paint-order:stroke fill markers"
         id="rect54" />
      <path
         d="m -26,-687.64 v 9 h 9 v -9 z m 1,1 h 7 v 7 h -7 z"
         fill="#5c616c"
         style="paint-order:stroke fill markers"
         id="path54" />
    </g>
  </g>
  <g
     id="close-pressed"
     transform="translate(34,-551.36)">
    <use
       transform="translate(66,-2.2617e-5)"
       width="100%"
       height="100%"
       xlink:href="#g4206"
       id="use54" />
    <g
       id="titlebutton-close-active-c"
       transform="translate(65,1255)">
      <rect
         x="2"
         y="-697.64001"
         width="38"
         height="28"
         ry="0"
         fill="#d05258"
         style="paint-order:stroke fill markers"
         id="rect55" />
      <path
         d="m 16.354,-687.99 -0.70703,0.70704 4.1465,4.1465 -4.1465,4.1465 0.70703,0.70704 4.1465,-4.1465 4.1465,4.1465 0.70703,-0.70704 -4.1465,-4.1465 4.1465,-4.1465 -0.70703,-0.70704 -4.1465,4.1465 z"
         fill="#ffffff"
         style="paint-order:stroke fill markers"
         id="path55" />
      <rect
         x="2"
         y="-697.64001"
         width="38"
         height="1"
         ry="0"
         fill="#000000"
         opacity="0.35"
         style="paint-order:stroke fill markers"
         id="rect56" />
    </g>
  </g>
  <g
     id="maximize-toggled-prelight"
     transform="translate(19,-551.36)">
    <g
       transform="translate(0,66)"
       id="g62">
      <use
         transform="translate(33,33)"
         width="100%"
         height="100%"
         xlink:href="#g4206"
         id="use56" />
      <g
         transform="translate(40,592.36)"
         enable-background="new"
         id="g60">
        <g
           transform="translate(0,-1028.4)"
           id="g59">
          <g
             transform="translate(-509,1218)"
             id="g58">
            <g
               transform="translate(-781,-432.64)"
               id="g57">
              <g
                 transform="translate(1294,247)"
                 fill="#c0e3ff"
                 id="g56" />
            </g>
            <rect
               x="513"
               y="-185.64"
               width="16"
               height="16"
               fill="none"
               id="rect57" />
          </g>
        </g>
      </g>
      <g
         transform="translate(74,1288)"
         id="g61">
        <rect
           x="-40"
           y="-697.64001"
           width="38"
           height="28"
           ry="4.6603e-07"
           fill="#000000"
           fill-opacity="0.098039"
           style="paint-order:stroke fill markers"
           id="rect60" />
      </g>
    </g>
    <path
       d="m 50,666.36 v 2 h -2 v 7 l 7,10e-6 v -2 h 2 v -7 z m 1,1 h 5 v 5 h -1 v -4 h -4 z m -2,2 h 5 v 5 h -5 z"
       fill="#5c616c"
       style="paint-order:stroke fill markers"
       id="path62" />
  </g>
  <g
     id="maximize-toggled-pressed"
     transform="translate(34,-551.36)">
    <g
       transform="translate(0,66)"
       id="g64">
      <use
         transform="translate(66,33)"
         width="100%"
         height="100%"
         xlink:href="#g4206"
         id="use62" />
      <g
         transform="translate(107,1288)"
         id="g63">
        <rect
           x="-40"
           y="-697.64001"
           width="38"
           height="28"
           ry="4.6603e-07"
           fill="#000000"
           fill-opacity="0.2"
           style="paint-order:stroke fill markers"
           id="rect62" />
      </g>
    </g>
    <path
       d="m 83,666.36 v 2 h -2 v 7 l 7,10e-6 v -2 h 2 v -7 z m 1,1 h 5 v 5 h -1 v -4 h -4 z m -2,2 h 5 v 5 h -5 z"
       fill="#5c616c"
       style="paint-order:stroke fill markers"
       id="path64" />
  </g>
  <g
     id="menu-prelight"
     transform="translate(70,-551.36)">
    <use
       transform="translate(175,-3.3e-5)"
       width="100%"
       height="100%"
       xlink:href="#g4206"
       id="use64" />
    <rect
       x="183"
       y="560.35999"
       width="23"
       height="23"
       ry="11.5"
       fill="#000000"
       fill-opacity="0.098039"
       style="paint-order:stroke fill markers"
       id="rect64" />
    <path
       d="m 189.5,570.36 a 1.5,1.5 0 0 0 -1.5,1.5 1.5,1.5 0 0 0 1.5,1.5 1.5,1.5 0 0 0 1.5,-1.5 1.5,1.5 0 0 0 -1.5,-1.5 z m 5,0 a 1.5,1.5 0 0 0 -1.5,1.5 1.5,1.5 0 0 0 1.5,1.5 1.5,1.5 0 0 0 1.5,-1.5 1.5,1.5 0 0 0 -1.5,-1.5 z m 5,0 a 1.5,1.5 0 0 0 -1.5,1.5 1.5,1.5 0 0 0 1.5,1.5 1.5,1.5 0 0 0 1.5,-1.5 1.5,1.5 0 0 0 -1.5,-1.5 z m -10,1 a 0.49997,0.49997 0 0 1 0.5,0.5 0.49997,0.49997 0 0 1 -0.5,0.5 0.49997,0.49997 0 0 1 -0.5,-0.5 0.49997,0.49997 0 0 1 0.5,-0.5 z m 5,0 a 0.49997,0.49997 0 0 1 0.5,0.5 0.49997,0.49997 0 0 1 -0.5,0.5 0.49997,0.49997 0 0 1 -0.5,-0.5 0.49997,0.49997 0 0 1 0.5,-0.5 z m 5,0 a 0.49997,0.49997 0 0 1 0.5,0.5 0.49997,0.49997 0 0 1 -0.5,0.5 0.49997,0.49997 0 0 1 -0.5,-0.5 0.49997,0.49997 0 0 1 0.5,-0.5 z"
       fill="#5c616c"
       id="path65" />
  </g>
  <g
     id="menu-active"
     transform="translate(59,-551.36)">
    <use
       transform="translate(140,-3.3e-5)"
       width="100%"
       height="100%"
       xlink:href="#g4206"
       id="use65" />
    <path
       d="m 154.5,570.36 a 1.5,1.5 0 0 0 -1.5,1.5 1.5,1.5 0 0 0 1.5,1.5 1.5,1.5 0 0 0 1.5,-1.5 1.5,1.5 0 0 0 -1.5,-1.5 z m 5,0 a 1.5,1.5 0 0 0 -1.5,1.5 1.5,1.5 0 0 0 1.5,1.5 1.5,1.5 0 0 0 1.5,-1.5 1.5,1.5 0 0 0 -1.5,-1.5 z m 5,0 a 1.5,1.5 0 0 0 -1.5,1.5 1.5,1.5 0 0 0 1.5,1.5 1.5,1.5 0 0 0 1.5,-1.5 1.5,1.5 0 0 0 -1.5,-1.5 z m -10,1 a 0.49997,0.49997 0 0 1 0.5,0.5 0.49997,0.49997 0 0 1 -0.5,0.5 0.49997,0.49997 0 0 1 -0.5,-0.5 0.49997,0.49997 0 0 1 0.5,-0.5 z m 5,0 a 0.49997,0.49997 0 0 1 0.5,0.5 0.49997,0.49997 0 0 1 -0.5,0.5 0.49997,0.49997 0 0 1 -0.5,-0.5 0.49997,0.49997 0 0 1 0.5,-0.5 z m 5,0 a 0.49997,0.49997 0 0 1 0.5,0.5 0.49997,0.49997 0 0 1 -0.5,0.5 0.49997,0.49997 0 0 1 -0.5,-0.5 0.49997,0.49997 0 0 1 0.5,-0.5 z"
       fill="#5c616c"
       id="path66" />
  </g>
  <g
     id="menu-pressed"
     transform="translate(82,-551.36)">
    <use
       transform="translate(209,-3.3e-5)"
       width="100%"
       height="100%"
       xlink:href="#g4206"
       id="use66" />
    <rect
       x="217"
       y="560.35999"
       width="23"
       height="23"
       ry="11.5"
       fill="#000000"
       fill-opacity="0.2"
       style="paint-order:stroke fill markers"
       id="rect66" />
    <path
       d="m 223.5,570.36 a 1.5,1.5 0 0 0 -1.5,1.5 1.5,1.5 0 0 0 1.5,1.5 1.5,1.5 0 0 0 1.5,-1.5 1.5,1.5 0 0 0 -1.5,-1.5 z m 5,0 a 1.5,1.5 0 0 0 -1.5,1.5 1.5,1.5 0 0 0 1.5,1.5 1.5,1.5 0 0 0 1.5,-1.5 1.5,1.5 0 0 0 -1.5,-1.5 z m 5,0 a 1.5,1.5 0 0 0 -1.5,1.5 1.5,1.5 0 0 0 1.5,1.5 1.5,1.5 0 0 0 1.5,-1.5 1.5,1.5 0 0 0 -1.5,-1.5 z m -10,1 a 0.49997,0.49997 0 0 1 0.5,0.5 0.49997,0.49997 0 0 1 -0.5,0.5 0.49997,0.49997 0 0 1 -0.5,-0.5 0.49997,0.49997 0 0 1 0.5,-0.5 z m 5,0 a 0.49997,0.49997 0 0 1 0.5,0.5 0.49997,0.49997 0 0 1 -0.5,0.5 0.49997,0.49997 0 0 1 -0.5,-0.5 0.49997,0.49997 0 0 1 0.5,-0.5 z m 5,0 a 0.49997,0.49997 0 0 1 0.5,0.5 0.49997,0.49997 0 0 1 -0.5,0.5 0.49997,0.49997 0 0 1 -0.5,-0.5 0.49997,0.49997 0 0 1 0.5,-0.5 z"
       fill="#5c616c"
       id="path67" />
  </g>
  <g
     id="menu-inactive"
     transform="translate(95,-551.36)">
    <use
       transform="translate(243,-3.3e-5)"
       width="100%"
       height="100%"
       xlink:href="#g4206"
       id="use67" />
    <path
       d="m 257.5,570.36 a 1.5,1.5 0 0 0 -1.5,1.5 1.5,1.5 0 0 0 1.5,1.5 1.5,1.5 0 0 0 1.5,-1.5 1.5,1.5 0 0 0 -1.5,-1.5 z m 5,0 a 1.5,1.5 0 0 0 -1.5,1.5 1.5,1.5 0 0 0 1.5,1.5 1.5,1.5 0 0 0 1.5,-1.5 1.5,1.5 0 0 0 -1.5,-1.5 z m 5,0 a 1.5,1.5 0 0 0 -1.5,1.5 1.5,1.5 0 0 0 1.5,1.5 1.5,1.5 0 0 0 1.5,-1.5 1.5,1.5 0 0 0 -1.5,-1.5 z m -10,1 a 0.49997,0.49997 0 0 1 0.5,0.5 0.49997,0.49997 0 0 1 -0.5,0.5 0.49997,0.49997 0 0 1 -0.5,-0.5 0.49997,0.49997 0 0 1 0.5,-0.5 z m 5,0 a 0.49997,0.49997 0 0 1 0.5,0.5 0.49997,0.49997 0 0 1 -0.5,0.5 0.49997,0.49997 0 0 1 -0.5,-0.5 0.49997,0.49997 0 0 1 0.5,-0.5 z m 5,0 a 0.49997,0.49997 0 0 1 0.5,0.5 0.49997,0.49997 0 0 1 -0.5,0.5 0.49997,0.49997 0 0 1 -0.5,-0.5 0.49997,0.49997 0 0 1 0.5,-0.5 z"
       fill="#adb0b5"
       id="path68" />
  </g>
  <g
     id="shade-active"
     transform="translate(59,-551.36)">
    <use
       transform="translate(140,33)"
       width="100%"
       height="100%"
       xlink:href="#g4206"
       id="use68" />
    <path
       d="m 160,601.33 -6.3633,6.3633 0.70703,0.70703 5.6562,-5.6562 5.6562,5.6562 0.70703,-0.70703 -5.6562,-5.6562 z"
       fill="#5c616c"
       opacity="0.75"
       id="path69" />
  </g>
  <g
     id="shade-prelight"
     transform="translate(70,-551.36)">
    <use
       transform="translate(175,33)"
       width="100%"
       height="100%"
       xlink:href="#g4206"
       id="use69" />
    <rect
       x="183"
       y="593.35999"
       width="23"
       height="23"
       ry="11.5"
       fill="#000000"
       fill-opacity="0.1"
       style="paint-order:stroke fill markers"
       id="rect69" />
    <path
       d="m 194.5,601.33 -6.3633,6.3633 0.70703,0.70703 5.6562,-5.6562 5.6562,5.6562 0.70703,-0.70703 -5.6562,-5.6562 z"
       fill="#5c616c"
       opacity="0.75"
       id="path70" />
  </g>
  <g
     id="shade-pressed"
     transform="translate(82,-551.36)">
    <use
       transform="translate(209,33)"
       width="100%"
       height="100%"
       xlink:href="#g4206"
       id="use70" />
    <rect
       x="217"
       y="593.35999"
       width="23"
       height="23"
       ry="11.5"
       fill="#000000"
       fill-opacity="0.2"
       style="paint-order:stroke fill markers"
       id="rect70" />
    <path
       d="m 228.5,601.33 -6.3633,6.3633 0.70703,0.70703 5.6562,-5.6562 5.6562,5.6562 0.70703,-0.70703 -5.6562,-5.6562 z"
       fill="#5c616c"
       opacity="0.75"
       id="path71" />
  </g>
  <g
     id="shade-inactive"
     transform="translate(95,-551.36)">
    <use
       transform="translate(243,33)"
       width="100%"
       height="100%"
       xlink:href="#g4206"
       id="use71" />
    <path
       d="m 263,601.33 -6.3633,6.3633 0.70703,0.70703 5.6562,-5.6562 5.6562,5.6562 0.70703,-0.70703 -5.6562,-5.6562 z"
       fill="#adb0b5"
       id="path72" />
  </g>
  <g
     id="shade-toggled-active"
     transform="translate(59,-551.36)">
    <use
       transform="translate(140,66)"
       width="100%"
       height="100%"
       xlink:href="#g4206"
       id="use72" />
    <path
       d="m 160,641.4 -6.3633,-6.3633 0.70703,-0.70703 5.6562,5.6562 5.6562,-5.6562 0.70703,0.70703 -5.6562,5.6562 z"
       fill="#5c616c"
       opacity="0.75"
       id="path73" />
  </g>
  <g
     id="shade-toggled-prelight"
     transform="translate(70,-551.36)">
    <use
       transform="translate(175,66)"
       width="100%"
       height="100%"
       xlink:href="#g4206"
       id="use73" />
    <rect
       x="183"
       y="626.35999"
       width="23"
       height="23"
       ry="11.5"
       fill="#000000"
       fill-opacity="0.098039"
       style="paint-order:stroke fill markers"
       id="rect73" />
    <path
       d="m 194.5,641.4 -6.3633,-6.3633 0.70703,-0.70703 5.6562,5.6562 5.6562,-5.6562 0.70703,0.70703 -5.6562,5.6562 z"
       fill="#5c616c"
       opacity="0.75"
       id="path74" />
  </g>
  <g
     id="shade-toggled-pressed"
     transform="translate(82,-551.36)">
    <use
       transform="translate(209,66)"
       width="100%"
       height="100%"
       xlink:href="#g4206"
       id="use74" />
    <rect
       x="217"
       y="626.35999"
       width="23"
       height="23"
       ry="11.5"
       fill="#000000"
       fill-opacity="0.2"
       style="paint-order:stroke fill markers"
       id="rect74" />
    <path
       d="m 228.5,641.4 -6.3633,-6.3633 0.70703,-0.70703 5.6562,5.6562 5.6562,-5.6562 0.70703,0.70703 -5.6562,5.6562 z"
       fill="#5c616c"
       opacity="0.75"
       id="path75" />
  </g>
  <g
     id="shade-toggled-inactive"
     transform="translate(95,-551.36)">
    <use
       transform="translate(243,66)"
       width="100%"
       height="100%"
       xlink:href="#g4206"
       id="use75" />
    <path
       d="m 263,641.4 -6.3633,-6.3633 0.70703,-0.70703 5.6562,5.6562 5.6562,-5.6562 0.70703,0.70703 -5.6562,5.6562 z"
       fill="#adb0b5"
       id="path76" />
  </g>
  <g
     id="stick-prelight"
     transform="translate(70,-551.36)">
    <use
       transform="translate(175,99)"
       width="100%"
       height="100%"
       xlink:href="#g4206"
       id="use76" />
    <rect
       x="183"
       y="659.35999"
       width="23"
       height="23"
       ry="11.5"
       fill="#000000"
       fill-opacity="0.098039"
       style="paint-order:stroke fill markers"
       id="rect76" />
    <path
       d="m 194.5,664.36 a 6.5,6.5 0 0 0 -6.5,6.5 6.5,6.5 0 0 0 6.5,6.5 6.5,6.5 0 0 0 6.5,-6.5 6.5,6.5 0 0 0 -6.5,-6.5 z m 0,1 a 5.5,5.5 0 0 1 5.5,5.5 5.5,5.5 0 0 1 -5.5,5.5 5.5,5.5 0 0 1 -5.5,-5.5 5.5,5.5 0 0 1 5.5,-5.5 z"
       fill="#5c616c"
       stop-color="#000000"
       stroke-linecap="round"
       stroke-linejoin="round"
       stroke-width="2"
       style="paint-order:fill markers stroke"
       id="path77" />
  </g>
  <g
     id="stick-active"
     transform="translate(59,-551.36)">
    <use
       transform="translate(140,99)"
       width="100%"
       height="100%"
       xlink:href="#g4206"
       id="use77" />
    <path
       d="m 159.5,664.36 a 6.5,6.5 0 0 0 -6.5,6.5 6.5,6.5 0 0 0 6.5,6.5 6.5,6.5 0 0 0 6.5,-6.5 6.5,6.5 0 0 0 -6.5,-6.5 z m 0,1 a 5.5,5.5 0 0 1 5.5,5.5 5.5,5.5 0 0 1 -5.5,5.5 5.5,5.5 0 0 1 -5.5,-5.5 5.5,5.5 0 0 1 5.5,-5.5 z"
       fill="#5c616c"
       stop-color="#000000"
       stroke-linecap="round"
       stroke-linejoin="round"
       stroke-width="2"
       style="paint-order:fill markers stroke"
       id="path78" />
  </g>
  <g
     id="stick-pressed"
     transform="translate(82,-551.36)">
    <use
       transform="translate(209,99)"
       width="100%"
       height="100%"
       xlink:href="#g4206"
       id="use78" />
    <rect
       x="217"
       y="659.35999"
       width="23"
       height="23"
       ry="11.5"
       fill="#000000"
       fill-opacity="0.2"
       style="paint-order:stroke fill markers"
       id="rect78" />
    <path
       d="m 228.5,664.36 a 6.5,6.5 0 0 0 -6.5,6.5 6.5,6.5 0 0 0 6.5,6.5 6.5,6.5 0 0 0 6.5,-6.5 6.5,6.5 0 0 0 -6.5,-6.5 z m 0,1 a 5.5,5.5 0 0 1 5.5,5.5 5.5,5.5 0 0 1 -5.5,5.5 5.5,5.5 0 0 1 -5.5,-5.5 5.5,5.5 0 0 1 5.5,-5.5 z"
       fill="#5c616c"
       stop-color="#000000"
       stroke-linecap="round"
       stroke-linejoin="round"
       stroke-width="2"
       style="paint-order:fill markers stroke"
       id="path79" />
  </g>
  <g
     id="stick-inactive"
     transform="translate(95,-551.36)">
    <use
       transform="translate(243,99)"
       width="100%"
       height="100%"
       xlink:href="#g4206"
       id="use79" />
    <path
       d="m 262.5,664.36 a 6.5,6.5 0 0 0 -6.5,6.5 6.5,6.5 0 0 0 6.5,6.5 6.5,6.5 0 0 0 6.5,-6.5 6.5,6.5 0 0 0 -6.5,-6.5 z m 0,1 a 5.5,5.5 0 0 1 5.5,5.5 5.5,5.5 0 0 1 -5.5,5.5 5.5,5.5 0 0 1 -5.5,-5.5 5.5,5.5 0 0 1 5.5,-5.5 z"
       fill="#adb0b5"
       stop-color="#000000"
       stroke-linecap="round"
       stroke-linejoin="round"
       stroke-width="2"
       style="paint-order:fill markers stroke"
       id="path80" />
  </g>
  <g
     id="stick-toggled-active"
     transform="translate(59,-551.36)">
    <use
       transform="translate(140,132)"
       width="100%"
       height="100%"
       xlink:href="#g4206"
       id="use80" />
    <path
       d="m 159.5,697.36 a 6.5,6.5 0 0 0 -6.5,6.5 6.5,6.5 0 0 0 6.5,6.5 6.5,6.5 0 0 0 6.5,-6.5 6.5,6.5 0 0 0 -6.5,-6.5 z m 0,1 a 5.5,5.5 0 0 1 5.5,5.5 5.5,5.5 0 0 1 -5.5,5.5 5.5,5.5 0 0 1 -5.5,-5.5 5.5,5.5 0 0 1 5.5,-5.5 z"
       fill="#5c616c"
       stop-color="#000000"
       stroke-linecap="round"
       stroke-linejoin="round"
       stroke-width="2"
       style="paint-order:fill markers stroke"
       id="path81" />
    <circle
       cx="159.5"
       cy="703.85999"
       r="2.5"
       fill="#5c616c"
       stop-color="#000000"
       stroke-linecap="round"
       stroke-linejoin="round"
       stroke-width="2"
       style="paint-order:fill markers stroke"
       id="circle81" />
  </g>
  <g
     id="stick-toggled-prelight"
     transform="translate(70,-551.36)">
    <use
       transform="translate(175,132)"
       width="100%"
       height="100%"
       xlink:href="#g4206"
       id="use81" />
    <rect
       x="183"
       y="692.35999"
       width="23"
       height="23"
       ry="11.5"
       fill="#000000"
       fill-opacity="0.098039"
       style="paint-order:stroke fill markers"
       id="rect81" />
    <path
       d="m 194.5,697.36 a 6.5,6.5 0 0 0 -6.5,6.5 6.5,6.5 0 0 0 6.5,6.5 6.5,6.5 0 0 0 6.5,-6.5 6.5,6.5 0 0 0 -6.5,-6.5 z m 0,1 a 5.5,5.5 0 0 1 5.5,5.5 5.5,5.5 0 0 1 -5.5,5.5 5.5,5.5 0 0 1 -5.5,-5.5 5.5,5.5 0 0 1 5.5,-5.5 z"
       fill="#5c616c"
       stop-color="#000000"
       stroke-linecap="round"
       stroke-linejoin="round"
       stroke-width="2"
       style="paint-order:fill markers stroke"
       id="path82" />
    <circle
       cx="194.5"
       cy="703.85999"
       r="2.5"
       fill="#5c616c"
       stop-color="#000000"
       stroke-linecap="round"
       stroke-linejoin="round"
       stroke-width="2"
       style="paint-order:fill markers stroke"
       id="circle82" />
  </g>
  <g
     id="stick-toggled-pressed"
     transform="translate(82,-551.36)">
    <use
       transform="translate(209,132)"
       width="100%"
       height="100%"
       xlink:href="#g4206"
       id="use82" />
    <rect
       x="217"
       y="692.35999"
       width="23"
       height="23"
       ry="11.5"
       fill="#000000"
       fill-opacity="0.2"
       style="paint-order:stroke fill markers"
       id="rect82" />
    <path
       d="m 228.5,697.36 a 6.5,6.5 0 0 0 -6.5,6.5 6.5,6.5 0 0 0 6.5,6.5 6.5,6.5 0 0 0 6.5,-6.5 6.5,6.5 0 0 0 -6.5,-6.5 z m 0,1 a 5.5,5.5 0 0 1 5.5,5.5 5.5,5.5 0 0 1 -5.5,5.5 5.5,5.5 0 0 1 -5.5,-5.5 5.5,5.5 0 0 1 5.5,-5.5 z"
       fill="#5c616c"
       stop-color="#000000"
       stroke-linecap="round"
       stroke-linejoin="round"
       stroke-width="2"
       style="paint-order:fill markers stroke"
       id="path83" />
    <circle
       cx="228.5"
       cy="703.85999"
       r="2.5"
       fill="#5c616c"
       stop-color="#000000"
       stroke-linecap="round"
       stroke-linejoin="round"
       stroke-width="2"
       style="paint-order:fill markers stroke"
       id="circle83" />
  </g>
  <g
     id="stick-toggled-inactive"
     transform="translate(95,-551.36)">
    <use
       transform="translate(243,132)"
       width="100%"
       height="100%"
       xlink:href="#g4206"
       id="use83" />
    <path
       d="m 262.5,697.36 a 6.5,6.5 0 0 0 -6.5,6.5 6.5,6.5 0 0 0 6.5,6.5 6.5,6.5 0 0 0 6.5,-6.5 6.5,6.5 0 0 0 -6.5,-6.5 z m 0,1 a 5.5,5.5 0 0 1 5.5,5.5 5.5,5.5 0 0 1 -5.5,5.5 5.5,5.5 0 0 1 -5.5,-5.5 5.5,5.5 0 0 1 5.5,-5.5 z"
       fill="#c9cbce"
       stop-color="#000000"
       stroke-linecap="round"
       stroke-linejoin="round"
       stroke-width="2"
       style="paint-order:fill markers stroke"
       id="path84" />
    <circle
       cx="262.5"
       cy="703.85999"
       r="2.5"
       fill="#c9cbce"
       stop-color="#000000"
       stroke-linecap="round"
       stroke-linejoin="round"
       stroke-width="2"
       style="paint-order:fill markers stroke"
       id="circle84" />
  </g>
  <g
     id="top-left-inactive"
     transform="translate(36,-547.356)">
    <path
       d="m -5,724.36 v 1 h -2 v 1 h -1 v 1 h -1 v 1 h -1 v 1 h -1 v 2 h -1 v 21 H 0 v -28 z"
       fill="#ffffff"
       id="path85" />
    <path
       transform="translate(-415,631.36)"
       d="m 410,93 v 1 h 5 v -1 z m 0,1 h -2 v 1 h 2 z m -2,1 h -1 v 1 h 1 z m -1,1 h -1 v 1 h 1 z m -1,1 h -1 v 1 h 1 z m -1,1 h -1 v 2 h 1 z m -1,2 h -1 v 21 h 1 z"
       fill="#000000"
       opacity="0.35"
       id="path86" />
  </g>
  <use
     id="top-right-active"
     transform="matrix(-1,0,0,1,60,0)"
     width="100%"
     height="100%"
     xlink:href="#top-left-active"
     x="0"
     y="0" />
  <g
     id="top-left-active"
     transform="translate(22,-547.356)">
    <path
       d="m -5,724.36 v 1 h -2 v 1 h -1 v 1 h -1 v 1 h -1 v 1 h -1 v 2 h -1 v 21 H 0 v -28 z"
       fill="#ffffff"
       id="path87" />
    <path
       transform="translate(-401,631.36)"
       d="m 396,93 v 1 h 5 v -1 z m 0,1 h -2 v 1 h 2 z m -2,1 h -1 v 1 h 1 z m -1,1 h -1 v 1 h 1 z m -1,1 h -1 v 1 h 1 z m -1,1 h -1 v 2 h 1 z m -1,2 h -1 v 21 h 1 z"
       fill="#000000"
       opacity="0.35"
       id="path88" />
  </g>
  <use
     id="top-right-inactive"
     transform="matrix(-1,0,0,1,89,0)"
     xlink:href="#top-left-inactive"
     x="0"
     y="0" />
</svg>
