<?xml version="1.0" encoding="UTF-8" standalone="no"?>
<svg
   width="300"
   height="218"
   version="1.1"
   viewBox="0 0 300 218"
   id="svg146"
   sodipodi:docname="assets-Round.svg"
   inkscape:version="1.3.2 (091e20ef0f, 2023-11-25)"
   xmlns:inkscape="http://www.inkscape.org/namespaces/inkscape"
   xmlns:sodipodi="http://sodipodi.sourceforge.net/DTD/sodipodi-0.dtd"
   xmlns:xlink="http://www.w3.org/1999/xlink"
   xmlns="http://www.w3.org/2000/svg"
   xmlns:svg="http://www.w3.org/2000/svg">
  <defs
     id="defs146" />
  <sodipodi:namedview
     id="namedview146"
     pagecolor="#545763"
     bordercolor="#000000"
     borderopacity="0.25"
     inkscape:showpageshadow="2"
     inkscape:pageopacity="0.0"
     inkscape:pagecheckerboard="0"
     inkscape:deskcolor="#d1d1d1"
     inkscape:zoom="3.061967"
     inkscape:cx="120.51077"
     inkscape:cy="155.78222"
     inkscape:window-width="1920"
     inkscape:window-height="1006"
     inkscape:window-x="0"
     inkscape:window-y="44"
     inkscape:window-maximized="1"
     inkscape:current-layer="svg146" />
  <g
     id="bottom-left-active"
     transform="translate(65,-543.36)">
    <path
       d="m 42,738.36 v 1 h 1 v -1 z"
       fill="#3d3f47"
       id="path1" />
    <path
       d="m 42,729.36 v 9 h 1 v -9 z"
       fill="#3d3f47"
       id="path2" />
    <path
       d="m 52,738.36 h -9 v 1 h 9 z"
       fill="#3d3f47"
       id="path3" />
    <path
       d="m 43,729.36 v 9 h 1 v -9 z"
       fill="#282a33"
       id="path4" />
    <path
       d="m 52,737.36 h -9 v 1 h 9 z"
       fill="#282a33"
       id="path5" />
  </g>
  <g
     id="bottom-left-inactive"
     transform="translate(65,-543.36)">
    <path
       d="m 42,749.36 v 1 h 1 v -1 z"
       fill="#3d3f47"
       id="path6" />
    <path
       d="m 42,740.36 v 9 h 1 v -9 z"
       fill="#3d3f47"
       id="path7" />
    <path
       d="m 52,749.36 h -9 v 1 h 9 z"
       fill="#3d3f47"
       id="path8" />
    <path
       d="m 52,748.36 h -9 v 1 h 9 z"
       fill="#282a33"
       id="path9" />
    <path
       d="m 43,740.36 v 9 h 1 v -9 z"
       fill="#282a33"
       id="path10" />
  </g>
  <g
     id="bottom-right-active"
     transform="translate(65,-543.36)">
    <path
       d="m 79,738.36 v 1 h 1 v -1 z"
       fill="#3d3f47"
       id="path11" />
    <path
       d="m 80,729.36 v 9 h -1 v -9 z"
       fill="#3d3f47"
       id="path12" />
    <path
       d="m 70,738.36 h 9 v 1 h -9 z"
       fill="#3d3f47"
       id="path13" />
    <path
       d="m 70,737.36 h 9 v 1 h -9 z"
       fill="#282a33"
       id="path14" />
    <path
       d="m 79,729.36 v 9 h -1 v -9 z"
       fill="#282a33"
       id="path15" />
  </g>
  <g
     id="bottom-right-inactive"
     transform="translate(65,-543.36)">
    <path
       d="m 79,749.36 v 1 h 1 v -1 z"
       fill="#3d3f47"
       id="path16" />
    <path
       d="m 80,740.36 v 9 h -1 v -9 z"
       fill="#3d3f47"
       id="path17" />
    <path
       d="m 70,749.36 h 9 v 1 h -9 z"
       fill="#3d3f47"
       id="path18" />
    <path
       d="m 70,748.36 h 9 v 1 h -9 z"
       fill="#282a33"
       id="path19" />
    <path
       d="m 79,740.36 v 9 h -1 v -9 z"
       fill="#282a33"
       id="path20" />
  </g>
  <g
     id="left-active"
     transform="translate(65,-543.36)">
    <rect
       transform="scale(-1,1)"
       x="-29"
       y="734.35999"
       width="1"
       height="16"
       fill="#3d3f47"
       id="rect20" />
    <rect
       transform="scale(-1,1)"
       x="-30"
       y="734.35999"
       width="1"
       height="16"
       fill="#282a33"
       id="rect21" />
  </g>
  <g
     id="left-inactive"
     transform="translate(65,-543.36)">
    <rect
       transform="scale(-1,1)"
       x="-32"
       y="734.35999"
       width="1"
       height="16"
       fill="#3d3f47"
       id="rect22" />
    <rect
       transform="scale(-1,1)"
       x="-33"
       y="734.35999"
       width="1"
       height="16"
       fill="#282a33"
       id="rect23" />
  </g>
  <g
     id="right-active"
     transform="translate(65,-543.36)">
    <rect
       transform="scale(-1,1)"
       x="-37"
       y="734.35999"
       width="1"
       height="16"
       fill="#3d3f47"
       id="rect24" />
    <rect
       transform="scale(-1,1)"
       x="-36"
       y="734.35999"
       width="1"
       height="16"
       fill="#282a33"
       id="rect25" />
  </g>
  <g
     id="right-inactive"
     transform="translate(65,-543.36)">
    <rect
       transform="scale(-1,1)"
       x="-40"
       y="734.35999"
       width="1"
       height="16"
       fill="#3d3f47"
       id="rect26" />
    <rect
       transform="scale(-1,1)"
       x="-39"
       y="734.35999"
       width="1"
       height="16"
       fill="#282a33"
       id="rect27" />
  </g>
  <g
     id="bottom-active"
     transform="translate(65,-543.36)">
    <rect
       transform="matrix(0,-1,-1,0,0,0)"
       x="-739.35999"
       y="-69"
       width="1.0001"
       height="16"
       fill="#3d3f47"
       id="rect28" />
    <rect
       transform="matrix(0,-1,-1,0,0,0)"
       x="-738.35999"
       y="-69"
       width="1.0001"
       height="16"
       fill="#282a33"
       id="rect29" />
  </g>
  <g
     id="bottom-inactive"
     transform="translate(65,-532.36)">
    <rect
       transform="matrix(0,-1,-1,0,0,0)"
       x="-739.35999"
       y="-69"
       width="1.0001"
       height="16"
       fill="#3d3f47"
       id="rect30" />
    <rect
       transform="matrix(0,-1,-1,0,0,0)"
       x="-738.35999"
       y="-69"
       width="1.0001"
       height="16"
       fill="#282a33"
       id="rect31" />
  </g>
  <g
     id="title-1-active"
     transform="matrix(0.17857,0,0,1,9.1071,-415.36)">
    <rect
       x="5"
       y="557.35999"
       width="28"
       height="28"
       fill="#282a33"
       id="rect32" />
    <rect
       x="5"
       y="557.35999"
       width="28"
       height="1"
       fill="#ffffff"
       opacity="0.1"
       id="rect33" />
  </g>
  <use
     id="title-2-active"
     transform="translate(7)"
     width="100%"
     height="100%"
     xlink:href="#title-1-active"
     x="0"
     y="0" />
  <use
     id="title-3-active"
     transform="translate(14)"
     width="100%"
     height="100%"
     xlink:href="#title-1-active"
     x="0"
     y="0" />
  <use
     id="title-4-active"
     transform="translate(21)"
     width="100%"
     height="100%"
     xlink:href="#title-1-active"
     x="0"
     y="0" />
  <use
     id="title-5-active"
     transform="translate(28)"
     width="100%"
     height="100%"
     xlink:href="#title-1-active"
     x="0"
     y="0" />
  <use
     id="title-1-inactive"
     transform="translate(35)"
     width="100%"
     height="100%"
     xlink:href="#title-1-active"
     x="0"
     y="0" />
  <use
     id="title-2-inactive"
     transform="translate(42)"
     width="100%"
     height="100%"
     xlink:href="#title-1-active"
     x="0"
     y="0" />
  <use
     id="title-3-inactive"
     transform="translate(49)"
     width="100%"
     height="100%"
     xlink:href="#title-1-active"
     x="0"
     y="0" />
  <use
     id="title-4-inactive"
     transform="translate(56)"
     width="100%"
     height="100%"
     xlink:href="#title-1-active"
     x="0"
     y="0" />
  <use
     id="title-5-inactive"
     transform="translate(63)"
     width="100%"
     height="100%"
     xlink:href="#title-1-active"
     x="0"
     y="0" />
  <g
     id="hide-prelight"
     transform="translate(5,-547.36)">
    <g
       transform="translate(33,66)"
       id="g35">
      <rect
         x="5"
         y="557.35999"
         width="28"
         height="28"
         fill="#282a33"
         id="rect34" />
      <rect
         x="5"
         y="557.35999"
         width="28"
         height="1"
         fill="#ffffff"
         opacity="0.1"
         id="rect35" />
    </g>
    <g
       id="titlebutton-minimize-hover-c"
       transform="translate(111,1320)">
      <rect
         x="-70"
         y="-693.64001"
         width="23"
         height="23"
         ry="11.5"
         fill="#ffffff"
         fill-opacity="0.098039"
         style="paint-order:stroke fill markers"
         id="rect36" />
      <rect
         x="-63"
         y="-682.64001"
         width="9"
         height="1"
         ry="1.1965e-05"
         fill="#d3dae3"
         style="paint-order:stroke fill markers"
         id="rect37" />
    </g>
  </g>
  <g
     id="maximize-prelight"
     transform="translate(5,-547.36)">
    <g
       transform="translate(33,33)"
       id="g39">
      <rect
         x="5"
         y="557.35999"
         width="28"
         height="28"
         fill="#282a33"
         id="rect38" />
      <rect
         x="5"
         y="557.35999"
         width="28"
         height="1"
         fill="#ffffff"
         opacity="0.1"
         id="rect39" />
    </g>
    <g
       transform="translate(40,592.36)"
       enable-background="new"
       id="g43">
      <g
         transform="translate(0,-1028.4)"
         id="g42">
        <g
           id="titlebutton-max-hover"
           transform="translate(-509,1218)">
          <g
             transform="translate(-781,-432.64)"
             id="g41">
            <g
               transform="translate(1294,247)"
               fill="#c0e3ff"
               id="g40" />
          </g>
          <rect
             x="513"
             y="-185.64"
             width="16"
             height="16"
             fill="none"
             id="rect41" />
        </g>
      </g>
    </g>
    <g
       id="titlebutton-maximize-hover-c"
       transform="translate(74,1288)">
      <rect
         x="-33"
         y="-694.64001"
         width="23"
         height="23"
         ry="11.5"
         fill="#ffffff"
         fill-opacity="0.098039"
         style="paint-order:stroke fill markers"
         id="rect43" />
      <path
         d="m -26,-687.64 v 9 h 9 v -9 z m 1,1 h 7 v 7 h -7 z"
         fill="#d3dae3"
         style="paint-order:stroke fill markers"
         id="path43" />
    </g>
  </g>
  <g
     id="close-prelight"
     transform="translate(5,-547.36)">
    <g
       transform="translate(33,-2.2617e-5)"
       id="g45">
      <rect
         x="5"
         y="557.35999"
         width="28"
         height="28"
         fill="#282a33"
         id="rect44" />
      <rect
         x="5"
         y="557.35999"
         width="28"
         height="1"
         fill="#ffffff"
         opacity="0.1"
         id="rect45" />
    </g>
    <g
       id="titlebutton-close-hover-c"
       transform="translate(32,1255)">
      <rect
         x="9"
         y="-694.64001"
         width="23"
         height="23"
         ry="11.5"
         fill="#d7787d"
         style="paint-order:stroke fill markers"
         id="rect46" />
      <path
         d="m 16.354,-687.99 -0.70703,0.70704 4.1465,4.1465 -4.1465,4.1465 0.70703,0.70704 4.1465,-4.1465 4.1465,4.1465 0.70703,-0.70704 -4.1465,-4.1465 4.1465,-4.1465 -0.70703,-0.70704 -4.1465,4.1465 z"
         fill="#ffffff"
         style="paint-order:stroke fill markers"
         id="path46" />
    </g>
  </g>
  <g
     id="hide-inactive"
     transform="translate(5,-547.36)">
    <g
       transform="translate(99,66)"
       id="g48">
      <rect
         x="5"
         y="557.35999"
         width="28"
         height="28"
         fill="#282a33"
         id="rect47" />
      <rect
         x="5"
         y="557.35999"
         width="28"
         height="1"
         fill="#ffffff"
         opacity="0.1"
         id="rect48" />
    </g>
    <g
       id="titlebutton-minimize-backdrop-c"
       transform="translate(177,1320)"
       opacity="0.5">
      <rect
         x="-70"
         y="-693.64001"
         width="23"
         height="23"
         ry="11.5"
         opacity="0"
         stroke-width="0.92"
         style="paint-order:stroke fill markers"
         id="rect49" />
      <rect
         x="-63"
         y="-682.64001"
         width="9"
         height="1"
         ry="1.1965e-05"
         fill="#d3dae3"
         opacity="1"
         style="paint-order:stroke fill markers"
         id="rect50" />
    </g>
  </g>
  <g
     id="maximize-inactive"
     transform="translate(5,-547.36)">
    <g
       transform="translate(99,33)"
       id="g52">
      <rect
         x="5"
         y="557.35999"
         width="28"
         height="28"
         fill="#282a33"
         id="rect51" />
      <rect
         x="5"
         y="557.35999"
         width="28"
         height="1"
         fill="#ffffff"
         opacity="0.1"
         id="rect52" />
    </g>
    <g
       id="titlebutton-maximize-backdrop-c"
       transform="translate(140,1288)"
       opacity="0.5">
      <rect
         x="-33"
         y="-694.64001"
         width="23"
         height="23"
         ry="11.5"
         opacity="0"
         stroke-width="0.92"
         style="paint-order:stroke fill markers"
         id="rect53" />
      <path
         d="m -26,-687.64 v 9 h 9 v -9 z m 1,1 h 7 v 7 h -7 z"
         fill="#d3dae3"
         opacity="1"
         style="paint-order:stroke fill markers"
         id="path53" />
    </g>
  </g>
  <g
     id="close-inactive"
     transform="translate(5,-547.36)">
    <g
       transform="translate(99,-2.2617e-5)"
       id="g55">
      <rect
         x="5"
         y="557.35999"
         width="28"
         height="28"
         fill="#282a33"
         id="rect54" />
      <rect
         x="5"
         y="557.35999"
         width="28"
         height="1"
         fill="#ffffff"
         opacity="0.1"
         id="rect55" />
    </g>
    <g
       id="titlebutton-close-backdrop-c"
       transform="translate(98,1255)"
       opacity="0.5">
      <rect
         x="9"
         y="-694.64001"
         width="23"
         height="23"
         ry="11.5"
         opacity="0"
         stroke-width="0.92"
         style="paint-order:stroke fill markers"
         id="rect56" />
      <path
         d="m 16.354,-687.99 -0.70703,0.70704 4.1465,4.1465 -4.1465,4.1465 0.70703,0.70704 4.1465,-4.1465 4.1465,4.1465 0.70703,-0.70704 -4.1465,-4.1465 4.1465,-4.1465 -0.70703,-0.70704 -4.1465,4.1465 z"
         fill="#d3dae3"
         opacity="1"
         style="paint-order:stroke fill markers"
         id="path56" />
    </g>
  </g>
  <g
     id="hide-pressed"
     transform="translate(5,-547.36)">
    <g
       transform="translate(66,66)"
       id="g58">
      <rect
         x="5"
         y="557.35999"
         width="28"
         height="28"
         fill="#282a33"
         id="rect57" />
      <rect
         x="5"
         y="557.35999"
         width="28"
         height="1"
         fill="#ffffff"
         opacity="0.1"
         id="rect58" />
    </g>
    <g
       id="titlebutton-minimize-active-c"
       transform="translate(144,1320)">
      <rect
         x="-70"
         y="-693.64001"
         width="23"
         height="23"
         ry="11.5"
         fill="#ffffff"
         fill-opacity="0.2"
         style="paint-order:stroke fill markers"
         id="rect59" />
      <rect
         x="-63"
         y="-682.64001"
         width="9"
         height="1"
         ry="1.1965e-05"
         fill="#d3dae3"
         style="paint-order:stroke fill markers"
         id="rect60" />
    </g>
  </g>
  <g
     id="maximize-pressed"
     transform="translate(5,-547.36)">
    <g
       transform="translate(66,33)"
       id="g62">
      <rect
         x="5"
         y="557.35999"
         width="28"
         height="28"
         fill="#282a33"
         id="rect61" />
      <rect
         x="5"
         y="557.35999"
         width="28"
         height="1"
         fill="#ffffff"
         opacity="0.1"
         id="rect62" />
    </g>
    <g
       id="titlebutton-maximize-active-c"
       transform="translate(107,1288)">
      <rect
         x="-33"
         y="-694.64001"
         width="23"
         height="23"
         ry="11.5"
         fill="#ffffff"
         fill-opacity="0.2"
         style="paint-order:stroke fill markers"
         id="rect63" />
      <path
         d="m -26,-687.64 v 9 h 9 v -9 z m 1,1 h 7 v 7 h -7 z"
         fill="#d3dae3"
         style="paint-order:stroke fill markers"
         id="path63" />
    </g>
  </g>
  <g
     id="close-pressed"
     transform="translate(5,-547.36)">
    <g
       transform="translate(66,-2.2617e-5)"
       id="g65">
      <rect
         x="5"
         y="557.35999"
         width="28"
         height="28"
         fill="#282a33"
         id="rect64" />
      <rect
         x="5"
         y="557.35999"
         width="28"
         height="1"
         fill="#ffffff"
         opacity="0.1"
         id="rect65" />
    </g>
    <g
       id="titlebutton-close-active-c"
       transform="translate(65,1255)">
      <rect
         x="9"
         y="-694.64001"
         width="23"
         height="23"
         ry="11.5"
         fill="#ae4a4f"
         style="paint-order:stroke fill markers"
         id="rect66" />
      <path
         d="m 16.354,-687.99 -0.70703,0.70704 4.1465,4.1465 -4.1465,4.1465 0.70703,0.70704 4.1465,-4.1465 4.1465,4.1465 0.70703,-0.70704 -4.1465,-4.1465 4.1465,-4.1465 -0.70703,-0.70704 -4.1465,4.1465 z"
         fill="#ffffff"
         style="paint-order:stroke fill markers"
         id="path66" />
    </g>
  </g>
  <g
     id="hide-active"
     transform="translate(5,-547.36)">
    <rect
       x="5"
       y="623.35999"
       width="28"
       height="28"
       fill="#282a33"
       id="rect67" />
    <rect
       x="5"
       y="623.35999"
       width="28"
       height="1"
       fill="#ffffff"
       opacity="0.1"
       id="rect68" />
    <rect
       x="15"
       y="637.35999"
       width="9"
       height="1"
       ry="1.1965e-05"
       fill="#d3dae3"
       style="paint-order:stroke fill markers"
       id="rect69" />
  </g>
  <g
     id="maximize-active"
     transform="translate(5,-547.36)">
    <g
       transform="translate(0,33)"
       id="g71">
      <rect
         x="5"
         y="557.35999"
         width="28"
         height="28"
         fill="#282a33"
         id="rect70" />
      <rect
         x="5"
         y="557.35999"
         width="28"
         height="1"
         fill="#ffffff"
         opacity="0.1"
         id="rect71" />
    </g>
    <path
       d="m 15,600.36 v 9 h 9 v -9 z m 1,1 h 7 v 7 h -7 z"
       fill="#d3dae3"
       style="paint-order:stroke fill markers"
       id="path71" />
  </g>
  <g
     id="close-active"
     transform="translate(5,-547.36)">
    <rect
       x="5"
       y="557.35999"
       width="28"
       height="28"
       fill="#282a33"
       id="rect72" />
    <rect
       x="5"
       y="557.35999"
       width="28"
       height="1"
       fill="#ffffff"
       opacity="0.1"
       id="rect73" />
    <path
       d="m 15.354,567.01 -0.70703,0.70704 4.1465,4.1465 -4.1465,4.1465 0.70703,0.70704 4.1465,-4.1465 4.1465,4.1465 0.70703,-0.70704 -4.1465,-4.1465 4.1465,-4.1465 -0.70703,-0.70704 -4.1465,4.1465 z"
       fill="#d3dae3"
       style="paint-order:stroke fill markers"
       id="path73" />
  </g>
  <g
     id="maximize-toggled-active"
     transform="translate(5,-547.36)">
    <rect
       x="5"
       y="656.35999"
       width="28"
       height="28"
       fill="#282a33"
       id="rect74" />
    <rect
       x="5"
       y="656.35999"
       width="28"
       height="1"
       fill="#ffffff"
       opacity="0.1"
       id="rect75" />
    <path
       d="m 17,666.36 v 2 h -2 v 7 l 7,10e-6 v -2 h 2 v -7 z m 1,1 h 5 v 5 h -1 v -4 h -4 z m -2,2 h 5 v 5 h -5 z"
       fill="#d3dae3"
       style="paint-order:stroke fill markers"
       id="path75" />
  </g>
  <g
     id="maximize-toggled-prelight"
     transform="translate(5,-547.36)">
    <g
       transform="translate(-5e-8,0.56845)"
       id="g85">
      <g
         transform="translate(5e-8,65.432)"
         id="g84">
        <g
           transform="translate(33,33)"
           id="g77">
          <rect
             x="5"
             y="557.35999"
             width="28"
             height="28"
             fill="#282a33"
             id="rect76" />
          <rect
             x="5"
             y="557.35999"
             width="28"
             height="1"
             fill="#ffffff"
             opacity="0.1"
             id="rect77" />
        </g>
        <g
           transform="translate(40,592.36)"
           enable-background="new"
           id="g82">
          <g
             transform="translate(0,-1028.4)"
             id="g81">
            <g
               transform="translate(-509,1218)"
               id="g80">
              <g
                 transform="translate(-781,-432.64)"
                 id="g79">
                <g
                   transform="translate(1294,247)"
                   fill="#c0e3ff"
                   id="g78" />
              </g>
              <rect
                 x="513"
                 y="-185.64"
                 width="16"
                 height="16"
                 fill="none"
                 id="rect79" />
            </g>
          </g>
        </g>
        <g
           transform="translate(74,1288)"
           id="g83">
          <rect
             x="-33"
             y="-694.64001"
             width="23"
             height="23"
             ry="11.5"
             fill="#ffffff"
             fill-opacity="0.098039"
             style="paint-order:stroke fill markers"
             id="rect82" />
        </g>
      </g>
    </g>
    <path
       d="m 50,666.36 v 2 h -2 v 7 l 7,10e-6 v -2 h 2 v -7 z m 1,1 h 5 v 5 h -1 v -4 h -4 z m -2,2 h 5 v 5 h -5 z"
       fill="#d3dae3"
       style="paint-order:stroke fill markers"
       id="path85" />
  </g>
  <g
     id="maximize-toggled-pressed"
     transform="translate(5,-547.36)">
    <g
       transform="translate(-5e-8,0.56845)"
       id="g89">
      <g
         transform="translate(5e-8,65.432)"
         id="g88">
        <g
           transform="translate(66,33)"
           id="g86">
          <rect
             x="5"
             y="557.35999"
             width="28"
             height="28"
             fill="#282a33"
             id="rect85" />
          <rect
             x="5"
             y="557.35999"
             width="28"
             height="1"
             fill="#ffffff"
             opacity="0.1"
             id="rect86" />
        </g>
        <g
           transform="translate(107,1288)"
           id="g87">
          <rect
             x="-33"
             y="-694.64001"
             width="23"
             height="23"
             ry="11.5"
             fill="#ffffff"
             fill-opacity="0.2"
             style="paint-order:stroke fill markers"
             id="rect87" />
        </g>
      </g>
    </g>
    <path
       d="m 83,666.36 v 2 h -2 v 7 l 7,10e-6 v -2 h 2 v -7 z m 1,1 h 5 v 5 h -1 v -4 h -4 z m -2,2 h 5 v 5 h -5 z"
       fill="#d3dae3"
       style="paint-order:stroke fill markers"
       id="path89" />
  </g>
  <g
     id="maximize-toggled-inactive"
     transform="translate(5,-547.36)">
    <g
       transform="translate(-5e-8,0.56845)"
       id="g93">
      <g
         transform="translate(5e-8,65.432)"
         id="g92">
        <g
           transform="translate(99,33)"
           id="g90">
          <rect
             x="5"
             y="557.35999"
             width="28"
             height="28"
             fill="#282a33"
             id="rect89" />
          <rect
             x="5"
             y="557.35999"
             width="28"
             height="1"
             fill="#ffffff"
             opacity="0.1"
             id="rect90" />
        </g>
        <g
           transform="translate(140,1288)"
           opacity="0.5"
           id="g91">
          <rect
             x="-33"
             y="-694.64001"
             width="23"
             height="23"
             ry="11.5"
             opacity="0"
             stroke-width="0.92"
             style="paint-order:stroke fill markers"
             id="rect91" />
        </g>
      </g>
    </g>
    <path
       d="m 116,666.36 v 2 h -2 v 7 l 7,10e-6 v -2 h 2 v -7 z m 1,1 h 5 v 5 h -1 v -4 h -4 z m -2,2 h 5 v 5 h -5 z"
       fill="#7e828b"
       style="paint-order:stroke fill markers"
       id="path93" />
  </g>
  <g
     id="menu-prelight"
     transform="translate(5,-547.36)">
    <g
       transform="translate(175,-3.3e-5)"
       id="g94">
      <rect
         x="5"
         y="557.35999"
         width="28"
         height="28"
         fill="#282a33"
         id="rect93" />
      <rect
         x="5"
         y="557.35999"
         width="28"
         height="1"
         fill="#ffffff"
         opacity="0.1"
         id="rect94" />
    </g>
    <rect
       x="183"
       y="560.35999"
       width="23"
       height="23"
       ry="11.5"
       fill="#ffffff"
       fill-opacity="0.098039"
       style="paint-order:stroke fill markers"
       id="rect95" />
    <path
       d="m 189.5,570.36 a 1.5,1.5 0 0 0 -1.5,1.5 1.5,1.5 0 0 0 1.5,1.5 1.5,1.5 0 0 0 1.5,-1.5 1.5,1.5 0 0 0 -1.5,-1.5 z m 5,0 a 1.5,1.5 0 0 0 -1.5,1.5 1.5,1.5 0 0 0 1.5,1.5 1.5,1.5 0 0 0 1.5,-1.5 1.5,1.5 0 0 0 -1.5,-1.5 z m 5,0 a 1.5,1.5 0 0 0 -1.5,1.5 1.5,1.5 0 0 0 1.5,1.5 1.5,1.5 0 0 0 1.5,-1.5 1.5,1.5 0 0 0 -1.5,-1.5 z m -10,1 a 0.49997,0.49997 0 0 1 0.5,0.5 0.49997,0.49997 0 0 1 -0.5,0.5 0.49997,0.49997 0 0 1 -0.5,-0.5 0.49997,0.49997 0 0 1 0.5,-0.5 z m 5,0 a 0.49997,0.49997 0 0 1 0.5,0.5 0.49997,0.49997 0 0 1 -0.5,0.5 0.49997,0.49997 0 0 1 -0.5,-0.5 0.49997,0.49997 0 0 1 0.5,-0.5 z m 5,0 a 0.49997,0.49997 0 0 1 0.5,0.5 0.49997,0.49997 0 0 1 -0.5,0.5 0.49997,0.49997 0 0 1 -0.5,-0.5 0.49997,0.49997 0 0 1 0.5,-0.5 z"
       fill="#ffffff"
       opacity="0.75"
       id="path95" />
  </g>
  <g
     id="menu-active"
     transform="translate(5,-547.36)">
    <g
       transform="translate(140,-3.3e-5)"
       id="g97">
      <rect
         x="5"
         y="557.35999"
         width="28"
         height="28"
         fill="#282a33"
         id="rect96" />
      <rect
         x="5"
         y="557.35999"
         width="28"
         height="1"
         fill="#ffffff"
         opacity="0.1"
         id="rect97" />
    </g>
    <path
       d="m 154.5,570.36 a 1.5,1.5 0 0 0 -1.5,1.5 1.5,1.5 0 0 0 1.5,1.5 1.5,1.5 0 0 0 1.5,-1.5 1.5,1.5 0 0 0 -1.5,-1.5 z m 5,0 a 1.5,1.5 0 0 0 -1.5,1.5 1.5,1.5 0 0 0 1.5,1.5 1.5,1.5 0 0 0 1.5,-1.5 1.5,1.5 0 0 0 -1.5,-1.5 z m 5,0 a 1.5,1.5 0 0 0 -1.5,1.5 1.5,1.5 0 0 0 1.5,1.5 1.5,1.5 0 0 0 1.5,-1.5 1.5,1.5 0 0 0 -1.5,-1.5 z m -10,1 a 0.49997,0.49997 0 0 1 0.5,0.5 0.49997,0.49997 0 0 1 -0.5,0.5 0.49997,0.49997 0 0 1 -0.5,-0.5 0.49997,0.49997 0 0 1 0.5,-0.5 z m 5,0 a 0.49997,0.49997 0 0 1 0.5,0.5 0.49997,0.49997 0 0 1 -0.5,0.5 0.49997,0.49997 0 0 1 -0.5,-0.5 0.49997,0.49997 0 0 1 0.5,-0.5 z m 5,0 a 0.49997,0.49997 0 0 1 0.5,0.5 0.49997,0.49997 0 0 1 -0.5,0.5 0.49997,0.49997 0 0 1 -0.5,-0.5 0.49997,0.49997 0 0 1 0.5,-0.5 z"
       fill="#ffffff"
       opacity="0.75"
       id="path97" />
  </g>
  <g
     id="menu-pressed"
     transform="translate(5,-547.36)">
    <g
       transform="translate(209,-3.3e-5)"
       id="g99">
      <rect
         x="5"
         y="557.35999"
         width="28"
         height="28"
         fill="#282a33"
         id="rect98" />
      <rect
         x="5"
         y="557.35999"
         width="28"
         height="1"
         fill="#ffffff"
         opacity="0.1"
         id="rect99" />
    </g>
    <rect
       x="217"
       y="560.35999"
       width="23"
       height="23"
       ry="11.5"
       fill="#ffffff"
       fill-opacity="0.2"
       style="paint-order:stroke fill markers"
       id="rect100" />
    <path
       d="m 223.5,570.36 a 1.5,1.5 0 0 0 -1.5,1.5 1.5,1.5 0 0 0 1.5,1.5 1.5,1.5 0 0 0 1.5,-1.5 1.5,1.5 0 0 0 -1.5,-1.5 z m 5,0 a 1.5,1.5 0 0 0 -1.5,1.5 1.5,1.5 0 0 0 1.5,1.5 1.5,1.5 0 0 0 1.5,-1.5 1.5,1.5 0 0 0 -1.5,-1.5 z m 5,0 a 1.5,1.5 0 0 0 -1.5,1.5 1.5,1.5 0 0 0 1.5,1.5 1.5,1.5 0 0 0 1.5,-1.5 1.5,1.5 0 0 0 -1.5,-1.5 z m -10,1 a 0.49997,0.49997 0 0 1 0.5,0.5 0.49997,0.49997 0 0 1 -0.5,0.5 0.49997,0.49997 0 0 1 -0.5,-0.5 0.49997,0.49997 0 0 1 0.5,-0.5 z m 5,0 a 0.49997,0.49997 0 0 1 0.5,0.5 0.49997,0.49997 0 0 1 -0.5,0.5 0.49997,0.49997 0 0 1 -0.5,-0.5 0.49997,0.49997 0 0 1 0.5,-0.5 z m 5,0 a 0.49997,0.49997 0 0 1 0.5,0.5 0.49997,0.49997 0 0 1 -0.5,0.5 0.49997,0.49997 0 0 1 -0.5,-0.5 0.49997,0.49997 0 0 1 0.5,-0.5 z"
       fill="#ffffff"
       opacity="0.75"
       id="path100" />
  </g>
  <g
     id="menu-inactive"
     transform="translate(5,-547.36)">
    <g
       transform="translate(243,-3.3e-5)"
       id="g102">
      <rect
         x="5"
         y="557.35999"
         width="28"
         height="28"
         fill="#282a33"
         id="rect101" />
      <rect
         x="5"
         y="557.35999"
         width="28"
         height="1"
         fill="#ffffff"
         opacity="0.1"
         id="rect102" />
    </g>
    <path
       d="m 257.5,570.36 a 1.5,1.5 0 0 0 -1.5,1.5 1.5,1.5 0 0 0 1.5,1.5 1.5,1.5 0 0 0 1.5,-1.5 1.5,1.5 0 0 0 -1.5,-1.5 z m 5,0 a 1.5,1.5 0 0 0 -1.5,1.5 1.5,1.5 0 0 0 1.5,1.5 1.5,1.5 0 0 0 1.5,-1.5 1.5,1.5 0 0 0 -1.5,-1.5 z m 5,0 a 1.5,1.5 0 0 0 -1.5,1.5 1.5,1.5 0 0 0 1.5,1.5 1.5,1.5 0 0 0 1.5,-1.5 1.5,1.5 0 0 0 -1.5,-1.5 z m -10,1 a 0.49997,0.49997 0 0 1 0.5,0.5 0.49997,0.49997 0 0 1 -0.5,0.5 0.49997,0.49997 0 0 1 -0.5,-0.5 0.49997,0.49997 0 0 1 0.5,-0.5 z m 5,0 a 0.49997,0.49997 0 0 1 0.5,0.5 0.49997,0.49997 0 0 1 -0.5,0.5 0.49997,0.49997 0 0 1 -0.5,-0.5 0.49997,0.49997 0 0 1 0.5,-0.5 z m 5,0 a 0.49997,0.49997 0 0 1 0.5,0.5 0.49997,0.49997 0 0 1 -0.5,0.5 0.49997,0.49997 0 0 1 -0.5,-0.5 0.49997,0.49997 0 0 1 0.5,-0.5 z"
       fill="#ffffff"
       opacity="0.3"
       id="path102" />
  </g>
  <g
     id="shade-active"
     transform="translate(5,-547.36)">
    <g
       transform="translate(140,33)"
       id="g104">
      <rect
         x="5"
         y="557.35999"
         width="28"
         height="28"
         fill="#282a33"
         id="rect103" />
      <rect
         x="5"
         y="557.35999"
         width="28"
         height="1"
         fill="#ffffff"
         opacity="0.1"
         id="rect104" />
    </g>
    <path
       d="m 160,601.33 -6.3633,6.3633 0.70703,0.70703 5.6562,-5.6562 5.6562,5.6562 0.70703,-0.70703 -5.6562,-5.6562 z"
       fill="#ffffff"
       opacity="0.75"
       id="path104" />
  </g>
  <g
     id="shade-prelight"
     transform="translate(5,-547.36)">
    <g
       transform="translate(175,33)"
       id="g106">
      <rect
         x="5"
         y="557.35999"
         width="28"
         height="28"
         fill="#282a33"
         id="rect105" />
      <rect
         x="5"
         y="557.35999"
         width="28"
         height="1"
         fill="#ffffff"
         opacity="0.1"
         id="rect106" />
    </g>
    <rect
       x="183"
       y="593.35999"
       width="23"
       height="23"
       ry="11.5"
       fill="#ffffff"
       fill-opacity="0.098039"
       style="paint-order:stroke fill markers"
       id="rect107" />
    <path
       d="m 194.5,601.33 -6.3633,6.3633 0.70703,0.70703 5.6562,-5.6562 5.6562,5.6562 0.70703,-0.70703 -5.6562,-5.6562 z"
       fill="#ffffff"
       opacity="0.75"
       id="path107" />
  </g>
  <g
     id="shade-pressed"
     transform="translate(5,-547.36)">
    <g
       transform="translate(209,33)"
       id="g109">
      <rect
         x="5"
         y="557.35999"
         width="28"
         height="28"
         fill="#282a33"
         id="rect108" />
      <rect
         x="5"
         y="557.35999"
         width="28"
         height="1"
         fill="#ffffff"
         opacity="0.1"
         id="rect109" />
    </g>
    <rect
       x="217"
       y="593.35999"
       width="23"
       height="23"
       ry="11.5"
       fill="#ffffff"
       fill-opacity="0.2"
       style="paint-order:stroke fill markers"
       id="rect110" />
    <path
       d="m 228.5,601.33 -6.3633,6.3633 0.70703,0.70703 5.6562,-5.6562 5.6562,5.6562 0.70703,-0.70703 -5.6562,-5.6562 z"
       fill="#ffffff"
       opacity="0.75"
       id="path110" />
  </g>
  <g
     id="shade-inactive"
     transform="translate(5,-547.36)">
    <g
       transform="translate(243,33)"
       id="g112">
      <rect
         x="5"
         y="557.35999"
         width="28"
         height="28"
         fill="#282a33"
         id="rect111" />
      <rect
         x="5"
         y="557.35999"
         width="28"
         height="1"
         fill="#ffffff"
         opacity="0.1"
         id="rect112" />
    </g>
    <path
       d="m 263,601.33 -6.3633,6.3633 0.70703,0.70703 5.6562,-5.6562 5.6562,5.6562 0.70703,-0.70703 -5.6562,-5.6562 z"
       fill="#ffffff"
       opacity="0.3"
       id="path112" />
  </g>
  <g
     id="shade-toggled-active"
     transform="translate(5,-547.36)">
    <g
       transform="translate(140,66)"
       id="g114">
      <rect
         x="5"
         y="557.35999"
         width="28"
         height="28"
         fill="#282a33"
         id="rect113" />
      <rect
         x="5"
         y="557.35999"
         width="28"
         height="1"
         fill="#ffffff"
         opacity="0.1"
         id="rect114" />
    </g>
    <path
       d="m 160,641.4 -6.3633,-6.3633 0.70703,-0.70703 5.6562,5.6562 5.6562,-5.6562 0.70703,0.70703 -5.6562,5.6562 z"
       fill="#ffffff"
       opacity="0.75"
       id="path114" />
  </g>
  <g
     id="shade-toggled-prelight"
     transform="translate(5,-547.36)">
    <g
       transform="translate(175,66)"
       id="g116">
      <rect
         x="5"
         y="557.35999"
         width="28"
         height="28"
         fill="#282a33"
         id="rect115" />
      <rect
         x="5"
         y="557.35999"
         width="28"
         height="1"
         fill="#ffffff"
         opacity="0.1"
         id="rect116" />
    </g>
    <rect
       x="183"
       y="626.35999"
       width="23"
       height="23"
       ry="11.5"
       fill="#ffffff"
       fill-opacity="0.098039"
       style="paint-order:stroke fill markers"
       id="rect117" />
    <path
       d="m 194.5,641.4 -6.3633,-6.3633 0.70703,-0.70703 5.6562,5.6562 5.6562,-5.6562 0.70703,0.70703 -5.6562,5.6562 z"
       fill="#ffffff"
       opacity="0.75"
       id="path117" />
  </g>
  <g
     id="shade-toggled-pressed"
     transform="translate(5,-547.36)">
    <g
       transform="translate(209,66)"
       id="g119">
      <rect
         x="5"
         y="557.35999"
         width="28"
         height="28"
         fill="#282a33"
         id="rect118" />
      <rect
         x="5"
         y="557.35999"
         width="28"
         height="1"
         fill="#ffffff"
         opacity="0.1"
         id="rect119" />
    </g>
    <rect
       x="217"
       y="626.35999"
       width="23"
       height="23"
       ry="11.5"
       fill="#ffffff"
       fill-opacity="0.2"
       style="paint-order:stroke fill markers"
       id="rect120" />
    <path
       d="m 228.5,641.4 -6.3633,-6.3633 0.70703,-0.70703 5.6562,5.6562 5.6562,-5.6562 0.70703,0.70703 -5.6562,5.6562 z"
       fill="#ffffff"
       opacity="0.75"
       id="path120" />
  </g>
  <g
     id="shade-toggled-inactive"
     transform="translate(5,-547.36)">
    <g
       transform="translate(243,66)"
       id="g122">
      <rect
         x="5"
         y="557.35999"
         width="28"
         height="28"
         fill="#282a33"
         id="rect121" />
      <rect
         x="5"
         y="557.35999"
         width="28"
         height="1"
         fill="#ffffff"
         opacity="0.1"
         id="rect122" />
    </g>
    <path
       d="m 263,641.4 -6.3633,-6.3633 0.70703,-0.70703 5.6562,5.6562 5.6562,-5.6562 0.70703,0.70703 -5.6562,5.6562 z"
       fill="#ffffff"
       opacity="0.3"
       id="path122" />
  </g>
  <g
     id="stick-prelight"
     transform="translate(5,-547.36)">
    <g
       transform="translate(175,99)"
       id="g124">
      <rect
         x="5"
         y="557.35999"
         width="28"
         height="28"
         fill="#282a33"
         id="rect123" />
      <rect
         x="5"
         y="557.35999"
         width="28"
         height="1"
         fill="#ffffff"
         opacity="0.1"
         id="rect124" />
    </g>
    <rect
       x="183"
       y="659.35999"
       width="23"
       height="23"
       ry="11.5"
       fill="#ffffff"
       fill-opacity="0.098039"
       style="paint-order:stroke fill markers"
       id="rect125" />
    <path
       d="m 194.5,664.36 a 6.5,6.5 0 0 0 -6.5,6.5 6.5,6.5 0 0 0 6.5,6.5 6.5,6.5 0 0 0 6.5,-6.5 6.5,6.5 0 0 0 -6.5,-6.5 z m 0,1 a 5.5,5.5 0 0 1 5.5,5.5 5.5,5.5 0 0 1 -5.5,5.5 5.5,5.5 0 0 1 -5.5,-5.5 5.5,5.5 0 0 1 5.5,-5.5 z"
       fill="#ffffff"
       opacity="0.75"
       stop-color="#000000"
       stroke-linecap="round"
       stroke-linejoin="round"
       stroke-width="2"
       style="paint-order:fill markers stroke"
       id="path125" />
  </g>
  <g
     id="stick-active"
     transform="translate(5,-547.36)">
    <g
       transform="translate(140,99)"
       id="g127">
      <rect
         x="5"
         y="557.35999"
         width="28"
         height="28"
         fill="#282a33"
         id="rect126" />
      <rect
         x="5"
         y="557.35999"
         width="28"
         height="1"
         fill="#ffffff"
         opacity="0.1"
         id="rect127" />
    </g>
    <path
       d="m 159.5,664.36 a 6.5,6.5 0 0 0 -6.5,6.5 6.5,6.5 0 0 0 6.5,6.5 6.5,6.5 0 0 0 6.5,-6.5 6.5,6.5 0 0 0 -6.5,-6.5 z m 0,1 a 5.5,5.5 0 0 1 5.5,5.5 5.5,5.5 0 0 1 -5.5,5.5 5.5,5.5 0 0 1 -5.5,-5.5 5.5,5.5 0 0 1 5.5,-5.5 z"
       fill="#ffffff"
       opacity="0.75"
       stop-color="#000000"
       stroke-linecap="round"
       stroke-linejoin="round"
       stroke-width="2"
       style="paint-order:fill markers stroke"
       id="path127" />
  </g>
  <g
     id="stick-pressed"
     transform="translate(5,-547.36)">
    <g
       transform="translate(209,99)"
       id="g129">
      <rect
         x="5"
         y="557.35999"
         width="28"
         height="28"
         fill="#282a33"
         id="rect128" />
      <rect
         x="5"
         y="557.35999"
         width="28"
         height="1"
         fill="#ffffff"
         opacity="0.1"
         id="rect129" />
    </g>
    <rect
       x="217"
       y="659.35999"
       width="23"
       height="23"
       ry="11.5"
       fill="#ffffff"
       fill-opacity="0.2"
       style="paint-order:stroke fill markers"
       id="rect130" />
    <path
       d="m 228.5,664.36 a 6.5,6.5 0 0 0 -6.5,6.5 6.5,6.5 0 0 0 6.5,6.5 6.5,6.5 0 0 0 6.5,-6.5 6.5,6.5 0 0 0 -6.5,-6.5 z m 0,1 a 5.5,5.5 0 0 1 5.5,5.5 5.5,5.5 0 0 1 -5.5,5.5 5.5,5.5 0 0 1 -5.5,-5.5 5.5,5.5 0 0 1 5.5,-5.5 z"
       fill="#ffffff"
       opacity="0.75"
       stop-color="#000000"
       stroke-linecap="round"
       stroke-linejoin="round"
       stroke-width="2"
       style="paint-order:fill markers stroke"
       id="path130" />
  </g>
  <g
     id="stick-inactive"
     transform="translate(5,-547.36)">
    <g
       transform="translate(243,99)"
       id="g132">
      <rect
         x="5"
         y="557.35999"
         width="28"
         height="28"
         fill="#282a33"
         id="rect131" />
      <rect
         x="5"
         y="557.35999"
         width="28"
         height="1"
         fill="#ffffff"
         opacity="0.1"
         id="rect132" />
    </g>
    <path
       d="m 262.5,664.36 a 6.5,6.5 0 0 0 -6.5,6.5 6.5,6.5 0 0 0 6.5,6.5 6.5,6.5 0 0 0 6.5,-6.5 6.5,6.5 0 0 0 -6.5,-6.5 z m 0,1 a 5.5,5.5 0 0 1 5.5,5.5 5.5,5.5 0 0 1 -5.5,5.5 5.5,5.5 0 0 1 -5.5,-5.5 5.5,5.5 0 0 1 5.5,-5.5 z"
       fill="#ffffff"
       opacity="0.3"
       stop-color="#000000"
       stroke-linecap="round"
       stroke-linejoin="round"
       stroke-width="2"
       style="paint-order:fill markers stroke"
       id="path132" />
  </g>
  <g
     id="stick-toggled-active"
     transform="translate(5,-547.36)">
    <g
       transform="translate(140,132)"
       id="g134">
      <rect
         x="5"
         y="557.35999"
         width="28"
         height="28"
         fill="#282a33"
         id="rect133" />
      <rect
         x="5"
         y="557.35999"
         width="28"
         height="1"
         fill="#ffffff"
         opacity="0.1"
         id="rect134" />
    </g>
    <path
       d="m 159.5,697.36 a 6.5,6.5 0 0 0 -6.5,6.5 6.5,6.5 0 0 0 6.5,6.5 6.5,6.5 0 0 0 6.5,-6.5 6.5,6.5 0 0 0 -6.5,-6.5 z m 0,1 a 5.5,5.5 0 0 1 5.5,5.5 5.5,5.5 0 0 1 -5.5,5.5 5.5,5.5 0 0 1 -5.5,-5.5 5.5,5.5 0 0 1 5.5,-5.5 z"
       fill="#ffffff"
       opacity="0.75"
       stop-color="#000000"
       stroke-linecap="round"
       stroke-linejoin="round"
       stroke-width="2"
       style="paint-order:fill markers stroke"
       id="path134" />
    <circle
       cx="159.5"
       cy="703.85999"
       r="2.5"
       fill="#ffffff"
       opacity="0.75"
       stop-color="#000000"
       stroke-linecap="round"
       stroke-linejoin="round"
       stroke-width="2"
       style="paint-order:fill markers stroke"
       id="circle134" />
  </g>
  <g
     id="stick-toggled-prelight"
     transform="translate(5,-547.36)">
    <g
       transform="translate(175,132)"
       id="g136">
      <rect
         x="5"
         y="557.35999"
         width="28"
         height="28"
         fill="#282a33"
         id="rect135" />
      <rect
         x="5"
         y="557.35999"
         width="28"
         height="1"
         fill="#ffffff"
         opacity="0.1"
         id="rect136" />
    </g>
    <rect
       x="183"
       y="692.35999"
       width="23"
       height="23"
       ry="11.5"
       fill="#ffffff"
       fill-opacity="0.098039"
       style="paint-order:stroke fill markers"
       id="rect137" />
    <path
       d="m 194.5,697.36 a 6.5,6.5 0 0 0 -6.5,6.5 6.5,6.5 0 0 0 6.5,6.5 6.5,6.5 0 0 0 6.5,-6.5 6.5,6.5 0 0 0 -6.5,-6.5 z m 0,1 a 5.5,5.5 0 0 1 5.5,5.5 5.5,5.5 0 0 1 -5.5,5.5 5.5,5.5 0 0 1 -5.5,-5.5 5.5,5.5 0 0 1 5.5,-5.5 z"
       fill="#ffffff"
       opacity="0.75"
       stop-color="#000000"
       stroke-linecap="round"
       stroke-linejoin="round"
       stroke-width="2"
       style="paint-order:fill markers stroke"
       id="path137" />
    <circle
       cx="194.5"
       cy="703.85999"
       r="2.5"
       fill="#ffffff"
       opacity="0.75"
       stop-color="#000000"
       stroke-linecap="round"
       stroke-linejoin="round"
       stroke-width="2"
       style="paint-order:fill markers stroke"
       id="circle137" />
  </g>
  <g
     id="stick-toggled-pressed"
     transform="translate(5,-547.36)">
    <g
       transform="translate(209,132)"
       id="g139">
      <rect
         x="5"
         y="557.35999"
         width="28"
         height="28"
         fill="#282a33"
         id="rect138" />
      <rect
         x="5"
         y="557.35999"
         width="28"
         height="1"
         fill="#ffffff"
         opacity="0.1"
         id="rect139" />
    </g>
    <rect
       x="217"
       y="692.35999"
       width="23"
       height="23"
       ry="11.5"
       fill="#ffffff"
       fill-opacity="0.2"
       style="paint-order:stroke fill markers"
       id="rect140" />
    <path
       d="m 228.5,697.36 a 6.5,6.5 0 0 0 -6.5,6.5 6.5,6.5 0 0 0 6.5,6.5 6.5,6.5 0 0 0 6.5,-6.5 6.5,6.5 0 0 0 -6.5,-6.5 z m 0,1 a 5.5,5.5 0 0 1 5.5,5.5 5.5,5.5 0 0 1 -5.5,5.5 5.5,5.5 0 0 1 -5.5,-5.5 5.5,5.5 0 0 1 5.5,-5.5 z"
       fill="#ffffff"
       opacity="0.75"
       stop-color="#000000"
       stroke-linecap="round"
       stroke-linejoin="round"
       stroke-width="2"
       style="paint-order:fill markers stroke"
       id="path140" />
    <circle
       cx="228.5"
       cy="703.85999"
       r="2.5"
       fill="#ffffff"
       opacity="0.75"
       stop-color="#000000"
       stroke-linecap="round"
       stroke-linejoin="round"
       stroke-width="2"
       style="paint-order:fill markers stroke"
       id="circle140" />
  </g>
  <g
     id="stick-toggled-inactive"
     transform="translate(5,-547.36)">
    <g
       transform="translate(243,132)"
       id="g142">
      <rect
         x="5"
         y="557.35999"
         width="28"
         height="28"
         fill="#282a33"
         id="rect141" />
      <rect
         x="5"
         y="557.35999"
         width="28"
         height="1"
         fill="#ffffff"
         opacity="0.1"
         id="rect142" />
    </g>
    <path
       d="m 262.5,697.36 a 6.5,6.5 0 0 0 -6.5,6.5 6.5,6.5 0 0 0 6.5,6.5 6.5,6.5 0 0 0 6.5,-6.5 6.5,6.5 0 0 0 -6.5,-6.5 z m 0,1 a 5.5,5.5 0 0 1 5.5,5.5 5.5,5.5 0 0 1 -5.5,5.5 5.5,5.5 0 0 1 -5.5,-5.5 5.5,5.5 0 0 1 5.5,-5.5 z"
       fill="#ffffff"
       opacity="0.3"
       stop-color="#000000"
       stroke-linecap="round"
       stroke-linejoin="round"
       stroke-width="2"
       style="paint-order:fill markers stroke"
       id="path142" />
    <circle
       cx="262.5"
       cy="703.85999"
       r="2.5"
       fill="#ffffff"
       opacity="0.3"
       stop-color="#000000"
       stroke-linecap="round"
       stroke-linejoin="round"
       stroke-width="2"
       style="paint-order:fill markers stroke"
       id="circle142" />
  </g>
  <g
     id="top-left-inactive"
     transform="translate(36,-547.35999)">
    <path
       d="m -5,724.36 v 1 h -2 v 1 h -1 v 1 h -1 v 1 h -1 v 1 h -1 v 2 h -1 v 21 H 0 v -28 z"
       fill="#282a33"
       id="path143" />
    <path
       transform="translate(-415,631.36)"
       d="m 410,93 v 1 h 5 v -1 z m 0,1 h -2 v 1 h 2 z m -2,1 h -1 v 1 h 1 z m -1,1 h -1 v 1 h 1 z m -1,1 h -1 v 1 h 1 z m -1,1 h -1 v 2 h 1 z m -1,2 h -1 v 21 h 1 z"
       fill="#ffffff"
       opacity="0.1"
       id="path144" />
  </g>
  <use
     id="top-right-active"
     transform="matrix(-1,0,0,1,60,0)"
     width="100%"
     height="100%"
     xlink:href="#top-left-active"
     x="0"
     y="0" />
  <g
     id="top-left-active"
     transform="translate(22,-547.35999)">
    <path
       d="m -5,724.36 v 1 h -2 v 1 h -1 v 1 h -1 v 1 h -1 v 1 h -1 v 2 h -1 v 21 H 0 v -28 z"
       fill="#282a33"
       id="path145" />
    <path
       transform="translate(-401,631.36)"
       d="m 396,93 v 1 h 5 v -1 z m 0,1 h -2 v 1 h 2 z m -2,1 h -1 v 1 h 1 z m -1,1 h -1 v 1 h 1 z m -1,1 h -1 v 1 h 1 z m -1,1 h -1 v 2 h 1 z m -1,2 h -1 v 21 h 1 z"
       fill="#ffffff"
       opacity="0.1"
       id="path146" />
  </g>
  <use
     id="top-right-inactive"
     transform="matrix(-1,0,0,1,89,0)"
     xlink:href="#top-left-inactive"
     x="0"
     y="0" />
</svg>
