<svg width="210mm" height="297mm" version="1.1" viewBox="0 0 210 297" xmlns="http://www.w3.org/2000/svg" xmlns:osb="http://www.openswatchbook.org/uri/2009/osb" xmlns:xlink="http://www.w3.org/1999/xlink">
 <defs>
  <linearGradient id="c" x1="59" x2="59" y1="-542.64" y2="-552.64" gradientTransform="matrix(.26458 0 0 .26458 57.15 262.24)" gradientUnits="userSpaceOnUse" xlink:href="#dark_button_bg"/>
  <linearGradient id="dark_button_bg" osb:paint="solid">
   <stop stop-color="#fff" offset="0"/>
  </linearGradient>
  <linearGradient id="a" x1="19" x2="19" y1="-542.29" y2="-552.99" gradientTransform="matrix(.26458 0 0 .26458 57.15 262.24)" gradientUnits="userSpaceOnUse" xlink:href="#dark_button_bg"/>
  <linearGradient id="d" x1="-21" x2="-21" y1="-542.64" y2="-552.64" gradientTransform="matrix(.26458 0 0 .26458 57.15 262.24)" gradientUnits="userSpaceOnUse" xlink:href="#dark_button_bg"/>
  <linearGradient id="e" x1="-61" x2="-61" y1="-547.64" y2="-546.64" gradientTransform="matrix(.26458 0 0 .26458 57.15 262.24)" gradientUnits="userSpaceOnUse" xlink:href="#dark_button_bg"/>
  <linearGradient id="f" x1="59" x2="59" y1="-582.64" y2="-592.64" gradientTransform="matrix(.26458 0 0 .26458 57.15 262.24)" gradientUnits="userSpaceOnUse" xlink:href="#dark_button_bg"/>
  <linearGradient id="b" x1="19" x2="19" y1="-582.29" y2="-592.99" gradientTransform="matrix(.26458 0 0 .26458 57.15 262.24)" gradientUnits="userSpaceOnUse" xlink:href="#dark_button_bg"/>
  <linearGradient id="g" x1="-21" x2="-21" y1="-582.64" y2="-592.64" gradientTransform="matrix(.26458 0 0 .26458 57.15 262.24)" gradientUnits="userSpaceOnUse" xlink:href="#dark_button_bg"/>
  <linearGradient id="h" x1="-61" x2="-61" y1="-587.64" y2="-586.64" gradientTransform="matrix(.26458 0 0 .26458 57.15 262.24)" gradientUnits="userSpaceOnUse" xlink:href="#dark_button_bg"/>
  <linearGradient id="i" x1="59" x2="59" y1="-622.64" y2="-632.64" gradientTransform="matrix(.26458 0 0 .26458 57.15 262.24)" gradientUnits="userSpaceOnUse" xlink:href="#dark_button_bg"/>
  <linearGradient id="j" x1="19" x2="19" y1="-622.29" y2="-632.99" gradientTransform="matrix(.26458 0 0 .26458 57.15 262.24)" gradientUnits="userSpaceOnUse" xlink:href="#dark_button_bg"/>
  <linearGradient id="k" x1="-21" x2="-21" y1="-622.64" y2="-632.64" gradientTransform="matrix(.26458 0 0 .26458 57.15 262.24)" gradientUnits="userSpaceOnUse" xlink:href="#dark_button_bg"/>
  <linearGradient id="l" x1="-61" x2="-61" y1="-627.64" y2="-626.64" gradientTransform="matrix(.26458 0 0 .26458 57.15 262.24)" gradientUnits="userSpaceOnUse" xlink:href="#dark_button_bg"/>
  <linearGradient id="m" x1="59" x2="59" y1="-662.64" y2="-672.64" gradientTransform="matrix(.26458 0 0 .26458 57.15 262.24)" gradientUnits="userSpaceOnUse" xlink:href="#dark_button_bg"/>
  <linearGradient id="n" x1="19" x2="19" y1="-662.29" y2="-672.99" gradientTransform="matrix(.26458 0 0 .26458 57.15 262.24)" gradientUnits="userSpaceOnUse" xlink:href="#dark_button_bg"/>
  <linearGradient id="o" x1="-21" x2="-21" y1="-662.64" y2="-672.64" gradientTransform="matrix(.26458 0 0 .26458 57.15 262.24)" gradientUnits="userSpaceOnUse" xlink:href="#dark_button_bg"/>
  <linearGradient id="p" x1="-61" x2="-61" y1="-667.64" y2="-666.64" gradientTransform="matrix(.26458 0 0 .26458 57.15 262.24)" gradientUnits="userSpaceOnUse" xlink:href="#dark_button_bg"/>
  <linearGradient id="q" x1="59" x2="59" y1="-542.64" y2="-552.64" gradientTransform="matrix(.26458 0 0 .26458 57.15 262.24)" gradientUnits="userSpaceOnUse" xlink:href="#fg_color"/>
  <linearGradient id="fg_color" osb:paint="solid">
   <stop stop-color="#5c616c" offset="0"/>
  </linearGradient>
  <linearGradient id="r" x1="-21" x2="-21" y1="-542.64" y2="-552.64" gradientTransform="matrix(.26458 0 0 .26458 57.15 262.24)" gradientUnits="userSpaceOnUse" xlink:href="#fg_color"/>
  <linearGradient id="s" x1="-61" x2="-61" y1="-547.64" y2="-546.64" gradientTransform="matrix(.26458 0 0 .26458 57.15 262.24)" gradientUnits="userSpaceOnUse" xlink:href="#fg_color"/>
  <linearGradient id="t" x1="59" x2="59" y1="-582.64" y2="-592.64" gradientTransform="matrix(.26458 0 0 .26458 57.15 262.24)" gradientUnits="userSpaceOnUse" xlink:href="#fg_color"/>
  <linearGradient id="u" x1="-21" x2="-21" y1="-582.64" y2="-592.64" gradientTransform="matrix(.26458 0 0 .26458 57.15 262.24)" gradientUnits="userSpaceOnUse" xlink:href="#fg_color"/>
  <linearGradient id="v" x1="-61" x2="-61" y1="-587.64" y2="-586.64" gradientTransform="matrix(.26458 0 0 .26458 57.15 262.24)" gradientUnits="userSpaceOnUse" xlink:href="#fg_color"/>
  <linearGradient id="w" x1="59" x2="59" y1="-622.64" y2="-632.64" gradientTransform="matrix(.26458 0 0 .26458 57.15 262.24)" gradientUnits="userSpaceOnUse" xlink:href="#fg_color"/>
  <linearGradient id="x" x1="19" x2="19" y1="-622.29" y2="-632.99" gradientTransform="matrix(.26458 0 0 .26458 57.15 262.24)" gradientUnits="userSpaceOnUse" xlink:href="#fg_color"/>
  <linearGradient id="y" x1="-21" x2="-21" y1="-622.64" y2="-632.64" gradientTransform="matrix(.26458 0 0 .26458 57.15 262.24)" gradientUnits="userSpaceOnUse" xlink:href="#fg_color"/>
  <linearGradient id="z" x1="-61" x2="-61" y1="-627.64" y2="-626.64" gradientTransform="matrix(.26458 0 0 .26458 57.15 262.24)" gradientUnits="userSpaceOnUse" xlink:href="#fg_color"/>
  <linearGradient id="aa" x1="59" x2="59" y1="-662.64" y2="-672.64" gradientTransform="matrix(.26458 0 0 .26458 57.15 262.24)" gradientUnits="userSpaceOnUse" xlink:href="#fg_color"/>
  <linearGradient id="ab" x1="19" x2="19" y1="-662.29" y2="-672.99" gradientTransform="matrix(.26458 0 0 .26458 57.15 262.24)" gradientUnits="userSpaceOnUse" xlink:href="#fg_color"/>
  <linearGradient id="ac" x1="-21" x2="-21" y1="-662.64" y2="-672.64" gradientTransform="matrix(.26458 0 0 .26458 57.15 262.24)" gradientUnits="userSpaceOnUse" xlink:href="#fg_color"/>
  <linearGradient id="ad" x1="-61" x2="-61" y1="-667.64" y2="-666.64" gradientTransform="matrix(.26458 0 0 .26458 57.15 262.24)" gradientUnits="userSpaceOnUse" xlink:href="#fg_color"/>
 </defs>
 <g id="titlebutton-minimize-backdrop-small" transform="translate(19.574 44.522)">
  <rect x="37.042" y="81.894" width="7.9375" height="7.9375" ry="3.799e-6" opacity="0" stroke-width=".40217" style="paint-order:stroke fill markers"/>
  <rect x="39.688" y="85.598" width="2.6458" height=".26458" ry="3.1658e-6" fill="url(#ad)" opacity=".5" style="paint-order:stroke fill markers"/>
 </g>
 <g id="titlebutton-maximize-backdrop-small" transform="translate(19.574 44.522)">
  <rect x="47.625" y="81.894" width="7.9375" height="7.9375" ry="3.799e-6" opacity="0" stroke-width=".40217" style="paint-order:stroke fill markers"/>
  <path d="m50.271 84.275v2.6458h2.6458v-2.6458zm0.26458 0.26458h2.1167v2.1167h-2.1167z" fill="url(#ac)" opacity=".5" style="paint-order:stroke fill markers"/>
 </g>
 <g id="titlebutton-close-backdrop-small" transform="translate(19.574 44.522)">
  <rect x="58.208" y="81.894" width="7.9375" height="7.9375" ry="3.799e-6" opacity="0" stroke-width=".40217" style="paint-order:stroke fill markers"/>
  <path d="m60.948 84.182-0.18707 0.18707 1.2294 1.2294-1.2294 1.2289 0.18707 0.18707 1.2294-1.2289 1.2289 1.2289 0.18707-0.18707-1.2289-1.2289 1.2289-1.2294-0.18707-0.18707-1.2289 1.2294z" fill="url(#ab)" opacity=".5" style="paint-order:stroke fill markers"/>
 </g>
 <g id="titlebutton-restore-backdrop-small" transform="translate(19.574 44.522)">
  <rect x="68.792" y="81.894" width="7.9375" height="7.9375" ry="3.799e-6" opacity="0" stroke-width=".40217" style="paint-order:stroke fill markers"/>
  <path d="m71.967 84.275v0.52917h-0.52917v2.1167h2.1167v-0.52917h0.52917v-2.1167zm0.26458 0.26458h1.5875v1.5875h-0.26458v-1.3229h-1.3229zm-0.52917 0.52917h1.5875v1.5875h-1.5875z" fill="url(#aa)" opacity=".5" style="paint-order:stroke fill markers"/>
 </g>
 <g id="titlebutton-minimize-small" transform="translate(19.574 44.522)">
  <rect x="37.042" y="92.477" width="7.9375" height="7.9375" ry="3.799e-6" opacity="0" stroke-width=".40217" style="paint-order:stroke fill markers"/>
  <rect x="39.688" y="96.181" width="2.6458" height=".26458" ry="3.1658e-6" fill="url(#z)" style="paint-order:stroke fill markers"/>
 </g>
 <g id="titlebutton-maximize-small" transform="translate(19.574 44.522)">
  <rect x="47.625" y="92.477" width="7.9375" height="7.9375" ry="3.799e-6" opacity="0" stroke-width=".40217" style="paint-order:stroke fill markers"/>
  <path d="m50.271 94.858v2.6458h2.6458v-2.6458zm0.26458 0.26458h2.1167v2.1167h-2.1167z" fill="url(#y)" style="paint-order:stroke fill markers"/>
 </g>
 <g id="titlebutton-close-small" transform="translate(19.574 44.522)">
  <rect x="58.208" y="92.477" width="7.9375" height="7.9375" ry="3.799e-6" opacity="0" stroke-width=".40217" style="paint-order:stroke fill markers"/>
  <path d="m60.948 94.765-0.18707 0.18707 1.2294 1.2294-1.2294 1.2289 0.18707 0.18707 1.2294-1.2289 1.2289 1.2289 0.18707-0.18707-1.2289-1.2289 1.2289-1.2294-0.18707-0.18707-1.2289 1.2294z" fill="url(#x)" style="paint-order:stroke fill markers"/>
 </g>
 <g id="titlebutton-restore-small" transform="translate(19.574 44.522)">
  <rect x="68.792" y="92.477" width="7.9375" height="7.9375" ry="3.799e-6" opacity="0" stroke-width=".40217" style="paint-order:stroke fill markers"/>
  <path d="m71.967 94.858v0.52917h-0.52917v2.1167h2.1167v-0.52917h0.52917v-2.1167zm0.26458 0.26458h1.5875v1.5875h-0.26458v-1.3229h-1.3229zm-0.52917 0.52917h1.5875v1.5875h-1.5875z" fill="url(#w)" style="paint-order:stroke fill markers"/>
 </g>
 <g id="titlebutton-minimize-hover-small" transform="translate(19.574 44.522)">
  <rect x="37.042" y="103.04" width="7.9375" height="7.9375" ry="3.799e-6" fill="#1f1f1f" fill-opacity=".098039" style="paint-order:stroke fill markers"/>
  <rect x="39.688" y="106.76" width="2.6458" height=".26458" ry="3.1658e-6" fill="url(#v)" style="paint-order:stroke fill markers"/>
 </g>
 <g id="titlebutton-maximize-hover-small" transform="translate(19.574 44.522)">
  <rect x="47.625" y="103.04" width="7.9375" height="7.9375" ry="3.799e-6" fill="#1f1f1f" fill-opacity=".098039" style="paint-order:stroke fill markers"/>
  <path d="m50.271 105.44v2.6458h2.6458v-2.6458zm0.26458 0.26459h2.1167v2.1167h-2.1167z" fill="url(#u)" style="paint-order:stroke fill markers"/>
 </g>
 <g id="titlebutton-close-hover-small" transform="translate(19.574 44.522)">
  <rect x="58.208" y="103.04" width="7.9375" height="7.9375" ry="3.799e-6" fill="#f55" style="paint-order:stroke fill markers"/>
  <path d="m60.948 105.35-0.18707 0.18706 1.2294 1.2294-1.2294 1.2289 0.18707 0.18707 1.2294-1.2289 1.2289 1.2289 0.18707-0.18707-1.2289-1.2289 1.2289-1.2294-0.18707-0.18706-1.2289 1.2294z" fill="url(#b)" style="paint-order:stroke fill markers"/>
 </g>
 <g id="titlebutton-restore-hover-small" transform="translate(19.574 44.522)">
  <rect x="68.792" y="103.04" width="7.9375" height="7.9375" ry="3.799e-6" fill="#1f1f1f" fill-opacity=".098039" style="paint-order:stroke fill markers"/>
  <path d="m71.967 105.44v0.52917h-0.52917v2.1167h2.1167v-0.52917h0.52917v-2.1167zm0.26458 0.26459h1.5875v1.5875h-0.26458v-1.3229h-1.3229zm-0.52917 0.52916h1.5875v1.5875h-1.5875z" fill="url(#t)" style="paint-order:stroke fill markers"/>
 </g>
 <g id="titlebutton-minimize-active-small" transform="translate(19.574 44.522)">
  <rect x="37.042" y="113.64" width="7.9375" height="7.9375" ry="3.799e-6" fill="#191919" fill-opacity=".2" style="paint-order:stroke fill markers"/>
  <rect x="39.688" y="117.35" width="2.6458" height=".26458" ry="3.1658e-6" fill="url(#s)" style="paint-order:stroke fill markers"/>
 </g>
 <g id="titlebutton-maximize-active-small" transform="translate(19.574 44.522)">
  <rect x="47.625" y="113.64" width="7.9375" height="7.9375" ry="3.799e-6" fill="#191919" fill-opacity=".2" style="paint-order:stroke fill markers"/>
  <path d="m50.271 116.02v2.6458h2.6458v-2.6458zm0.26458 0.26458h2.1167v2.1167h-2.1167z" fill="url(#r)" style="paint-order:stroke fill markers"/>
 </g>
 <g id="titlebutton-close-active-small" transform="translate(19.574 44.522)">
  <rect x="58.208" y="113.64" width="7.9375" height="7.9375" ry="3.799e-6" fill="#c83737" style="paint-order:stroke fill markers"/>
  <path d="m60.948 115.93-0.18707 0.18707 1.2294 1.2294-1.2294 1.2289 0.18707 0.18707 1.2294-1.2289 1.2289 1.2289 0.18707-0.18707-1.2289-1.2289 1.2289-1.2294-0.18707-0.18707-1.2289 1.2294z" fill="url(#a)" style="paint-order:stroke fill markers"/>
 </g>
 <g id="titlebutton-restore-active-small" transform="translate(19.574 44.522)">
  <rect x="68.792" y="113.64" width="7.9375" height="7.9375" ry="3.799e-6" fill="#191919" fill-opacity=".2" style="paint-order:stroke fill markers"/>
  <path d="m71.967 116.02v0.52916h-0.52917v2.1167h2.1167v-0.52917h0.52917v-2.1167zm0.26458 0.26458h1.5875v1.5875h-0.26458v-1.3229h-1.3229zm-0.52917 0.52917h1.5875v1.5875h-1.5875z" fill="url(#q)" style="paint-order:stroke fill markers"/>
 </g>
 <g id="titlebutton-minimize-backdrop-dark-small" transform="translate(76.195 44.522)" opacity=".5">
  <rect x="37.042" y="81.894" width="7.9375" height="7.9375" ry="3.799e-6" opacity="0" stroke-width=".40217" style="paint-order:stroke fill markers"/>
  <rect x="39.688" y="85.598" width="2.6458" height=".26458" ry="3.1658e-6" fill="url(#p)" opacity="1" style="paint-order:stroke fill markers"/>
 </g>
 <g id="titlebutton-maximize-backdrop-dark-small" transform="translate(76.195 44.522)" opacity=".5">
  <rect x="47.625" y="81.894" width="7.9375" height="7.9375" ry="3.799e-6" opacity="0" stroke-width=".40217" style="paint-order:stroke fill markers"/>
  <path d="m50.271 84.275v2.6458h2.6458v-2.6458zm0.26458 0.26458h2.1167v2.1167h-2.1167z" fill="url(#o)" opacity="1" style="paint-order:stroke fill markers"/>
 </g>
 <g id="titlebutton-close-backdrop-dark-small" transform="translate(76.195 44.522)" opacity=".5">
  <rect x="58.208" y="81.894" width="7.9375" height="7.9375" ry="3.799e-6" opacity="0" stroke-width=".40217" style="paint-order:stroke fill markers"/>
  <path d="m60.948 84.182-0.18707 0.18707 1.2294 1.2294-1.2294 1.2289 0.18707 0.18707 1.2294-1.2289 1.2289 1.2289 0.18707-0.18707-1.2289-1.2289 1.2289-1.2294-0.18707-0.18707-1.2289 1.2294z" fill="url(#n)" opacity="1" style="paint-order:stroke fill markers"/>
 </g>
 <g id="titlebutton-restore-backdrop-dark-small" transform="translate(76.195 44.522)" opacity=".5">
  <rect x="68.792" y="81.894" width="7.9375" height="7.9375" ry="3.799e-6" opacity="0" stroke-width=".40217" style="paint-order:stroke fill markers"/>
  <path d="m71.967 84.275v0.52917h-0.52917v2.1167h2.1167v-0.52917h0.52917v-2.1167zm0.26458 0.26458h1.5875v1.5875h-0.26458v-1.3229h-1.3229zm-0.52917 0.52917h1.5875v1.5875h-1.5875z" fill="url(#m)" opacity="1" style="paint-order:stroke fill markers"/>
 </g>
 <g id="titlebutton-minimize-dark-small" transform="translate(76.195 44.522)" opacity=".8">
  <rect x="37.042" y="92.477" width="7.9375" height="7.9375" ry="3.799e-6" opacity="0" stroke-width=".40217" style="paint-order:stroke fill markers"/>
  <rect x="39.688" y="96.181" width="2.6458" height=".26458" ry="3.1658e-6" fill="url(#l)" opacity="1" style="paint-order:stroke fill markers"/>
 </g>
 <g id="titlebutton-maximize-dark-small" transform="translate(76.195 44.522)" opacity=".8">
  <rect x="47.625" y="92.477" width="7.9375" height="7.9375" ry="3.799e-6" opacity="0" stroke-width=".40217" style="paint-order:stroke fill markers"/>
  <path d="m50.271 94.858v2.6458h2.6458v-2.6458zm0.26458 0.26458h2.1167v2.1167h-2.1167z" fill="url(#k)" opacity="1" style="paint-order:stroke fill markers"/>
 </g>
 <g id="titlebutton-close-dark-small" transform="translate(76.195 44.522)" opacity=".8">
  <rect x="58.208" y="92.477" width="7.9375" height="7.9375" ry="3.799e-6" opacity="0" stroke-width=".40217" style="paint-order:stroke fill markers"/>
  <path d="m60.948 94.765-0.18707 0.18707 1.2294 1.2294-1.2294 1.2289 0.18707 0.18707 1.2294-1.2289 1.2289 1.2289 0.18707-0.18707-1.2289-1.2289 1.2289-1.2294-0.18707-0.18707-1.2289 1.2294z" fill="url(#j)" opacity="1" style="paint-order:stroke fill markers"/>
 </g>
 <g id="titlebutton-restore-dark-small" transform="translate(76.195 44.522)" opacity=".8">
  <rect x="68.792" y="92.477" width="7.9375" height="7.9375" ry="3.799e-6" opacity="0" stroke-width=".40217" style="paint-order:stroke fill markers"/>
  <path d="m71.967 94.858v0.52917h-0.52917v2.1167h2.1167v-0.52917h0.52917v-2.1167zm0.26458 0.26458h1.5875v1.5875h-0.26458v-1.3229h-1.3229zm-0.52917 0.52917h1.5875v1.5875h-1.5875z" fill="url(#i)" opacity="1" style="paint-order:stroke fill markers"/>
 </g>
 <g id="titlebutton-minimize-hover-dark-small" transform="translate(76.195 44.522)">
  <rect x="37.042" y="103.04" width="7.9375" height="7.9375" ry="3.799e-6" fill="#474747" style="paint-order:stroke fill markers"/>
  <rect x="39.688" y="106.76" width="2.6458" height=".26458" ry="3.1658e-6" fill="url(#h)" opacity=".8" style="paint-order:stroke fill markers"/>
 </g>
 <g id="titlebutton-maximize-hover-dark-small" transform="translate(76.195 44.522)">
  <rect x="47.625" y="103.04" width="7.9375" height="7.9375" ry="3.799e-6" fill="#474747" style="paint-order:stroke fill markers"/>
  <path d="m50.271 105.44v2.6458h2.6458v-2.6458zm0.26458 0.26459h2.1167v2.1167h-2.1167z" fill="url(#g)" opacity=".8" style="paint-order:stroke fill markers"/>
 </g>
 <g id="titlebutton-close-hover-dark-small" transform="translate(76.195 44.522)">
  <rect x="58.208" y="103.04" width="7.9375" height="7.9375" ry="3.799e-6" fill="#f55" style="paint-order:stroke fill markers"/>
  <path d="m60.948 105.35-0.18707 0.18706 1.2294 1.2294-1.2294 1.2289 0.18707 0.18707 1.2294-1.2289 1.2289 1.2289 0.18707-0.18707-1.2289-1.2289 1.2289-1.2294-0.18707-0.18706-1.2289 1.2294z" fill="url(#b)" style="paint-order:stroke fill markers"/>
 </g>
 <g id="titlebutton-restore-hover-dark-small" transform="translate(76.195 44.522)">
  <rect x="68.792" y="103.04" width="7.9375" height="7.9375" ry="3.799e-6" fill="#474747" style="paint-order:stroke fill markers"/>
  <path d="m71.967 105.44v0.52917h-0.52917v2.1167h2.1167v-0.52917h0.52917v-2.1167zm0.26458 0.26459h1.5875v1.5875h-0.26458v-1.3229h-1.3229zm-0.52917 0.52916h1.5875v1.5875h-1.5875z" fill="url(#f)" opacity=".8" style="paint-order:stroke fill markers"/>
 </g>
 <g id="titlebutton-minimize-active-dark-small" transform="translate(76.195 44.522)">
  <rect x="37.042" y="113.64" width="7.9375" height="7.9375" ry="3.799e-6" fill="#666" style="paint-order:stroke fill markers"/>
  <rect x="39.688" y="117.35" width="2.6458" height=".26458" ry="3.1658e-6" fill="url(#e)" opacity=".8" style="paint-order:stroke fill markers"/>
 </g>
 <g id="titlebutton-maximize-active-dark-small" transform="translate(76.195 44.522)">
  <rect x="47.625" y="113.64" width="7.9375" height="7.9375" ry="3.799e-6" fill="#666" style="paint-order:stroke fill markers"/>
  <path d="m50.271 116.02v2.6458h2.6458v-2.6458zm0.26458 0.26458h2.1167v2.1167h-2.1167z" fill="url(#d)" opacity=".8" style="paint-order:stroke fill markers"/>
 </g>
 <g id="titlebutton-close-active-dark-small" transform="translate(76.195 44.522)">
  <rect x="58.208" y="113.64" width="7.9375" height="7.9375" ry="3.799e-6" fill="#c83737" style="paint-order:stroke fill markers"/>
  <path d="m60.948 115.93-0.18707 0.18707 1.2294 1.2294-1.2294 1.2289 0.18707 0.18707 1.2294-1.2289 1.2289 1.2289 0.18707-0.18707-1.2289-1.2289 1.2289-1.2294-0.18707-0.18707-1.2289 1.2294z" fill="url(#a)" style="paint-order:stroke fill markers"/>
 </g>
 <g id="titlebutton-restore-active-dark-small" transform="translate(76.195 44.522)">
  <rect x="68.792" y="113.64" width="7.9375" height="7.9375" ry="3.799e-6" fill="#666" style="paint-order:stroke fill markers"/>
  <path d="m71.967 116.02v0.52916h-0.52917v2.1167h2.1167v-0.52917h0.52917v-2.1167zm0.26458 0.26458h1.5875v1.5875h-0.26458v-1.3229h-1.3229zm-0.52917 0.52917h1.5875v1.5875h-1.5875z" fill="url(#c)" opacity=".8" style="paint-order:stroke fill markers"/>
 </g>
</svg>
