<svg width="24" height="24" version="1.1" viewBox="0 0 6.3498947 6.3497143" xmlns="http://www.w3.org/2000/svg">
  <g transform="matrix(0.01653629,0,0,0.01653629,-4.8570479,-4.2108618)" fill="#ffffff">
    <path d="m 485.72,334.64 c -61.829,0 -111.95,50.101 -112,111.92 v 86.675 c 0.0345,14.032 11.416,25.402 25.462,25.402 0.0345,0 0.0884,-0.004 0.12061,-0.004 v 0.004 h 86.456 c 61.836,-0.0287 111.96,-50.157 111.96,-112 0,-61.856 -50.144,-112 -112,-112 z m 22.704,46.083 v 10e-4 c 18.809,0 36.571,14.422 36.571,34.285 0,1.8426 -0.023,3.6743 -0.31475,5.7702 -0.52037,5.2828 -5.3456,9.069 -10.602,8.3228 -5.262,-0.75356 -8.8352,-5.7364 -7.8575,-10.958 0.0827,-0.58866 0.12061,-1.5276 0.12061,-3.135 0,-11.26 -9.1988,-15.613 -17.918,-15.613 -8.7141,0 -16.569,7.3085 -16.599,15.591 v 28.673 l 16.167,-0.11774 c 12.621,-0.26478 12.751,18.762 0.12923,18.673 l -16.297,0.0885 -0.11775,26.748 c -1.9503,20.994 -19.824,37.784 -41.296,37.784 -22.758,0 -41.533,-18.618 -41.533,-41.432 0.68521,-23.47 19.439,-41.924 42.998,-41.703 l 13.123,-0.0884 v 18.644 l -13.232,0.11775 c -12.951,0.38252 -24.024,9.1649 -24.236,23.032 0,12.643 10.218,22.76 22.887,22.76 12.657,0 22.761,-9.207 22.761,-22.733 v -70.526 c 0.006,-1.3069 0.0678,-2.3547 0.21768,-3.7985 2.1273,-17.256 17.556,-30.406 35.025,-30.406 z" fill="#ffffff" />
  </g>
</svg>
