<?xml version="1.0" encoding="UTF-8" standalone="no"?>
<svg
   width="24"
   height="24"
   version="1.1"
   viewBox="0 0 24 24"
   id="svg4"
   sodipodi:docname="logo-budgie.svg"
   inkscape:version="1.1.1 (3bf5ae0d25, 2021-09-20, custom)"
   xmlns:inkscape="http://www.inkscape.org/namespaces/inkscape"
   xmlns:sodipodi="http://sodipodi.sourceforge.net/DTD/sodipodi-0.dtd"
   xmlns="http://www.w3.org/2000/svg"
   xmlns:svg="http://www.w3.org/2000/svg">
  <defs
     id="defs8" />
  <sodipodi:namedview
     id="namedview6"
     pagecolor="#ffffff"
     bordercolor="#666666"
     borderopacity="1.0"
     inkscape:pageshadow="2"
     inkscape:pageopacity="0.0"
     inkscape:pagecheckerboard="0"
     showgrid="false"
     inkscape:zoom="17.265191"
     inkscape:cx="11.149602"
     inkscape:cy="11.352322"
     inkscape:window-width="1536"
     inkscape:window-height="800"
     inkscape:window-x="0"
     inkscape:window-y="34"
     inkscape:window-maximized="1"
     inkscape:current-layer="svg4" />
  <path
     d="M 12.000945,4.0000001 A 7.9990549,7.9990549 0 0 0 4.0000001,12.000945 7.9990549,7.9990549 0 0 0 12.000945,20 7.9990549,7.9990549 0 0 0 20,12.000945 7.9990549,7.9990549 0 0 0 12.000945,4.0000001 Z m 2.139116,1.8708052 c 0.226762,-0.00377 0.413824,0.022677 0.636817,0.058579 0.816347,0.1322769 1.602457,0.6557153 2.101321,1.5211961 0.674613,1.1678076 0.515909,2.6455766 -0.238101,3.4582576 -0.410082,0.377929 -0.496974,0.406264 -0.750204,0.578234 0.173848,-0.272113 0.204088,-0.325015 0.24566,-0.576382 -0.0094,-0.139837 -0.0057,-0.198416 -0.07937,-0.387405 A 1.0128835,1.0128835 0 0 0 15.602678,10.03387 1.6364727,1.6364727 0 0 0 14.897828,9.8940343 c -0.141726,0 -0.228652,-0.00378 -0.419531,0.024567 C 13.601478,10.160478 12.618868,9.8241123 12.157762,9.0228842 11.605985,8.066694 12.006588,6.7987282 12.996786,6.2279016 A 2.3621099,2.3621099 0 0 1 13.898173,5.889635 c 0.08693,-0.011339 0.166289,-0.015118 0.24188,-0.018898 z M 8.3218104,8.4766966 c 0.1417258,0.00377 0.2796607,0.022677 0.4157134,0.0548 C 9.2685516,8.6958996 9.3365837,8.7563687 9.6124535,8.890543 9.2912025,8.8773146 9.2288663,8.8754248 8.9907542,8.9661304 8.8735917,9.0436075 8.8206854,9.0700606 8.6959752,9.2287945 A 1.0128835,1.0128835 0 0 0 8.4975598,9.8656121 1.6364727,1.6364727 0 0 0 8.7281014,10.545895 c 0.071808,0.122828 0.1114894,0.200309 0.2324314,0.34959 0.6481563,0.640597 0.8465831,1.65915 0.3835873,2.458488 -0.5517776,0.95808 -1.8518696,1.241509 -2.8403372,0.670834 A 2.3621099,2.3621099 0 0 1 5.7611377,13.412557 2.8496728,2.8496728 0 0 1 5.3548731,12.630226 C 5.0600941,11.859234 5.1205518,10.916272 5.6194307,10.050829 6.2109314,9.0284968 7.3258252,8.4389237 8.3197732,8.4748295 Z m 6.1791986,5.1492684 c 1.105444,0 2.001162,0.982648 2.001162,2.125888 0,0.336369 -0.03213,0.653826 -0.158734,0.948631 -0.13795,0.321251 -0.283456,0.506423 -0.472445,0.740755 -0.521541,0.642487 -1.370014,1.060128 -2.369669,1.060128 -1.347336,0 -2.55105,-0.876819 -2.874126,-1.936947 -0.122828,-0.542329 -0.103931,-0.631148 -0.124718,-0.937292 0.149285,0.28722 0.177631,0.340133 0.374165,0.498863 0.126607,0.06425 0.175742,0.09449 0.376035,0.126612 a 1.0204427,1.0204427 0 0 0 0.650046,-0.149289 1.6308033,1.6308033 0 0 0 0.474297,-0.538587 c 0.06992,-0.122828 0.119049,-0.196526 0.188967,-0.376036 0.226762,-0.880599 1.012883,-1.560881 1.936947,-1.560881 z"
     fill="#ffffff"
     stroke-width="1.88967"
     id="path2" />
</svg>
