<svg width="24" height="24" enable-background="new" version="1.0" xmlns="http://www.w3.org/2000/svg">
 <g transform="matrix(.72727 0 0 .72727 -1.8182 -190.91)">
  <path d="m26.009 268c-4.3444 0-5.1577 6.5998-2.7153 6.5998s7.0597-6.5998 2.7153-6.5998zm-6.896 0.74832c-2.4841 0.35077-1.611 5.0303-0.28582 5.1187 1.32 0.0858 2.7724-5.4669 0.28582-5.1187zm-4.4951 1.4551a1.5227 1.5227 0 0 0-0.40794 0.10389c-2.3255 0.88343-0.35337 4.5263 0.95099 4.2821 1.2212-0.23125 1.3616-4.5705-0.54046-4.3834zm-3.0557 2.9309a1.2342 1.2342 0 0 0-0.67297 0.19228c-1.9124 1.1277 0.64438 3.8508 1.7669 3.4298 0.98737-0.37156 0.35857-3.5805-1.0939-3.6246zm8.9175 2.2008c-3.422-0.0623-7.9379 1.7357-8.7071 5.3421-0.83406 3.9053 3.4324 9.3228 7.886 9.3228 2.1904 0 4.716-2.0708 5.1889-4.6926 0.36117-1.9981-4.5419-1.1952-4.3756 0.12473 0.13512 1.0809-0.43133 1.6422-1.2108 1.663-1.0653-0.12992-1.585-0.74572-1.7279-1.6759-0.18968-2.4373 7.4936-4.1781 6.8856-7.9587-0.22346-1.3849-1.8838-2.089-3.9391-2.1255z" fill="#fff" stroke-width="4.6195"/>
 </g>
</svg>
