<svg width="24" height="24" enable-background="new" version="1.0" xmlns="http://www.w3.org/2000/svg">
 <path d="m10.342 4.0053c-3.4477 0.16398-6.1481 3.2784-6.0128 4.9735 0.13532 1.6485 4.3276 3.0964 4.2809 3.1457-0.85659 0.72126-1.4245 1.2086-2.1405 1.8618-1.7212 1.5678-2.9111 2.7291-2.3098 4.3616 0.69793 1.8825 2.2185 1.8045 4.0063 1.4559 4.6196-0.90858 12.209-6.7194 11.817-8.8638-0.31797-1.7345-4.5569-5.1635-7.0693-6.3927-0.78393-0.38263-1.6745-0.58328-2.5831-0.54195m0.72393 2.9764c0.43196-0.043994 0.93191 0.067994 1.4945 0.33863 1.2239 0.58861 2.4918 2.1531 0 3.0437-0.67727 0.23664-2.8464-0.58328-2.7837-1.7238 0.057316-1.0572 0.56995-1.5965 1.2892-1.6585" fill="#fff" fill-rule="evenodd"/>
</svg>
