<svg width="24" height="24" enable-background="new" version="1.0" xmlns="http://www.w3.org/2000/svg">
 <g transform="matrix(.72727 0 0 .72727 -1.8177 -190.91)">
  <path d="m18.731 268c-0.17928 0.0987-0.3529 0.17325-0.5192 0.29004 0.67036-0.1584 0.63793 0.0695 1.3213-0.0215-0.23904 0.0363-0.53015 0.1284-0.4834 0.16471 0.76651 0.0883 0.88308-0.23644 1.5898 0l-0.04654-0.20767c0.98735 0.35336 1.1915 0.29294 2.2594 0.85935 0.37416 0.0207 0.4137-0.22863 0.97752 0 0.10134 0.17669-0.0196 0.20733 0.67675 0.62305 0.07796-0.0312-0.14263-0.23089-0.31152-0.38671 1.3979 0.7483 2.9212 2.3452 3.3838 4.0498-0.43392-0.79767-0.04266 0.40608-0.19336 0.34374 0.19897 0.52475 0.34998 1.0665 0.45116 1.6185-0.12991-0.45729-0.41027-1.5582-0.89874-2.2702-0.04158 0.4599-0.63631-0.3161-0.31152 0.69465 0.24684 0.35863 0.05049-0.36446 0.35449 0.27213 0.0053 0.304 0.11961 0.60409 0.18978 0.99902-0.10653-0.0181-0.23356-0.43546-0.31152-0.31869 0.10653 0.49625 0.27978 0.75247 0.34732 0.79133-0.03637 0.0831-0.12102-0.0763-0.12891 0.26139 0.04158 0.77688 0.21763 0.4471 0.30078 0.4834-0.08574 0.38195-0.4267 0.83219-0.2578 1.4896-0.04938-0.2001-0.14209-0.40114-0.21484-0.59083-0.06756 0.56122 0.12376 0.67274-0.13606 1.3535 0.18702-0.6132 0.16593-1.1664-0.0108-0.89875 0.07795 0.87043-0.68828 1.5376-0.60514 2.0911l-0.222-0.30795c-0.60541 0.87305-0.012 0.47969-0.42252 1.1422 0.1507-0.25993-0.08289-0.10485 0.11458-0.40103-0.12991 7e-3 -0.58229 0.55507-0.99543 0.87726-1.6239 1.2991-3.5595 1.4714-5.4355 0.76985-0.07275 0.0597 0.33238 0.37768 0.63377 0.53352 0.71453 0.26227 1.5226 0.27668 2.1592 0.25064-1.3771 0.57682-3.9979-0.58157-4.8554-2.1198 0.19488 0.0416 0.8582 1.0808 1.3571 1.2496-0.29361-0.23644-0.52097-0.53586-0.73405-0.84503 0.39044 0.4532 0.87088 0.82023 1.4108 1.0778-0.01689-0.065 0.01923-0.1029 0.02865-0.14684 0.0095-0.0438-0.0078-0.091-0.13249-0.17546-1.5901-1.2186-2.533-2.254-2.2057-4.6549 0.24165-0.18187 0.30691-1.1818 0.86294-1.5325 0.33778-0.74831 1.3559-1.4408 2.442-1.4574 1.1095-0.0597 2.046 0.5909 2.5137 1.2067-0.85224-0.79768-2.2566-1.0374-3.4518-0.4476-1.2212 0.55084-1.9408 1.8952-1.8369 3.2334 0.04419-0.0651 0.08305-0.0236 0.10384-0.18978-0.03637 2.6035 2.8069 4.5098 4.8518 3.5485l0.02506 0.0573c0.83146-0.22605 0.72712-0.41618 1.2676-0.78774-0.04158 0.0858-0.36415 0.31151-0.17187 0.31151 0.26244-0.0702 1.0878-0.83217 1.4931-1.196 0.18708-0.40012-0.0987-0.21663 0.16113-0.72329l0.31869-0.15397c0.17668-0.50926 0.37072-0.79787 0.34732-1.3929l-0.18619 0.3903c0.27283-0.82627 0.11859-1.7224 0.15756-2.4993l-0.07878-0.0215c-0.06497-1.9539-1.755-4.0321-3.262-4.7336-1.294-0.60021-3.2875-0.70014-4.2073-0.25064 0.12472-0.11175 0.62953-0.16128 0.47623-0.24708-1.4421 0.14295-1.1167 0.50452-2.2236 0.78776-0.30141 0.2937 0.88625-0.23613 0.24706 0.14325-0.59242 0.16368-0.87274-0.10379-1.7509 0.80566 0.07795 0.13004 0.56029-0.37158 0.15756 0.13244-0.82627-0.1014-2.6106 1.8859-2.9899 2.5459l0.19693 0.0358c-0.32479 0.81587-0.75208 1.3341-0.80924 1.8226-0.08314 1.2004-0.50324 3.3876 0.07878 4.0604l-0.05728 0.56218c0.07795 0.16109 0.14116 0.32196 0.23991 0.47265l-0.12891 0.0105c0.61319 1.9305 0.65903 0.0351 1.4645 2.041-0.11692-0.039-0.23412-0.0813-0.4082-0.3151-0.01818 0.17928 0.25332 0.70666 0.5729 1.1172l-0.13965 0.15756c0.18189 0.32479 0.34437 0.39304 0.46907 0.50488-0.66517-0.36378 0.61972 1.2 0.73405 1.4l0.10026-0.18261c-0.01305 0.25983 0.18997 0.59576 0.56933 1.0635l0.3151-0.0105c0.12991 0.25984 0.60935 0.72407 0.89517 0.74478l-0.19336 0.25065c0.72752 0.22864 0.35584 0.30507 1.2497 0.61946l-0.18262-0.31509c0.4573 0.39232 0.59356 0.737 1.2353 1.0384 0.89121 0.30926 1.0108 0.19133 1.9228 0.45116-0.77429-0.0234-1.6821-0.012-2.2953-0.23274-4.1781-1.1303-8.0006-6.0302-7.72-11.079-0.06756-1.0211 0.10086-2.301-0.06804-2.553 0.23904-0.77949 0.51458-1.7271 1.0706-2.8575-0.04158-0.0728 0.09276 0.22189 0.37597-0.26139 0.17149-0.37675 0.31071-0.7928 0.52636-1.1566l0.11458-0.0251c0.10912-0.64697 1.507-1.6389 1.9228-2.1376l0.02865 0.18978c0.90682-0.84965 2.5245-1.4208 3.4339-1.8261-0.23904 0.26502 0.53705-0.0272 1.0957-0.0609z" fill="#fff" stroke-width="6.9292" style="paint-order:stroke markers fill"/>
 </g>
</svg>
