<svg width="24" height="24" enable-background="new" version="1.0" xmlns="http://www.w3.org/2000/svg">
 <g transform="matrix(.72726 0 0 .72726 -1.8178 -190.91)">
  <path d="m18.998 268a11 11.001 0 0 0-10.998 10.994v9.2992c0 0.94577 0.76126 1.7071 1.707 1.7071h9.2962a10.999 11 0 0 0-0.0053-22zm3.3152 2.4112c0.44169 0 0.75606 0.0519 1.164 0.15588 0.59757 0.1559 1.0834 0.64698 1.0834 1.216 0 0.68595-0.49624 1.1874-1.2445 1.1874-0.35335 0-0.48326-0.0702-1.0029-0.0702-1.5355 0-2.78 1.2472-2.7826 2.7801v2.4059c0 0.21827 0.17408 0.39494 0.38972 0.39494h1.8317a1.2276 1.2277 0 1 1 0 2.4554h-2.2214v2.8087a5.2743 5.2745 0 0 1-5.2743 5.2745c-0.44169 0-0.75607-0.052-1.164-0.15849-0.59758-0.15589-1.086-0.64438-1.086-1.2134 0-0.68853 0.49884-1.1874 1.2471-1.1874 0.35335 0 0.48326 0.0676 1.0029 0.0676 1.5355 0 2.78-1.2446 2.7826-2.7801v-2.4163a0.39233 0.39234 0 0 0-0.39233-0.39494h-1.8291a1.2277 1.2277 0 1 1 0.013-2.4554h2.2085v-2.7957a5.2743 5.2745 0 0 1 5.2743-5.2745z" fill="#fff" stroke-width="4.6192"/>
 </g>
</svg>
