<svg width="24" height="24" version="1.1" viewBox="0 0 6.3499 6.3497" xmlns="http://www.w3.org/2000/svg">
 <path d="m3.1752 1.0582a2.1164 2.1164 0 0 0-2.1169 2.1169 2.1164 2.1164 0 0 0 2.1169 2.1164 2.1164 2.1164 0 0 0 2.1164-2.1164 2.1164 2.1164 0 0 0-2.1164-2.1169zm0.56597 0.49498c0.059997-9.964e-4 0.10949 6e-3 0.16849 0.015499 0.21599 0.034998 0.42398 0.17349 0.55597 0.40248 0.17849 0.30898 0.1365 0.69997-0.062997 0.91499-0.1085 0.099993-0.13149 0.10749-0.19849 0.15299 0.045997-0.071996 0.053998-0.085993 0.064997-0.1525-0.0025-0.036998-0.0015-0.052497-0.020999-0.1025a0.26799 0.26799 0 0 0-0.11999-0.12949 0.43298 0.43298 0 0 0-0.18649-0.036998c-0.037498 0-0.060497-1e-3 -0.111 0.0065-0.23199 0.063996-0.49197-0.025-0.61397-0.23699-0.14599-0.25299-0.039998-0.58847 0.22199-0.7395a0.62497 0.62497 0 0 1 0.23849-0.089499c0.022999-3e-3 0.043997-4e-3 0.063997-5e-3zm-1.5394 0.68947c0.037498 9.964e-4 0.073993 6e-3 0.10999 0.014499 0.1405 0.043498 0.1585 0.059497 0.23149 0.094997-0.084997-0.0035-0.10149-4e-3 -0.16449 0.019999-0.030999 0.020499-0.044997 0.027498-0.077993 0.069496a0.26799 0.26799 0 0 0-0.052497 0.16849 0.43298 0.43298 0 0 0 0.060997 0.17999c0.018999 0.032498 0.029498 0.052998 0.061497 0.092495 0.17149 0.16949 0.22399 0.43898 0.10149 0.65047-0.14599 0.25349-0.48997 0.32848-0.7515 0.17749a0.62497 0.62497 0 0 1-0.19649-0.16199 0.75397 0.75397 0 0 1-0.10749-0.20699c-0.077993-0.20399-0.061997-0.45348 0.069997-0.68246 0.1565-0.27049 0.45148-0.42648 0.71446-0.41698zm1.6349 1.3624c0.29248 0 0.52947 0.25999 0.52947 0.56247 0 0.088997-0.0085 0.17299-0.041998 0.25099-0.036499 0.084997-0.074997 0.13399-0.125 0.19599-0.13799 0.16999-0.36248 0.28049-0.62697 0.28049-0.35648 0-0.67496-0.23199-0.76044-0.51248-0.032498-0.14349-0.027498-0.16699-0.032998-0.24799 0.039498 0.075993 0.046998 0.089993 0.098997 0.13199 0.033498 0.016999 0.046498 0.024999 0.099492 0.033499a0.26999 0.26999 0 0 0 0.17199-0.039499 0.43148 0.43148 0 0 0 0.12549-0.1425c0.018499-0.032498 0.031498-0.051997 0.049997-0.099492 0.059997-0.23299 0.26799-0.41298 0.51248-0.41298z" fill="#fff" stroke-width=".49997"/>
</svg>
