<?xml version="1.0" encoding="UTF-8" standalone="no"?>
<svg
   width="24"
   height="24"
   version="1.1"
   viewBox="0 0 24 24"
   id="svg4"
   sodipodi:docname="logo-opensuse.svg"
   inkscape:version="1.1.1 (3bf5ae0d25, 2021-09-20, custom)"
   xmlns:inkscape="http://www.inkscape.org/namespaces/inkscape"
   xmlns:sodipodi="http://sodipodi.sourceforge.net/DTD/sodipodi-0.dtd"
   xmlns="http://www.w3.org/2000/svg"
   xmlns:svg="http://www.w3.org/2000/svg">
  <defs
     id="defs8" />
  <sodipodi:namedview
     id="namedview6"
     pagecolor="#dbdbdb"
     bordercolor="#666666"
     borderopacity="1.0"
     inkscape:pageshadow="2"
     inkscape:pageopacity="0"
     inkscape:pagecheckerboard="0"
     showgrid="false"
     inkscape:zoom="15.416667"
     inkscape:cx="15.924324"
     inkscape:cy="24.972972"
     inkscape:window-width="1536"
     inkscape:window-height="800"
     inkscape:window-x="0"
     inkscape:window-y="34"
     inkscape:window-maximized="1"
     inkscape:current-layer="svg4" />
  <path
     d="m 12,4 a 8,8 0 1 0 0,16 8,8 0 0 0 0,-16 z m 0,1.778196 A 6.2227449,6.2227449 0 1 1 12,18.22167 6.1753737,6.1753737 0 0 1 7.776583,16.554947 c 0.359046,-0.04913 0.925954,-0.05669 1.666722,0.02832 1.082782,0.122833 1.676164,0.164404 2.388578,0.111494 1.62513,-0.122832 2.698471,-0.391165 3.889132,-0.97319 0.623584,-0.302352 0.755888,-0.440282 0.888157,-0.805007 0.130388,-0.345808 0.177628,-0.667058 0.113381,-0.667058 -0.02456,0 -0.228654,0.07936 -0.472434,0.194638 -0.916512,0.434639 -1.719603,0.648177 -2.418814,0.612297 -0.723736,-0.03779 -1.893466,-0.46108 -3.303175,-1.139493 L 9.861071,13.610817 9.360316,12.361732 9.83275,12.665972 a 14.030909,14.030909 0 0 0 2.917689,1.417269 c 1.21317,0.383604 2.159919,0.330696 3.136872,-0.166293 0.345808,-0.175741 1.001545,-0.604704 1.001545,-0.667059 0,-0.113381 -0.336368,-1.239644 -0.529111,-1.74984 C 15.879751,10.226407 15.541502,9.795532 14.749733,9.417604 13.869135,8.998085 12.894063,8.71275 11.110223,8.306467 10.259863,8.125057 9.420823,7.941743 8.555343,7.834033 l -0.02832,1.05446 a 28.760961,28.760961 0 0 0 -1.6384,-0.444078 6.2358476,6.2358476 0 0 1 5.111708,-2.664472 z m 1.472065,4.499244 a 1.3227953,1.3227953 0 0 1 1.30388,1.027985 c 0.08504,0.330698 0.05858,0.566908 -0.109602,0.916514 a 1.2774399,1.2774399 0 0 1 -1.388913,0.695414 1.2982025,1.2982025 0 0 1 -0.97319,-0.75021 c -0.230543,-0.500756 -0.122829,-1.165934 0.277785,-1.528776 a 1.3737947,1.3737947 0 0 1 0.888158,-0.359046 z m 0.30424,0.695415 c -0.464876,0 -0.755888,0.34013 -0.498875,0.582025 0.207865,0.196527 0.555585,0.226759 0.83148,0.08504 0.181407,-0.09259 0.241878,-0.232435 0.196526,-0.415723 -0.03401,-0.137947 -0.302352,-0.251329 -0.529112,-0.251329 z"
     fill="#ffffff"
     overflow="visible"
     stroke-width="1.8897"
     id="path2" />
</svg>
