<svg width="24" height="24" version="1.1" viewBox="0 0 6.3499 6.3497" xmlns="http://www.w3.org/2000/svg">
 <g transform="matrix(.72727 0 0 .72727 -.48101 -.86598)" fill="#fff" stroke-width=".26458">
  <path d="m5.027 2.6458a2.9104 2.9104 0 0 0-2.9104 2.9104 2.9104 2.9104 0 0 0 2.9104 2.9104 2.9104 2.9104 0 0 0 2.9104-2.9104 2.9104 2.9104 0 0 0-2.9104-2.9104zm0 0.26458a2.6458 2.6458 0 0 1 2.6458 2.6458 2.6458 2.6458 0 0 1-2.6458 2.6458 2.6458 2.6458 0 0 1-2.6458-2.6458 2.6458 2.6458 0 0 1 2.6458-2.6458z" style="paint-order:stroke fill markers"/>
  <path d="m7.1436 6.6145h-2.6458l1.0583-2.3812z" opacity=".5" style="paint-order:stroke fill markers"/>
  <path d="m6.0853 6.6145h-3.175l1.3229-2.9104z" style="paint-order:stroke fill markers"/>
 </g>
</svg>
