<?xml version="1.0" encoding="UTF-8" standalone="no"?>
<svg
   width="24"
   height="24"
   version="1.1"
   id="svg4"
   sodipodi:docname="logo-popos.svg"
   inkscape:version="1.1.1 (3bf5ae0d25, 2021-09-20, custom)"
   xmlns:inkscape="http://www.inkscape.org/namespaces/inkscape"
   xmlns:sodipodi="http://sodipodi.sourceforge.net/DTD/sodipodi-0.dtd"
   xmlns="http://www.w3.org/2000/svg"
   xmlns:svg="http://www.w3.org/2000/svg">
  <defs
     id="defs8" />
  <sodipodi:namedview
     id="namedview6"
     pagecolor="#ffffff"
     bordercolor="#666666"
     borderopacity="1.0"
     inkscape:pageshadow="2"
     inkscape:pageopacity="0.0"
     inkscape:pagecheckerboard="0"
     showgrid="false"
     inkscape:zoom="13.952381"
     inkscape:cx="19.02901"
     inkscape:cy="21"
     inkscape:window-width="1536"
     inkscape:window-height="800"
     inkscape:window-x="0"
     inkscape:window-y="34"
     inkscape:window-maximized="1"
     inkscape:current-layer="svg4" />
  <path
     d="m 12,4 a 8,8 0 0 0 -8,8 8,8 0 0 0 8,8 8,8 0 0 0 8,-8 8,8 0 0 0 -8,-8 z m -1.381964,2.371564 c 0.674931,-0.01599 0.958328,0.143512 1.350691,0.399309 0.596451,0.39968 1.020073,1.023636 1.177091,1.743054 0.15696,0.71944 0.110233,1.279128 -0.07812,1.678837 v 0.03125 c -0.37672,0.815345 -1.004728,1.471927 -1.883637,1.791636 l 0.753455,1.998254 c 0.141265,0.36771 0.266116,0.750691 0.156247,1.1024 -0.109876,0.351731 -0.612945,0.46355 -0.973964,0.07985 C 10.429159,14.444736 8.106854,9.712809 7.934054,9.361027 7.761399,9.009296 7.572941,8.721449 7.572941,8.369754 7.588631,7.842154 8.388868,7.299499 8.781305,7.027718 9.173705,6.755929 9.943196,6.38747 10.618105,6.37147 Z m -0.61632,1.456654 c -0.488189,0.01363 -0.221091,1.052291 -0.121527,1.342037 0.109876,0.31976 0.408218,0.99069 0.737818,1.3264 0.07848,0.07993 0.157557,0.14373 0.251731,0.159723 0.09418,0.01599 0.282633,-0.08044 0.361113,-0.208334 0.07848,-0.127899 0.09375,-0.222793 0.09375,-0.350691 A 2.0091636,2.0464 0 0 0 11.293351,9.330007 C 11.152093,8.834378 10.854151,8.354662 10.461787,8.03488 10.383307,7.97093 10.288674,7.889767 10.178798,7.857796 10.111108,7.835306 10.052223,7.826876 10.001714,7.828286 Z m 5.310764,1.208364 c 0.07435,-0.0012 0.146175,0.0038 0.206596,0.01563 a 1.3595636,1.4197091 0 0 1 0.739564,0.378473 c 0.181265,0.17352 0.19584,0.364051 0.135411,0.600691 -0.06042,0.23661 -0.271346,0.741381 -0.437506,1.104145 l -0.423607,0.835055 c -0.815709,1.514327 -0.981745,1.6728 -1.208363,1.578109 -0.271891,-0.110415 -0.180408,-1.624873 0.07639,-3.470473 0.07553,-0.504771 0.195651,-0.757527 0.3316,-0.883709 0.101964,-0.09465 0.356815,-0.154291 0.579855,-0.157978 z m -0.9288,5.333309 c 0.354524,0.0061 0.505375,0.398334 0.420145,0.701389 -0.03248,0.129884 -0.113156,0.245549 -0.243054,0.317709 -0.129906,0.07216 -0.43944,0.0726 -0.618051,-0.05729 -0.178611,-0.129884 -0.210167,-0.347666 -0.161455,-0.520837 0.04871,-0.173185 0.210168,-0.36069 0.437506,-0.4184 0.05887,-0.01623 0.114284,-0.02344 0.164931,-0.02257 z m -5.354109,1.600727 h 6.262109 c 0.333585,0 0.602429,0.23752 0.602429,0.532989 0,0.295469 -0.268844,0.532989 -0.602429,0.532989 H 9.029571 c -0.333586,0 -0.602429,-0.23752 -0.602429,-0.532989 0,-0.295469 0.268843,-0.532989 0.602429,-0.532989 z"
     fill="#ffffff"
     stroke-width="0.888873"
     id="path2" />
</svg>
