<svg width="24" height="24" enable-background="new" version="1.0" xmlns="http://www.w3.org/2000/svg">
 <g transform="matrix(.72727 0 0 .72727 -1.8182 -190.91)">
  <path d="m19 268a11 11 0 1 0 0 22 11 11 0 0 0 0-22zm3.9209 3.066a1.4655 1.4655 0 0 1 1.0913 2.1904 1.4681 1.4681 0 1 1-1.0913-2.1904zm-3.9235 1.5538c0.59242 0 1.164 0.0805 1.7071 0.23125a2.0605 2.0605 0 0 0 2.762 1.6006c1.0861 1.0679 1.7928 2.5204 1.8968 4.1392l-2.0916 0.0286a4.2898 4.2898 0 0 0-6.0801-3.5077l-1.0211-1.8318a6.3581 6.3581 0 0 1 2.8296-0.65997zm-3.5389 1.0705 1.0757 1.8006a4.2846 4.2846 0 0 0 0 7.0181l-1.0757 1.798a6.3867 6.3867 0 0 1-2.6347-3.7078 2.0553 2.0553 0 0 0 0-3.1986 6.3919 6.3919 0 0 1 2.6347-3.7104zm-3.9391 3.8403a1.4694 1.4694 0 1 1 0 2.9387 1.4681 1.4681 0 0 1 0-2.9361zm11.752 1.8474 2.0916 0.0337a6.3607 6.3607 0 0 1-1.8968 4.1365 2.0527 2.0527 0 0 0-2.762 1.598 6.3763 6.3763 0 0 1-4.5341-0.42613l1.0211-1.8292a4.2872 4.2872 0 0 0 6.0801-3.5129zm-0.71454 4.6406a1.4712 1.4712 0 1 1 0.35857 2.9205 1.4712 1.4712 0 0 1-0.35857-2.9205z" fill="#fff" stroke-width="4.6195"/>
 </g>
</svg>
