<?xml version="1.0" encoding="UTF-8" standalone="no"?>
<svg
   width="24"
   height="24"
   version="1.1"
   id="svg4"
   sodipodi:docname="logo-zorin.svg"
   inkscape:version="1.1.1 (3bf5ae0d25, 2021-09-20, custom)"
   xmlns:inkscape="http://www.inkscape.org/namespaces/inkscape"
   xmlns:sodipodi="http://sodipodi.sourceforge.net/DTD/sodipodi-0.dtd"
   xmlns="http://www.w3.org/2000/svg"
   xmlns:svg="http://www.w3.org/2000/svg">
  <defs
     id="defs8" />
  <sodipodi:namedview
     id="namedview6"
     pagecolor="#d6d6d6"
     bordercolor="#666666"
     borderopacity="1.0"
     inkscape:pageshadow="2"
     inkscape:pageopacity="0"
     inkscape:pagecheckerboard="0"
     showgrid="false"
     inkscape:zoom="10.90123"
     inkscape:cx="13.530583"
     inkscape:cy="20.364674"
     inkscape:window-width="1536"
     inkscape:window-height="800"
     inkscape:window-x="0"
     inkscape:window-y="34"
     inkscape:window-maximized="1"
     inkscape:current-layer="svg4" />
  <path
     d="M 8.3293512,4 C 7.8405542,4 7.2401122,4.351172 6.9960252,4.779507 L 5.8137194,6.857631 H 18.185214 l 1.418392,2.48612 -2.600698,-4.564244 C 16.758857,4.351163 16.158379,4 15.669581,4 Z M 19.603962,9.343707 8.9720142,14.857545 H 19.489297 l 1.183993,-2.078122 c 0.244079,-0.428344 0.244079,-1.130661 0,-1.559014 z M 4.5107038,9.142321 3.3267096,11.220445 c -0.2440787,0.428343 -0.2440787,1.13066 0,1.559014 L 4.3961265,14.65616 15.028074,9.142321 Z M 6.9968252,19.220493 C 7.2409122,19.648838 7.8413542,20 8.3301512,20 h 7.3402308 c 0.488798,0 1.089327,-0.351162 1.333327,-0.779507 L 18.186013,17.14237 H 5.8145194"
     fill="#ffffff"
     stroke-width="0.285714"
     id="path2" />
</svg>
