<svg width="24" height="24" version="1.1" xmlns="http://www.w3.org/2000/svg">
 <path d="m16 17.993-4.4956 4-4.5044-4z" fill="#666666"/>
 <path d="m2 2c-0.554 0-1 0.446-1 1v12c0 0.554 0.446 1 1 1h19c0.554 0 1-0.446 1-1v-12c0-0.554-0.446-1-1-1zm0 1h19v12h-19z" fill="#666666"/>
 <rect x="3" y="5" width="2" height="2" fill="#666666"/>
 <rect x="6" y="5" width="2" height="2" fill="#666666"/>
 <rect x="9" y="5" width="2" height="2" fill="#666666"/>
 <rect x="12" y="5" width="2" height="2" fill="#666666"/>
 <rect x="15" y="5" width="2" height="2" fill="#666666"/>
 <rect x="18" y="5" width="2" height="2" fill="#666666"/>
 <rect x="4" y="8" width="2" height="2" fill="#666666"/>
 <rect x="7" y="8" width="2" height="2" fill="#666666"/>
 <rect x="10" y="8" width="2" height="2" fill="#666666"/>
 <rect x="13" y="8" width="2" height="2" fill="#666666"/>
 <rect x="16" y="8" width="2" height="2" fill="#666666"/>
 <rect x="5" y="11" width="13" height="2" rx="0" ry="0" fill="#666666"/>
</svg>
