<?xml version="1.0" encoding="UTF-8" standalone="no"?>
<!-- Created with Inkscape (http://www.inkscape.org/) -->

<svg
   xmlns:dc="http://purl.org/dc/elements/1.1/"
   xmlns:cc="http://creativecommons.org/ns#"
   xmlns:rdf="http://www.w3.org/1999/02/22-rdf-syntax-ns#"
   xmlns:svg="http://www.w3.org/2000/svg"
   xmlns="http://www.w3.org/2000/svg"
   xmlns:sodipodi="http://sodipodi.sourceforge.net/DTD/sodipodi-0.dtd"
   xmlns:inkscape="http://www.inkscape.org/namespaces/inkscape"
   width="360"
   height="200"
   viewBox="0 0 95.249997 52.916668"
   version="1.1"
   id="svg424"
   inkscape:version="0.92.2 2405546, 2018-03-11"
   sodipodi:docname="assets-light.svg">
  <defs
     id="defs418" />
  <sodipodi:namedview
     id="base"
     pagecolor="#ffffff"
     bordercolor="#666666"
     borderopacity="1.0"
     inkscape:pageopacity="0.0"
     inkscape:pageshadow="2"
     inkscape:zoom="2"
     inkscape:cx="226.23358"
     inkscape:cy="97.550729"
     inkscape:document-units="mm"
     inkscape:current-layer="layer1"
     showgrid="true"
     showguides="false"
     inkscape:snap-global="true"
     units="px"
     inkscape:window-width="1920"
     inkscape:window-height="1022"
     inkscape:window-x="0"
     inkscape:window-y="0"
     inkscape:window-maximized="1">
    <inkscape:grid
       type="xygrid"
       id="grid658" />
  </sodipodi:namedview>
  <metadata
     id="metadata421">
    <rdf:RDF>
      <cc:Work
         rdf:about="">
        <dc:format>image/svg+xml</dc:format>
        <dc:type
           rdf:resource="http://purl.org/dc/dcmitype/StillImage" />
        <dc:title />
      </cc:Work>
    </rdf:RDF>
  </metadata>
  <g
     inkscape:label="Layer 1"
     inkscape:groupmode="layer"
     id="layer1"
     transform="translate(0,-244.08332)">
    <g
       style="display:inline"
       id="minimize_focused_prelight"
       transform="matrix(0.26458333,0,0,0.26458333,33.866669,456.71249)"
       inkscape:label="#g588">
      <rect
         ry="11.5"
         y="-693.63782"
         x="-70"
         height="23"
         width="23"
         id="rect573"
         style="opacity:1;fill:#1f1f1f;fill-opacity:0.09803922;stroke:none;stroke-width:0.92000002;stroke-linecap:round;stroke-linejoin:miter;stroke-miterlimit:4;stroke-dasharray:none;stroke-opacity:1;paint-order:stroke fill markers" />
      <rect
         ry="1.1965401e-05"
         y="-682.63782"
         x="-63"
         height="0.99999738"
         width="9"
         id="rect509"
         style="opacity:1;fill:#5c616c;fill-opacity:1;stroke:none;stroke-width:0.47140455;stroke-linecap:round;stroke-linejoin:miter;stroke-miterlimit:4;stroke-dasharray:none;stroke-opacity:0.49411765;paint-order:stroke fill markers" />
    </g>
    <g
       style="display:inline"
       id="maximize_focused_prelight"
       transform="matrix(0.26458333,0,0,0.26458333,34.660419,456.97707)"
       inkscape:label="#g592">
      <rect
         style="opacity:1;fill:#1f1f1f;fill-opacity:0.09803922;stroke:none;stroke-width:0.92000002;stroke-linecap:round;stroke-linejoin:miter;stroke-miterlimit:4;stroke-dasharray:none;stroke-opacity:1;paint-order:stroke fill markers"
         id="rect575"
         width="23"
         height="23"
         x="-33"
         y="-694.63782"
         ry="11.5" />
      <path
         sodipodi:nodetypes="cccccccccc"
         inkscape:connector-curvature="0"
         id="path515"
         d="m -26,-687.63782 v 9 h 9 v -9 z m 1,1 h 7 v 7 h -7 z"
         style="opacity:1;fill:#5c616c;fill-opacity:1;stroke:none;stroke-width:0.45056358;stroke-linecap:round;stroke-linejoin:miter;stroke-miterlimit:4;stroke-dasharray:none;stroke-opacity:0.49411765;paint-order:stroke fill markers" />
    </g>
    <g
       style="display:inline"
       id="unmaximize_focused_prelight"
       transform="matrix(0.26458333,0,0,0.26458333,34.395834,456.97707)"
       inkscape:label="#g600">
      <rect
         ry="11.5"
         y="-694.63782"
         x="48"
         height="23"
         width="23"
         id="rect584"
         style="opacity:1;fill:#1f1f1f;fill-opacity:0.09803922;stroke:none;stroke-width:0.92000002;stroke-linecap:round;stroke-linejoin:miter;stroke-miterlimit:4;stroke-dasharray:none;stroke-opacity:1;paint-order:stroke fill markers" />
      <path
         sodipodi:nodetypes="ccccccccccccccccccccc"
         inkscape:connector-curvature="0"
         id="path527"
         d="m 57,-687.63782 v 2 h -2 l 10e-7,6.99999 6.999999,10e-6 v -2 h 2 l 10e-7,-7.00001 z m 1,1 h 5 v 5 h -1 v -4 h -4 z m -2,2 h 5 v 5 h -5 z"
         style="opacity:1;fill:#5c616c;fill-opacity:1;stroke:none;stroke-width:0.35043836;stroke-linecap:round;stroke-linejoin:miter;stroke-miterlimit:4;stroke-dasharray:none;stroke-opacity:0.49411765;paint-order:stroke fill markers" />
    </g>
    <g
       style="display:inline"
       id="close_focused_prelight"
       transform="matrix(0.26458333,0,0,0.26458333,34.131252,456.97707)"
       inkscape:label="#g596">
      <rect
         ry="11.5"
         y="-694.63782"
         x="9"
         height="23"
         width="23"
         id="rect577"
         style="opacity:1;fill:#ff5555;fill-opacity:1;stroke:none;stroke-width:0.92000002;stroke-linecap:round;stroke-linejoin:miter;stroke-miterlimit:4;stroke-dasharray:none;stroke-opacity:1;paint-order:stroke fill markers" />
      <path
         inkscape:connector-curvature="0"
         id="rect579"
         d="m 16.353515,-687.99134 -0.70703,0.70704 4.146483,4.14648 -4.146483,4.14648 0.70703,0.70704 4.146485,-4.14649 4.146484,4.14649 0.707031,-0.70704 -4.146484,-4.14648 4.146484,-4.14648 -0.707031,-0.70704 -4.146484,4.14649 z"
         style="opacity:1;fill:#ffffff;fill-opacity:1;stroke:none;stroke-width:0.56059766;stroke-linecap:round;stroke-linejoin:miter;stroke-miterlimit:4;stroke-dasharray:none;stroke-opacity:0.49411765;paint-order:stroke fill markers" />
    </g>
    <g
       id="minimize_unfocused"
       transform="matrix(0.26458333,0,0,0.26458333,33.866669,436.86874)"
       style="display:inline;opacity:0.5"
       inkscape:label="#g630">
      <rect
         ry="11.5"
         y="-693.63782"
         x="-70"
         height="23"
         width="23"
         id="rect626"
         style="opacity:0;fill:#1f1f1f;fill-opacity:0.09803922;stroke:none;stroke-width:0.92000002;stroke-linecap:round;stroke-linejoin:miter;stroke-miterlimit:4;stroke-dasharray:none;stroke-opacity:1;paint-order:stroke fill markers" />
      <rect
         ry="1.1965401e-05"
         y="-682.63782"
         x="-63"
         height="0.99999738"
         width="9"
         id="rect628"
         style="opacity:1;fill:#5c616c;fill-opacity:1;stroke:none;stroke-width:0.47140455;stroke-linecap:round;stroke-linejoin:miter;stroke-miterlimit:4;stroke-dasharray:none;stroke-opacity:0.49411765;paint-order:stroke fill markers" />
    </g>
    <g
       id="maximize_unfocused"
       transform="matrix(0.26458333,0,0,0.26458333,34.660419,437.13332)"
       style="display:inline;opacity:0.5"
       inkscape:label="#g636">
      <rect
         style="opacity:0;fill:#1f1f1f;fill-opacity:0.09803922;stroke:none;stroke-width:0.92000002;stroke-linecap:round;stroke-linejoin:miter;stroke-miterlimit:4;stroke-dasharray:none;stroke-opacity:1;paint-order:stroke fill markers"
         id="rect632"
         width="23"
         height="23"
         x="-33"
         y="-694.63782"
         ry="11.5" />
      <path
         sodipodi:nodetypes="cccccccccc"
         inkscape:connector-curvature="0"
         id="path634"
         d="m -26,-687.63782 v 9 h 9 v -9 z m 1,1 h 7 v 7 h -7 z"
         style="opacity:1;fill:#5c616c;fill-opacity:1;stroke:none;stroke-width:0.45056358;stroke-linecap:round;stroke-linejoin:miter;stroke-miterlimit:4;stroke-dasharray:none;stroke-opacity:0.49411765;paint-order:stroke fill markers" />
    </g>
    <g
       id="unmaximize_unfocused"
       transform="matrix(0.26458333,0,0,0.26458333,34.395834,437.13332)"
       style="display:inline;opacity:0.5"
       inkscape:label="#g642">
      <rect
         ry="11.5"
         y="-694.63782"
         x="48"
         height="23"
         width="23"
         id="rect638"
         style="opacity:0;fill:#1f1f1f;fill-opacity:0.09803922;stroke:none;stroke-width:0.92000002;stroke-linecap:round;stroke-linejoin:miter;stroke-miterlimit:4;stroke-dasharray:none;stroke-opacity:1;paint-order:stroke fill markers" />
      <path
         sodipodi:nodetypes="ccccccccccccccccccccc"
         inkscape:connector-curvature="0"
         id="path640"
         d="m 57,-687.63782 v 2 h -2 l 10e-7,6.99999 6.999999,10e-6 v -2 h 2 l 10e-7,-7.00001 z m 1,1 h 5 v 5 h -1 v -4 h -4 z m -2,2 h 5 v 5 h -5 z"
         style="opacity:1;fill:#5c616c;fill-opacity:1;stroke:none;stroke-width:0.35043836;stroke-linecap:round;stroke-linejoin:miter;stroke-miterlimit:4;stroke-dasharray:none;stroke-opacity:0.49411765;paint-order:stroke fill markers" />
    </g>
    <g
       id="close_unfocused"
       transform="matrix(0.26458333,0,0,0.26458333,34.131252,437.13332)"
       style="display:inline;opacity:0.5"
       inkscape:label="#g648">
      <rect
         ry="11.5"
         y="-694.63782"
         x="9"
         height="23"
         width="23"
         id="rect644"
         style="opacity:0;fill:#ff5555;fill-opacity:1;stroke:none;stroke-width:0.92000002;stroke-linecap:round;stroke-linejoin:miter;stroke-miterlimit:4;stroke-dasharray:none;stroke-opacity:1;paint-order:stroke fill markers" />
      <path
         inkscape:connector-curvature="0"
         id="path646"
         d="m 16.353515,-687.99134 -0.70703,0.70704 4.146483,4.14648 -4.146483,4.14648 0.70703,0.70704 4.146485,-4.14649 4.146484,4.14649 0.707031,-0.70704 -4.146484,-4.14648 4.146484,-4.14648 -0.707031,-0.70704 -4.146484,4.14649 z"
         style="opacity:1;fill:#5c616c;fill-opacity:1;stroke:none;stroke-width:0.56059766;stroke-linecap:round;stroke-linejoin:miter;stroke-miterlimit:4;stroke-dasharray:none;stroke-opacity:0.49411765;paint-order:stroke fill markers" />
    </g>
    <g
       style="display:inline"
       transform="matrix(0.26458333,0,0,0.26458333,33.866669,467.03124)"
       id="minimize_focused_pressed"
       inkscape:label="#g665">
      <rect
         style="opacity:1;fill:#191919;fill-opacity:0.2;stroke:none;stroke-width:0.92000002;stroke-linecap:round;stroke-linejoin:miter;stroke-miterlimit:4;stroke-dasharray:none;stroke-opacity:1;paint-order:stroke fill markers"
         id="rect650"
         width="23"
         height="23"
         x="-70"
         y="-693.63782"
         ry="11.5" />
      <rect
         style="opacity:1;fill:#5c616c;fill-opacity:1;stroke:none;stroke-width:0.47140455;stroke-linecap:round;stroke-linejoin:miter;stroke-miterlimit:4;stroke-dasharray:none;stroke-opacity:0.49411765;paint-order:stroke fill markers"
         id="rect652"
         width="9"
         height="0.99999738"
         x="-63"
         y="-682.63782"
         ry="1.1965401e-05" />
    </g>
    <g
       style="display:inline"
       transform="matrix(0.26458333,0,0,0.26458333,34.660419,467.29582)"
       id="maximize_focused_pressed"
       inkscape:label="#g660">
      <rect
         ry="11.5"
         y="-694.63782"
         x="-33"
         height="23"
         width="23"
         id="rect656"
         style="opacity:1;fill:#191919;fill-opacity:0.2;stroke:none;stroke-width:0.92000002;stroke-linecap:round;stroke-linejoin:miter;stroke-miterlimit:4;stroke-dasharray:none;stroke-opacity:1;paint-order:stroke fill markers" />
      <path
         style="opacity:1;fill:#5c616c;fill-opacity:1;stroke:none;stroke-width:0.45056358;stroke-linecap:round;stroke-linejoin:miter;stroke-miterlimit:4;stroke-dasharray:none;stroke-opacity:0.49411765;paint-order:stroke fill markers"
         d="m -26,-687.63782 v 9 h 9 v -9 z m 1,1 h 7 v 7 h -7 z"
         id="path658"
         inkscape:connector-curvature="0"
         sodipodi:nodetypes="cccccccccc" />
    </g>
    <g
       style="display:inline"
       transform="matrix(0.26458333,0,0,0.26458333,34.395834,467.29582)"
       id="unmaximize_focused_pressed"
       inkscape:label="#g666">
      <rect
         style="opacity:1;fill:#191919;fill-opacity:0.2;stroke:none;stroke-width:0.92000002;stroke-linecap:round;stroke-linejoin:miter;stroke-miterlimit:4;stroke-dasharray:none;stroke-opacity:1;paint-order:stroke fill markers"
         id="rect662"
         width="23"
         height="23"
         x="48"
         y="-694.63782"
         ry="11.5" />
      <path
         style="opacity:1;fill:#5c616c;fill-opacity:1;stroke:none;stroke-width:0.35043836;stroke-linecap:round;stroke-linejoin:miter;stroke-miterlimit:4;stroke-dasharray:none;stroke-opacity:0.49411765;paint-order:stroke fill markers"
         d="m 57,-687.63782 v 2 h -2 l 10e-7,6.99999 6.999999,10e-6 v -2 h 2 l 10e-7,-7.00001 z m 1,1 h 5 v 5 h -1 v -4 h -4 z m -2,2 h 5 v 5 h -5 z"
         id="path664"
         inkscape:connector-curvature="0"
         sodipodi:nodetypes="ccccccccccccccccccccc" />
    </g>
    <g
       style="display:inline"
       transform="matrix(0.26458333,0,0,0.26458333,34.131252,467.29582)"
       id="close_focused_pressed"
       inkscape:label="#g672">
      <rect
         style="opacity:1;fill:#c83737;fill-opacity:1;stroke:none;stroke-width:0.92000002;stroke-linecap:round;stroke-linejoin:miter;stroke-miterlimit:4;stroke-dasharray:none;stroke-opacity:1;paint-order:stroke fill markers"
         id="rect668"
         width="23"
         height="23"
         x="9"
         y="-694.63782"
         ry="11.5" />
      <path
         style="opacity:1;fill:#ffffff;fill-opacity:1;stroke:none;stroke-width:0.56059766;stroke-linecap:round;stroke-linejoin:miter;stroke-miterlimit:4;stroke-dasharray:none;stroke-opacity:0.49411765;paint-order:stroke fill markers"
         d="m 16.353515,-687.99134 -0.70703,0.70704 4.146483,4.14648 -4.146483,4.14648 0.70703,0.70704 4.146485,-4.14649 4.146484,4.14649 0.707031,-0.70704 -4.146484,-4.14648 4.146484,-4.14648 -0.707031,-0.70704 -4.146484,4.14649 z"
         id="path670"
         inkscape:connector-curvature="0" />
    </g>
    <g
       style="display:inline"
       transform="matrix(0.26458333,0,0,0.26458333,33.866669,446.39374)"
       id="minimize"
       inkscape:label="#g678">
      <rect
         style="opacity:0;fill:#1f1f1f;fill-opacity:0.09803922;stroke:none;stroke-width:0.92000002;stroke-linecap:round;stroke-linejoin:miter;stroke-miterlimit:4;stroke-dasharray:none;stroke-opacity:1;paint-order:stroke fill markers"
         id="rect674"
         width="23"
         height="23"
         x="-70"
         y="-693.63782"
         ry="11.5" />
      <rect
         style="opacity:1;fill:#5c616c;fill-opacity:1;stroke:none;stroke-width:0.47140455;stroke-linecap:round;stroke-linejoin:miter;stroke-miterlimit:4;stroke-dasharray:none;stroke-opacity:0.49411765;paint-order:stroke fill markers"
         id="rect676"
         width="9"
         height="0.99999738"
         x="-63"
         y="-682.63782"
         ry="1.1965401e-05" />
    </g>
    <g
       style="display:inline"
       transform="matrix(0.26458333,0,0,0.26458333,34.660419,446.65832)"
       id="maximize"
       inkscape:label="#g684">
      <rect
         ry="11.5"
         y="-694.63782"
         x="-33"
         height="23"
         width="23"
         id="rect680"
         style="opacity:0;fill:#1f1f1f;fill-opacity:0.09803922;stroke:none;stroke-width:0.92000002;stroke-linecap:round;stroke-linejoin:miter;stroke-miterlimit:4;stroke-dasharray:none;stroke-opacity:1;paint-order:stroke fill markers" />
      <path
         style="opacity:1;fill:#5c616c;fill-opacity:1;stroke:none;stroke-width:0.45056358;stroke-linecap:round;stroke-linejoin:miter;stroke-miterlimit:4;stroke-dasharray:none;stroke-opacity:0.49411765;paint-order:stroke fill markers"
         d="m -26,-687.63782 v 9 h 9 v -9 z m 1,1 h 7 v 7 h -7 z"
         id="path682"
         inkscape:connector-curvature="0"
         sodipodi:nodetypes="cccccccccc" />
    </g>
    <g
       style="display:inline"
       transform="matrix(0.26458333,0,0,0.26458333,34.395834,446.65832)"
       id="unmaximize"
       inkscape:label="#g690">
      <rect
         style="opacity:0;fill:#1f1f1f;fill-opacity:0.09803922;stroke:none;stroke-width:0.92000002;stroke-linecap:round;stroke-linejoin:miter;stroke-miterlimit:4;stroke-dasharray:none;stroke-opacity:1;paint-order:stroke fill markers"
         id="rect686"
         width="23"
         height="23"
         x="48"
         y="-694.63782"
         ry="11.5" />
      <path
         style="opacity:1;fill:#5c616c;fill-opacity:1;stroke:none;stroke-width:0.35043836;stroke-linecap:round;stroke-linejoin:miter;stroke-miterlimit:4;stroke-dasharray:none;stroke-opacity:0.49411765;paint-order:stroke fill markers"
         d="m 57,-687.63782 v 2 h -2 l 10e-7,6.99999 6.999999,10e-6 v -2 h 2 l 10e-7,-7.00001 z m 1,1 h 5 v 5 h -1 v -4 h -4 z m -2,2 h 5 v 5 h -5 z"
         id="path688"
         inkscape:connector-curvature="0"
         sodipodi:nodetypes="ccccccccccccccccccccc" />
    </g>
    <g
       style="display:inline"
       transform="matrix(0.26458333,0,0,0.26458333,34.131252,446.65832)"
       id="close"
       inkscape:label="#g696">
      <rect
         style="opacity:0;fill:#ff5555;fill-opacity:1;stroke:none;stroke-width:0.92000002;stroke-linecap:round;stroke-linejoin:miter;stroke-miterlimit:4;stroke-dasharray:none;stroke-opacity:1;paint-order:stroke fill markers"
         id="rect692"
         width="23"
         height="23"
         x="9"
         y="-694.63782"
         ry="11.5" />
      <path
         style="opacity:1;fill:#5c616c;fill-opacity:1;stroke:none;stroke-width:0.56059766;stroke-linecap:round;stroke-linejoin:miter;stroke-miterlimit:4;stroke-dasharray:none;stroke-opacity:0.49411765;paint-order:stroke fill markers"
         d="m 16.353515,-687.99134 -0.70703,0.70704 4.146483,4.14648 -4.146483,4.14648 0.70703,0.70704 4.146485,-4.14649 4.146484,4.14649 0.707031,-0.70704 -4.146484,-4.14648 4.146484,-4.14648 -0.707031,-0.70704 -4.146484,4.14649 z"
         id="path694"
         inkscape:connector-curvature="0" />
    </g>
    <g
       id="shade_unfocused"
       transform="translate(-61.118747,201.3479)"
       inkscape:label="#g699">
      <rect
         style="opacity:0;fill:#1f1f1f;fill-opacity:0.09803922;stroke:none;stroke-width:0.24341667;stroke-linecap:round;stroke-linejoin:miter;stroke-miterlimit:4;stroke-dasharray:none;stroke-opacity:1;paint-order:stroke fill markers"
         id="rect532"
         width="6.0854168"
         height="6.0854168"
         x="119.85625"
         y="51.995831"
         ry="3.0427084" />
      <path
         inkscape:connector-curvature="0"
         id="rect534"
         d="m 122.89999,54.057724 c -0.0473,0 -0.0949,0.01809 -0.13332,0.05478 l -1.05834,1.058334 h 2.38125 l -1.05833,-1.058334 c -0.0369,-0.03669 -0.0839,-0.05478 -0.13126,-0.05478 z m -1.19166,1.377693 V 55.7 h 2.38125 v -0.264583 z"
         style="opacity:0.5;fill:#5c616c;fill-opacity:1;stroke:none;stroke-width:0.12472579;stroke-linecap:round;stroke-linejoin:miter;stroke-miterlimit:4;stroke-dasharray:none;stroke-opacity:0.49411765;paint-order:stroke fill markers" />
    </g>
    <g
       id="shade"
       transform="translate(-61.118747,210.8729)"
       inkscape:label="#g705">
      <rect
         ry="3.0427084"
         y="51.995831"
         x="119.85625"
         height="6.0854168"
         width="6.0854168"
         id="rect701"
         style="opacity:0;fill:#1f1f1f;fill-opacity:0.09803922;stroke:none;stroke-width:0.24341667;stroke-linecap:round;stroke-linejoin:miter;stroke-miterlimit:4;stroke-dasharray:none;stroke-opacity:1;paint-order:stroke fill markers" />
      <path
         style="opacity:1;fill:#5c616c;fill-opacity:1;stroke:none;stroke-width:0.12472579;stroke-linecap:round;stroke-linejoin:miter;stroke-miterlimit:4;stroke-dasharray:none;stroke-opacity:0.49411765;paint-order:stroke fill markers"
         d="m 122.89999,54.057724 c -0.0473,0 -0.0949,0.01809 -0.13332,0.05478 l -1.05834,1.058334 h 2.38125 l -1.05833,-1.058334 c -0.0369,-0.03669 -0.0839,-0.05478 -0.13126,-0.05478 z m -1.19166,1.377693 V 55.7 h 2.38125 v -0.264583 z"
         id="path703"
         inkscape:connector-curvature="0" />
    </g>
    <g
       id="shade_focused_prelight"
       transform="translate(-61.118747,201.3479)"
       inkscape:label="#g719">
      <rect
         style="opacity:1;fill:#1f1f1f;fill-opacity:0.09803922;stroke:none;stroke-width:0.24341667;stroke-linecap:round;stroke-linejoin:miter;stroke-miterlimit:4;stroke-dasharray:none;stroke-opacity:1;paint-order:stroke fill markers"
         id="rect526"
         width="6.0854168"
         height="6.0854168"
         x="119.85625"
         y="71.839584"
         ry="3.0427084" />
      <path
         inkscape:connector-curvature="0"
         id="path709"
         d="m 122.89999,73.901474 c -0.0473,0 -0.0949,0.01809 -0.13332,0.05478 l -1.05834,1.058334 h 2.38125 l -1.05833,-1.058334 c -0.0369,-0.03669 -0.0839,-0.05478 -0.13126,-0.05478 z m -1.19166,1.377693 v 0.264583 h 2.38125 v -0.264583 z"
         style="opacity:1;fill:#5c616c;fill-opacity:1;stroke:none;stroke-width:0.12472579;stroke-linecap:round;stroke-linejoin:miter;stroke-miterlimit:4;stroke-dasharray:none;stroke-opacity:0.49411765;paint-order:stroke fill markers" />
    </g>
    <g
       id="shade_focused_pressed"
       transform="translate(-61.118747,201.3479)"
       inkscape:label="#g723">
      <rect
         ry="3.0427084"
         y="82.158333"
         x="119.85625"
         height="6.0854168"
         width="6.0854168"
         id="rect538"
         style="opacity:1;fill:#191919;fill-opacity:0.2;stroke:none;stroke-width:0.24341667;stroke-linecap:round;stroke-linejoin:miter;stroke-miterlimit:4;stroke-dasharray:none;stroke-opacity:1;paint-order:stroke fill markers" />
      <path
         style="opacity:1;fill:#5c616c;fill-opacity:1;stroke:none;stroke-width:0.12472579;stroke-linecap:round;stroke-linejoin:miter;stroke-miterlimit:4;stroke-dasharray:none;stroke-opacity:0.49411765;paint-order:stroke fill markers"
         d="m 122.89999,84.220219 c -0.0473,0 -0.0949,0.01809 -0.13332,0.05478 l -1.05834,1.058334 h 2.38125 l -1.05833,-1.058334 c -0.0369,-0.03669 -0.0839,-0.05478 -0.13126,-0.05478 z m -1.19166,1.377693 v 0.264583 h 2.38125 v -0.264583 z"
         id="path715"
         inkscape:connector-curvature="0" />
    </g>
    <g
       id="unshade_unfocused"
       transform="matrix(1,0,0,-1,-51.593743,311.42498)"
       inkscape:label="#g729">
      <rect
         ry="3.0427084"
         y="51.995831"
         x="119.85625"
         height="6.0854168"
         width="6.0854168"
         id="rect725"
         style="opacity:0;fill:#1f1f1f;fill-opacity:0.09803922;stroke:none;stroke-width:0.24341667;stroke-linecap:round;stroke-linejoin:miter;stroke-miterlimit:4;stroke-dasharray:none;stroke-opacity:1;paint-order:stroke fill markers" />
      <path
         style="opacity:0.5;fill:#5c616c;fill-opacity:1;stroke:none;stroke-width:0.12472579;stroke-linecap:round;stroke-linejoin:miter;stroke-miterlimit:4;stroke-dasharray:none;stroke-opacity:0.49411765;paint-order:stroke fill markers"
         d="m 122.89999,54.057724 c -0.0473,0 -0.0949,0.01809 -0.13332,0.05478 l -1.05834,1.058334 h 2.38125 l -1.05833,-1.058334 c -0.0369,-0.03669 -0.0839,-0.05478 -0.13126,-0.05478 z m -1.19166,1.377693 V 55.7 h 2.38125 v -0.264583 z"
         id="path727"
         inkscape:connector-curvature="0" />
    </g>
    <g
       transform="matrix(1,0,0,-1,-51.593743,320.94998)"
       id="unshade"
       inkscape:label="#g735">
      <rect
         style="opacity:0;fill:#1f1f1f;fill-opacity:0.09803922;stroke:none;stroke-width:0.24341667;stroke-linecap:round;stroke-linejoin:miter;stroke-miterlimit:4;stroke-dasharray:none;stroke-opacity:1;paint-order:stroke fill markers"
         id="rect731"
         width="6.0854168"
         height="6.0854168"
         x="119.85625"
         y="51.995831"
         ry="3.0427084" />
      <path
         inkscape:connector-curvature="0"
         id="path733"
         d="m 122.89999,54.057724 c -0.0473,0 -0.0949,0.01809 -0.13332,0.05478 l -1.05834,1.058334 h 2.38125 l -1.05833,-1.058334 c -0.0369,-0.03669 -0.0839,-0.05478 -0.13126,-0.05478 z m -1.19166,1.377693 V 55.7 h 2.38125 v -0.264583 z"
         style="opacity:1;fill:#5c616c;fill-opacity:1;stroke:none;stroke-width:0.12472579;stroke-linecap:round;stroke-linejoin:miter;stroke-miterlimit:4;stroke-dasharray:none;stroke-opacity:0.49411765;paint-order:stroke fill markers" />
    </g>
    <g
       id="unshade_focused_prelight"
       transform="matrix(1,0,0,-1,-51.593743,351.11249)"
       inkscape:label="#g741">
      <rect
         ry="3.0427084"
         y="71.839584"
         x="119.85625"
         height="6.0854168"
         width="6.0854168"
         id="rect737"
         style="opacity:1;fill:#1f1f1f;fill-opacity:0.09803922;stroke:none;stroke-width:0.24341667;stroke-linecap:round;stroke-linejoin:miter;stroke-miterlimit:4;stroke-dasharray:none;stroke-opacity:1;paint-order:stroke fill markers" />
      <path
         style="opacity:1;fill:#5c616c;fill-opacity:1;stroke:none;stroke-width:0.12472579;stroke-linecap:round;stroke-linejoin:miter;stroke-miterlimit:4;stroke-dasharray:none;stroke-opacity:0.49411765;paint-order:stroke fill markers"
         d="m 122.89999,73.901474 c -0.0473,0 -0.0949,0.01809 -0.13332,0.05478 l -1.05834,1.058334 h 2.38125 l -1.05833,-1.058334 c -0.0369,-0.03669 -0.0839,-0.05478 -0.13126,-0.05478 z m -1.19166,1.377693 v 0.264583 h 2.38125 v -0.264583 z"
         id="path739"
         inkscape:connector-curvature="0" />
    </g>
    <g
       id="unshade_focused_pressed"
       transform="matrix(1,0,0,-1,-51.593743,371.74998)"
       inkscape:label="#g747">
      <rect
         style="opacity:1;fill:#191919;fill-opacity:0.2;stroke:none;stroke-width:0.24341667;stroke-linecap:round;stroke-linejoin:miter;stroke-miterlimit:4;stroke-dasharray:none;stroke-opacity:1;paint-order:stroke fill markers"
         id="rect743"
         width="6.0854168"
         height="6.0854168"
         x="119.85625"
         y="82.158333"
         ry="3.0427084" />
      <path
         inkscape:connector-curvature="0"
         id="path745"
         d="m 122.89999,84.220219 c -0.0473,0 -0.0949,0.01809 -0.13332,0.05478 l -1.05834,1.058334 h 2.38125 l -1.05833,-1.058334 c -0.0369,-0.03669 -0.0839,-0.05478 -0.13126,-0.05478 z m -1.19166,1.377693 v 0.264583 h 2.38125 v -0.264583 z"
         style="opacity:1;fill:#5c616c;fill-opacity:1;stroke:none;stroke-width:0.12472579;stroke-linecap:round;stroke-linejoin:miter;stroke-miterlimit:4;stroke-dasharray:none;stroke-opacity:0.49411765;paint-order:stroke fill markers" />
    </g>
    <g
       id="menu_focused_pressed"
       inkscape:label="#g1610">
      <rect
         transform="scale(1,-1)"
         ry="3.0427084"
         y="-289.59164"
         x="77.522919"
         height="6.0854168"
         width="6.0854168"
         id="rect767"
         style="opacity:1;fill:#191919;fill-opacity:0.2;stroke:none;stroke-width:0.24341667;stroke-linecap:round;stroke-linejoin:miter;stroke-miterlimit:4;stroke-dasharray:none;stroke-opacity:1;paint-order:stroke fill markers" />
      <path
         inkscape:connector-curvature="0"
         id="rect781"
         d="m 80.565627,285.09369 c -0.80618,0 -1.45521,0.64903 -1.45521,1.45521 0,0.80618 0.64903,1.4552 1.45521,1.4552 0.80618,0 1.45521,-0.64902 1.45521,-1.4552 0,-0.80618 -0.64903,-1.45521 -1.45521,-1.45521 z m 0,0.26458 c 0.6596,0 1.19062,0.53102 1.19062,1.19063 0,0.6596 -0.53102,1.19062 -1.19062,1.19062 -0.6596,0 -1.19063,-0.53102 -1.19063,-1.19062 0,-0.65961 0.53103,-1.19063 1.19063,-1.19063 z m 0,0.52917 c -0.36645,0 -0.66146,0.29501 -0.66146,0.66146 0,0.36644 0.29501,0.66145 0.66146,0.66145 0.36644,0 0.66146,-0.29501 0.66146,-0.66145 0,-0.36645 -0.29502,-0.66146 -0.66146,-0.66146 z"
         style="opacity:1;fill:#5c616c;fill-opacity:1;stroke:none;stroke-width:0.1164161;stroke-linecap:round;stroke-linejoin:miter;stroke-miterlimit:4;stroke-dasharray:none;stroke-opacity:1;paint-order:stroke fill markers" />
    </g>
    <g
       id="menu_focused_prelight"
       inkscape:label="#g1614">
      <rect
         transform="scale(1,-1)"
         style="opacity:1;fill:#1f1f1f;fill-opacity:0.09803922;stroke:none;stroke-width:0.24341667;stroke-linecap:round;stroke-linejoin:miter;stroke-miterlimit:4;stroke-dasharray:none;stroke-opacity:1;paint-order:stroke fill markers"
         id="rect761"
         width="6.0854168"
         height="6.0854168"
         x="77.522919"
         y="-279.27289"
         ry="3.0427084" />
      <path
         inkscape:connector-curvature="0"
         style="opacity:1;fill:#5c616c;fill-opacity:1;stroke:none;stroke-width:0.1164161;stroke-linecap:round;stroke-linejoin:miter;stroke-miterlimit:4;stroke-dasharray:none;stroke-opacity:1;paint-order:stroke fill markers"
         d="m 80.565627,274.77498 c -0.80618,0 -1.45521,0.64903 -1.45521,1.45521 0,0.80618 0.64903,1.45521 1.45521,1.45521 0.80619,0 1.45521,-0.64903 1.45521,-1.45521 0,-0.80618 -0.64902,-1.45521 -1.45521,-1.45521 z m 0,0.26459 c 0.65961,0 1.19063,0.53102 1.19063,1.19062 0,0.6596 -0.53102,1.19063 -1.19063,1.19063 -0.6596,0 -1.19062,-0.53103 -1.19062,-1.19063 0,-0.6596 0.53102,-1.19062 1.19062,-1.19062 z m 0,0.52916 c -0.36644,0 -0.66146,0.29502 -0.66146,0.66146 0,0.36645 0.29502,0.66146 0.66146,0.66146 0.36645,0 0.66146,-0.29501 0.66146,-0.66146 0,-0.36644 -0.29501,-0.66146 -0.66146,-0.66146 z"
         id="path1594" />
    </g>
    <g
       id="menu"
       transform="translate(-61.118747,201.3479)"
       inkscape:label="#g1600"
       style="opacity:0.1">
      <rect
         transform="scale(1,-1)"
         ry="3.0427084"
         y="-67.606247"
         x="138.64166"
         height="6.0854168"
         width="6.0854168"
         id="rect755"
         style="opacity:0;fill:#1f1f1f;fill-opacity:0.09803922;stroke:none;stroke-width:0.24341667;stroke-linecap:round;stroke-linejoin:miter;stroke-miterlimit:4;stroke-dasharray:none;stroke-opacity:1;paint-order:stroke fill markers" />
      <path
         id="path1596"
         d="m 141.68437,63.10833 c -0.80618,0 -1.45521,0.649028 -1.45521,1.455208 0,0.806183 0.64903,1.455209 1.45521,1.455209 0.80619,0 1.45521,-0.649026 1.45521,-1.455209 0,-0.80618 -0.64902,-1.455208 -1.45521,-1.455208 z m 0,0.264583 c 0.65961,0 1.19063,0.531022 1.19063,1.190625 0,0.659604 -0.53102,1.190625 -1.19063,1.190625 -0.6596,0 -1.19062,-0.531021 -1.19062,-1.190625 0,-0.659603 0.53102,-1.190625 1.19062,-1.190625 z m 0,0.529167 c -0.36644,0 -0.66146,0.295013 -0.66146,0.661458 0,0.366446 0.29502,0.661459 0.66146,0.661459 0.36645,0 0.66146,-0.295013 0.66146,-0.661459 0,-0.366445 -0.29501,-0.661458 -0.66146,-0.661458 z"
         style="opacity:1;fill:#5c616c;fill-opacity:1;stroke:none;stroke-width:0.1164161;stroke-linecap:round;stroke-linejoin:miter;stroke-miterlimit:4;stroke-dasharray:none;stroke-opacity:1;paint-order:stroke fill markers"
         inkscape:connector-curvature="0" />
    </g>
    <g
       id="menu_unfocused"
       transform="translate(-61.118747,201.3479)"
       inkscape:label="#g1606"
       style="opacity:0.1">
      <rect
         transform="scale(1,-1)"
         style="opacity:0;fill:#1f1f1f;fill-opacity:0.09803922;stroke:none;stroke-width:0.24341667;stroke-linecap:round;stroke-linejoin:miter;stroke-miterlimit:4;stroke-dasharray:none;stroke-opacity:1;paint-order:stroke fill markers"
         id="rect749"
         width="6.0854168"
         height="6.0854168"
         x="138.64166"
         y="-58.081249"
         ry="3.0427084" />
      <path
         id="path1602"
         d="m 141.68437,53.583332 c -0.80618,0 -1.45521,0.649028 -1.45521,1.455208 0,0.806183 0.64903,1.455209 1.45521,1.455209 0.80619,0 1.45521,-0.649026 1.45521,-1.455209 0,-0.80618 -0.64902,-1.455208 -1.45521,-1.455208 z m 0,0.264583 c 0.65961,0 1.19063,0.531022 1.19063,1.190625 0,0.659604 -0.53102,1.190625 -1.19063,1.190625 -0.6596,0 -1.19062,-0.531021 -1.19062,-1.190625 0,-0.659603 0.53102,-1.190625 1.19062,-1.190625 z m 0,0.529167 c -0.36644,0 -0.66146,0.295013 -0.66146,0.661458 0,0.366446 0.29502,0.661459 0.66146,0.661459 0.36645,0 0.66146,-0.295013 0.66146,-0.661459 0,-0.366445 -0.29501,-0.661458 -0.66146,-0.661458 z"
         style="opacity:0.5;fill:#5c616c;fill-opacity:1;stroke:none;stroke-width:0.1164161;stroke-linecap:round;stroke-linejoin:miter;stroke-miterlimit:4;stroke-dasharray:none;stroke-opacity:1;paint-order:stroke fill markers"
         inkscape:connector-curvature="0" />
    </g>
  </g>
</svg>
