<?xml version="1.0" encoding="UTF-8" standalone="no"?>
<!-- Created with Inkscape (http://www.inkscape.org/) -->

<svg
   width="150"
   height="100"
   viewBox="0 0 150 100"
   version="1.1"
   id="svg903"
   inkscape:version="1.4.2 (ebf0e940d0, 2025-05-08)"
   sodipodi:docname="thumbnail.svg"
   xmlns:inkscape="http://www.inkscape.org/namespaces/inkscape"
   xmlns:sodipodi="http://sodipodi.sourceforge.net/DTD/sodipodi-0.dtd"
   xmlns="http://www.w3.org/2000/svg"
   xmlns:svg="http://www.w3.org/2000/svg">
  <defs
     id="defs897" />
  <sodipodi:namedview
     id="base"
     pagecolor="#f0f0f0"
     bordercolor="#666666"
     borderopacity="1.0"
     inkscape:pageopacity="0"
     inkscape:pageshadow="2"
     inkscape:zoom="1.4"
     inkscape:cx="135.35714"
     inkscape:cy="79.285714"
     inkscape:document-units="px"
     inkscape:current-layer="layer1"
     showgrid="true"
     inkscape:snap-global="true"
     units="px"
     inkscape:window-width="1920"
     inkscape:window-height="1019"
     inkscape:window-x="0"
     inkscape:window-y="0"
     inkscape:window-maximized="1"
     inkscape:showpageshadow="2"
     inkscape:pagecheckerboard="0"
     inkscape:deskcolor="#d1d1d1">
    <inkscape:grid
       type="xygrid"
       id="grid1489"
       originx="0"
       originy="0"
       spacingy="1"
       spacingx="1"
       units="px" />
  </sodipodi:namedview>
  <g
     inkscape:label="Layer 1"
     inkscape:groupmode="layer"
     id="layer1"
     transform="translate(0,-270.54165)">
    <g
       id="thumbnail-Light">
      <rect
         ry="2.0088329"
         rx="2.0000024"
         y="280.54166"
         x="25.000002"
         height="31.999998"
         width="100"
         id="rect1448"
         style="fill:#ffffff;fill-opacity:1;stroke:none;stroke-width:1.00428;stroke-linecap:round;stroke-linejoin:miter;stroke-miterlimit:4;stroke-dasharray:none;stroke-opacity:1;paint-order:stroke fill markers" />
      <g
         id="minimize"
         transform="translate(110.98552,978.67947)">
        <rect
           ry="11.5"
           y="-693.63782"
           x="-70"
           height="23"
           width="23"
           id="rect674"
           style="opacity:0;fill:#1f1f1f;fill-opacity:0.0980392;stroke:none;stroke-width:0.92;stroke-linecap:round;stroke-linejoin:miter;stroke-miterlimit:4;stroke-dasharray:none;stroke-opacity:1;paint-order:stroke fill markers" />
        <rect
           ry="1.1965401e-05"
           y="-682.63782"
           x="-63"
           height="0.99999738"
           width="9"
           id="rect676"
           style="opacity:1;fill:#5c616c;fill-opacity:1;stroke:none;stroke-width:0.471405;stroke-linecap:round;stroke-linejoin:miter;stroke-miterlimit:4;stroke-dasharray:none;stroke-opacity:0.494118;paint-order:stroke fill markers" />
      </g>
      <g
         id="maximize"
         transform="translate(103,979.67947)">
        <rect
           style="opacity:0;fill:#1f1f1f;fill-opacity:0.0980392;stroke:none;stroke-width:0.92;stroke-linecap:round;stroke-linejoin:miter;stroke-miterlimit:4;stroke-dasharray:none;stroke-opacity:1;paint-order:stroke fill markers"
           id="rect680"
           width="23"
           height="23"
           x="-33"
           y="-694.63782"
           ry="11.5" />
        <path
           sodipodi:nodetypes="cccccccccc"
           inkscape:connector-curvature="0"
           id="path682"
           d="m -26,-687.63782 v 9 h 9 v -9 z m 1,1 h 7 v 7 h -7 z"
           style="opacity:1;fill:#5c616c;fill-opacity:1;stroke:none;stroke-width:0.450564;stroke-linecap:round;stroke-linejoin:miter;stroke-miterlimit:4;stroke-dasharray:none;stroke-opacity:0.494118;paint-order:stroke fill markers" />
      </g>
      <g
         id="close"
         transform="translate(90.168755,979.67947)">
        <rect
           ry="11.5"
           y="-694.63782"
           x="9"
           height="23"
           width="23"
           id="rect692"
           style="fill:#de8787" />
        <path
           id="path694"
           d="m 16.353515,-687.99134 -0.70703,0.70704 4.146483,4.14648 -4.146483,4.14648 0.70703,0.70704 4.146485,-4.14649 4.146484,4.14649 0.707031,-0.70704 -4.146484,-4.14648 4.146484,-4.14648 -0.707031,-0.70704 -4.146484,4.14649 z"
           style="fill:#ffffff" />
      </g>
    </g>
    <g
       id="thumbnail">
      <rect
         style="fill:#32343d;fill-opacity:1;stroke:none;stroke-width:1.00428;stroke-linecap:round;stroke-linejoin:miter;stroke-miterlimit:4;stroke-dasharray:none;stroke-opacity:1;paint-order:stroke fill markers"
         id="rect1503"
         width="100"
         height="31.999998"
         x="25.000002"
         y="325.54166"
         rx="2.0000024"
         ry="2.0088329" />
      <g
         id="g15"
         transform="translate(110.98552,1023.6795)">
        <rect
           ry="11.5"
           y="-693.63782"
           x="-70"
           height="23"
           width="23"
           id="rect14"
           style="opacity:0;fill:#1f1f1f;fill-opacity:0.0980392;stroke:none;stroke-width:0.92;stroke-linecap:round;stroke-linejoin:miter;stroke-miterlimit:4;stroke-dasharray:none;stroke-opacity:1;paint-order:stroke fill markers" />
        <rect
           ry="1.1965401e-05"
           y="-682.63782"
           x="-63"
           height="0.99999738"
           width="9"
           id="rect15"
           style="opacity:1;fill:#d3dae3;fill-opacity:1;stroke:none;stroke-width:0.471405;stroke-linecap:round;stroke-linejoin:miter;stroke-miterlimit:4;stroke-dasharray:none;stroke-opacity:0.494118;paint-order:stroke fill markers" />
      </g>
      <g
         id="g16"
         transform="translate(103,1024.6795)">
        <rect
           style="opacity:0;fill:#1f1f1f;fill-opacity:0.0980392;stroke:none;stroke-width:0.92;stroke-linecap:round;stroke-linejoin:miter;stroke-miterlimit:4;stroke-dasharray:none;stroke-opacity:1;paint-order:stroke fill markers"
           id="rect16"
           width="23"
           height="23"
           x="-33"
           y="-694.63782"
           ry="11.5" />
        <path
           id="path16"
           d="m -26,-687.63782 v 9 h 9 v -9 z m 1,1 h 7 v 7 h -7 z"
           style="opacity:1;fill:#d3dae3;fill-opacity:1;stroke:none;stroke-width:0.450564;stroke-linecap:round;stroke-linejoin:miter;stroke-miterlimit:4;stroke-dasharray:none;stroke-opacity:0.494118;paint-order:stroke fill markers" />
      </g>
      <g
         id="g17"
         transform="translate(90.168755,1024.6795)">
        <rect
           ry="11.5"
           y="-694.63782"
           x="9"
           height="23"
           width="23"
           id="rect17"
           style="fill:#de8787" />
        <path
           id="path17"
           d="m 16.353515,-687.99134 -0.70703,0.70704 4.146483,4.14648 -4.146483,4.14648 0.70703,0.70704 4.146485,-4.14649 4.146484,4.14649 0.707031,-0.70704 -4.146484,-4.14648 4.146484,-4.14648 -0.707031,-0.70704 -4.146484,4.14649 z"
           style="fill:#ffffff" />
      </g>
    </g>
    <g
       id="thumbnail-Win-Light">
      <rect
         ry="2.0088329"
         rx="2.0000024"
         y="280.54166"
         x="160"
         height="31.999998"
         width="100"
         id="rect19"
         style="fill:#ffffff;fill-opacity:1;stroke:none;stroke-width:1.00428;stroke-linecap:round;stroke-linejoin:miter;stroke-miterlimit:4;stroke-dasharray:none;stroke-opacity:1;paint-order:stroke fill markers" />
      <g
         id="g21"
         transform="translate(242,978.67947)">
        <rect
           ry="11.5"
           y="-693.63782"
           x="-70"
           height="23"
           width="23"
           id="rect20"
           style="opacity:0;fill:#1f1f1f;fill-opacity:0.0980392;stroke:none;stroke-width:0.92;stroke-linecap:round;stroke-linejoin:miter;stroke-miterlimit:4;stroke-dasharray:none;stroke-opacity:1;paint-order:stroke fill markers" />
        <rect
           ry="1.1965401e-05"
           y="-682.63782"
           x="-63"
           height="0.99999738"
           width="9"
           id="rect21"
           style="opacity:1;fill:#5c616c;fill-opacity:1;stroke:none;stroke-width:0.471405;stroke-linecap:round;stroke-linejoin:miter;stroke-miterlimit:4;stroke-dasharray:none;stroke-opacity:0.494118;paint-order:stroke fill markers" />
      </g>
      <g
         id="g22"
         transform="translate(235,979.67947)">
        <rect
           style="opacity:0;fill:#1f1f1f;fill-opacity:0.0980392;stroke:none;stroke-width:0.92;stroke-linecap:round;stroke-linejoin:miter;stroke-miterlimit:4;stroke-dasharray:none;stroke-opacity:1;paint-order:stroke fill markers"
           id="rect22"
           width="23"
           height="23"
           x="-33"
           y="-694.63782"
           ry="11.5" />
        <path
           sodipodi:nodetypes="cccccccccc"
           inkscape:connector-curvature="0"
           id="path22"
           d="m -26,-687.63782 v 9 h 9 v -9 z m 1,1 h 7 v 7 h -7 z"
           style="opacity:1;fill:#5c616c;fill-opacity:1;stroke:none;stroke-width:0.450564;stroke-linecap:round;stroke-linejoin:miter;stroke-miterlimit:4;stroke-dasharray:none;stroke-opacity:0.494118;paint-order:stroke fill markers" />
      </g>
      <rect
         ry="0"
         y="280.54166"
         x="228"
         height="32.000011"
         width="32.000011"
         id="rect23"
         style="fill:#de8787;stroke-width:1.3913"
         rx="0" />
      <path
         id="path23"
         d="m 239.85351,291.68813 -0.70703,0.70704 4.14649,4.14648 -4.14649,4.14648 0.70703,0.70704 4.14649,-4.14649 4.14648,4.14649 0.70703,-0.70704 -4.14648,-4.14648 4.14648,-4.14648 -0.70703,-0.70704 L 244,295.83462 Z"
         style="fill:#ffffff" />
    </g>
    <g
       id="thumbnail-Win">
      <rect
         style="fill:#32343d;fill-opacity:1;stroke:none;stroke-width:1.00428;stroke-linecap:round;stroke-linejoin:miter;stroke-miterlimit:4;stroke-dasharray:none;stroke-opacity:1;paint-order:stroke fill markers"
         id="rect24"
         width="100"
         height="31.999998"
         x="160"
         y="325.54166"
         rx="2.0000024"
         ry="2.0088329" />
      <g
         id="g30"
         transform="translate(242,1023.6795)">
        <rect
           ry="11.5"
           y="-693.63782"
           x="-70"
           height="23"
           width="23"
           id="rect29"
           style="opacity:0;fill:#1f1f1f;fill-opacity:0.0980392;stroke:none;stroke-width:0.92;stroke-linecap:round;stroke-linejoin:miter;stroke-miterlimit:4;stroke-dasharray:none;stroke-opacity:1;paint-order:stroke fill markers" />
        <rect
           ry="1.1965401e-05"
           y="-682.63782"
           x="-63"
           height="0.99999738"
           width="9"
           id="rect30"
           style="opacity:1;fill:#d3dae3;fill-opacity:1;stroke:none;stroke-width:0.471405;stroke-linecap:round;stroke-linejoin:miter;stroke-miterlimit:4;stroke-dasharray:none;stroke-opacity:0.494118;paint-order:stroke fill markers" />
      </g>
      <g
         id="g31"
         transform="translate(235,1024.6795)">
        <rect
           style="opacity:0;fill:#1f1f1f;fill-opacity:0.0980392;stroke:none;stroke-width:0.92;stroke-linecap:round;stroke-linejoin:miter;stroke-miterlimit:4;stroke-dasharray:none;stroke-opacity:1;paint-order:stroke fill markers"
           id="rect31"
           width="23"
           height="23"
           x="-33"
           y="-694.63782"
           ry="11.5" />
        <path
           sodipodi:nodetypes="cccccccccc"
           inkscape:connector-curvature="0"
           id="path31"
           d="m -26,-687.63782 v 9 h 9 v -9 z m 1,1 h 7 v 7 h -7 z"
           style="opacity:1;fill:#d3dae3;fill-opacity:1;stroke:none;stroke-width:0.450564;stroke-linecap:round;stroke-linejoin:miter;stroke-miterlimit:4;stroke-dasharray:none;stroke-opacity:0.494118;paint-order:stroke fill markers" />
      </g>
      <rect
         ry="0"
         y="325.54166"
         x="228"
         height="32.000011"
         width="32.000011"
         id="rect32"
         style="fill:#de8787;stroke-width:1.3913"
         rx="0" />
      <path
         id="path32"
         d="m 239.85351,336.68812 -0.70703,0.70704 4.14649,4.14648 -4.14649,4.14648 0.70703,0.70704 4.14649,-4.14649 4.14648,4.14649 0.70703,-0.70704 -4.14648,-4.14648 4.14648,-4.14648 -0.70703,-0.70704 L 244,340.83461 Z"
         style="fill:#ffffff" />
    </g>
    <g
       id="thumbnail-Round-Light"
       transform="translate(250)">
      <path
         id="rect33"
         style="fill:#ffffff;fill-opacity:1;stroke:none;stroke-width:1.00428;stroke-linecap:round;stroke-linejoin:miter;stroke-miterlimit:4;stroke-dasharray:none;stroke-opacity:1;paint-order:stroke fill markers"
         d="M 27.000002 280.54165 C 26.930752 280.54165 26.862321 280.54458 26.794924 280.55142 C 26.792958 280.55145 26.79103 280.55138 26.789064 280.55142 C 25.780905 280.65659 25.000002 281.51007 25.000002 282.55142 L 25.000002 310.53188 C 25.000002 311.64478 25.892001 312.54165 27.000002 312.54165 L 123 312.54165 C 124.108 312.54165 125 311.64478 125 310.53188 L 125 292.54165 C 125 285.89365 119.648 280.54165 113 280.54165 L 27.000002 280.54165 z " />
      <g
         id="g35"
         transform="translate(110.98552,978.67947)">
        <rect
           ry="11.5"
           y="-693.63782"
           x="-70"
           height="23"
           width="23"
           id="rect34"
           style="opacity:0;fill:#1f1f1f;fill-opacity:0.0980392;stroke:none;stroke-width:0.92;stroke-linecap:round;stroke-linejoin:miter;stroke-miterlimit:4;stroke-dasharray:none;stroke-opacity:1;paint-order:stroke fill markers" />
        <rect
           ry="1.1965401e-05"
           y="-682.63782"
           x="-63"
           height="0.99999738"
           width="9"
           id="rect35"
           style="opacity:1;fill:#5c616c;fill-opacity:1;stroke:none;stroke-width:0.471405;stroke-linecap:round;stroke-linejoin:miter;stroke-miterlimit:4;stroke-dasharray:none;stroke-opacity:0.494118;paint-order:stroke fill markers" />
      </g>
      <g
         id="g36"
         transform="translate(103,979.67947)">
        <rect
           style="opacity:0;fill:#1f1f1f;fill-opacity:0.0980392;stroke:none;stroke-width:0.92;stroke-linecap:round;stroke-linejoin:miter;stroke-miterlimit:4;stroke-dasharray:none;stroke-opacity:1;paint-order:stroke fill markers"
           id="rect36"
           width="23"
           height="23"
           x="-33"
           y="-694.63782"
           ry="11.5" />
        <path
           sodipodi:nodetypes="cccccccccc"
           inkscape:connector-curvature="0"
           id="path36"
           d="m -26,-687.63782 v 9 h 9 v -9 z m 1,1 h 7 v 7 h -7 z"
           style="opacity:1;fill:#5c616c;fill-opacity:1;stroke:none;stroke-width:0.450564;stroke-linecap:round;stroke-linejoin:miter;stroke-miterlimit:4;stroke-dasharray:none;stroke-opacity:0.494118;paint-order:stroke fill markers" />
      </g>
      <g
         id="g37"
         transform="translate(90.168755,979.67947)">
        <rect
           ry="11.5"
           y="-694.63782"
           x="9"
           height="23"
           width="23"
           id="rect37"
           style="fill:#de8787" />
        <path
           id="path37"
           d="m 16.353515,-687.99134 -0.70703,0.70704 4.146483,4.14648 -4.146483,4.14648 0.70703,0.70704 4.146485,-4.14649 4.146484,4.14649 0.707031,-0.70704 -4.146484,-4.14648 4.146484,-4.14648 -0.707031,-0.70704 -4.146484,4.14649 z"
           style="fill:#ffffff" />
      </g>
    </g>
    <g
       id="thumbnail-Round"
       transform="translate(250)">
      <path
         id="rect38"
         style="fill:#32343d;fill-opacity:1;stroke:none;stroke-width:1.00428;stroke-linecap:round;stroke-linejoin:miter;stroke-miterlimit:4;stroke-dasharray:none;stroke-opacity:1;paint-order:stroke fill markers"
         d="M 27.000002 325.54165 C 26.930752 325.54165 26.862321 325.54458 26.794924 325.55142 C 26.792958 325.55145 26.79103 325.55138 26.789064 325.55142 C 25.780905 325.65659 25.000002 326.51007 25.000002 327.55142 L 25.000002 355.53188 C 25.000002 356.64478 25.892001 357.54165 27.000002 357.54165 L 123 357.54165 C 124.108 357.54165 125 356.64478 125 355.53188 L 125 337.54165 C 125 330.89365 119.648 325.54165 113 325.54165 L 27.000002 325.54165 z " />
      <g
         id="g40"
         transform="translate(110.98552,1023.6795)">
        <rect
           ry="11.5"
           y="-693.63782"
           x="-70"
           height="23"
           width="23"
           id="rect39"
           style="opacity:0;fill:#1f1f1f;fill-opacity:0.0980392;stroke:none;stroke-width:0.92;stroke-linecap:round;stroke-linejoin:miter;stroke-miterlimit:4;stroke-dasharray:none;stroke-opacity:1;paint-order:stroke fill markers" />
        <rect
           ry="1.1965401e-05"
           y="-682.63782"
           x="-63"
           height="0.99999738"
           width="9"
           id="rect40"
           style="opacity:1;fill:#d3dae3;fill-opacity:1;stroke:none;stroke-width:0.471405;stroke-linecap:round;stroke-linejoin:miter;stroke-miterlimit:4;stroke-dasharray:none;stroke-opacity:0.494118;paint-order:stroke fill markers" />
      </g>
      <g
         id="g41"
         transform="translate(103,1024.6795)">
        <rect
           style="opacity:0;fill:#1f1f1f;fill-opacity:0.0980392;stroke:none;stroke-width:0.92;stroke-linecap:round;stroke-linejoin:miter;stroke-miterlimit:4;stroke-dasharray:none;stroke-opacity:1;paint-order:stroke fill markers"
           id="rect41"
           width="23"
           height="23"
           x="-33"
           y="-694.63782"
           ry="11.5" />
        <path
           id="path41"
           d="m -26,-687.63782 v 9 h 9 v -9 z m 1,1 h 7 v 7 h -7 z"
           style="opacity:1;fill:#d3dae3;fill-opacity:1;stroke:none;stroke-width:0.450564;stroke-linecap:round;stroke-linejoin:miter;stroke-miterlimit:4;stroke-dasharray:none;stroke-opacity:0.494118;paint-order:stroke fill markers" />
      </g>
      <g
         id="g42"
         transform="translate(90.168755,1024.6795)">
        <rect
           ry="11.5"
           y="-694.63782"
           x="9"
           height="23"
           width="23"
           id="rect42"
           style="fill:#de8787" />
        <path
           id="path42"
           d="m 16.353515,-687.99134 -0.70703,0.70704 4.146483,4.14648 -4.146483,4.14648 0.70703,0.70704 4.146485,-4.14649 4.146484,4.14649 0.707031,-0.70704 -4.146484,-4.14648 4.146484,-4.14648 -0.707031,-0.70704 -4.146484,4.14649 z"
           style="fill:#ffffff" />
      </g>
    </g>
  </g>
</svg>
