<svg width="16" height="16" version="1.1" xmlns="http://www.w3.org/2000/svg">
 <g id="checkbox-unchecked" transform="matrix(3.7795 0 0 3.7795 -133 -476.52)">
  <rect x="35.19" y="126.08" width="4.2333" height="4.2333" ry="1.6885e-6" fill="none" stroke-width=".14111" style="paint-order:stroke fill markers"/>
  <path d="m35.983 126.34c-0.29316 0-0.52917 0.23601-0.52917 0.52917v2.9104c0 0.29316 0.236 0.52916 0.52917 0.52916h2.9104c0.29316 0 0.52917-0.236 0.52917-0.52916v-2.9104c0-0.29316-0.23601-0.52917-0.52917-0.52917zm0 0.26459h2.9104c0.14658 0 0.26458 0.118 0.26458 0.26458v2.9104c0 0.14658-0.118 0.26458-0.26458 0.26458h-2.9104c-0.14658 0-0.26458-0.118-0.26458-0.26458v-2.9104c0-0.14658 0.118-0.26458 0.26458-0.26458z" color="#000000" fill="#9d9d9d" stroke-width="0"/>
 </g>
</svg>
