<svg xmlns="http://www.w3.org/2000/svg" width="16" height="16" enable-background="new"><defs><filter id="a" color-interpolation-filters="sRGB"><feBlend mode="darken" in2="BackgroundImage"/></filter></defs><g color="#000" fill="#5d656b"><path style="line-height:normal;-inkscape-font-specification:Sans;text-indent:0;text-align:start;text-decoration-line:none;text-transform:none;block-progression:tb;marker:none" d="M6 0v6H4c1.467 2.082 3.5 5.219 3.5 5.219L11 6H9V0H7z" font-weight="400" font-family="Sans" overflow="visible" enable-background="accumulate"/><path style="marker:none" d="M5 2.344a6.576 6.576 0 0 0-4 6.062C1 12.05 3.91 15 7.5 15S14 12.049 14 8.406a6.577 6.577 0 0 0-4-6.062v1.094a5.6 5.6 0 0 1 3 4.968C13 11.488 10.538 14 7.5 14S2 11.488 2 8.406A5.548 5.548 0 0 1 5 3.47V2.344z" overflow="visible" enable-background="accumulate"/></g></svg>