<svg width="16" height="16" version="1.1" xmlns="http://www.w3.org/2000/svg">
 <defs>
  <style id="current-color-scheme" type="text/css">.ColorScheme-Text { color:#d3dae3; } .ColorScheme-Highlight { color:#5294e2; }</style>
 </defs>
 <g class="ColorScheme-Text" transform="translate(0,1)" color="#d3dae3" fill="#d3dae3">
  <path d="m3 0c-0.554 0-1 0.446-1 1-0.554 0-1 0.446-1 1v3h1v-3h1v-1h4v1h7v1h1v-1c0-0.554-0.446-1-1-1h-6c0-0.554-0.446-1-1-1z" style="paint-order:fill markers stroke"/>
  <path d="m8 3-1 2h-6c-0.554 0-1 0.446-1 1v7c0 0.554 0.446 1 1 1h14c0.554 0 1-0.446 1-1v-9c0-0.5-0.5-1-1-1zm0.60742 1h6.3926v9h-14v-7h6.7324z"/>
  <path d="m8.608 4-0.876 2h-6.732v7h14v-9z" opacity=".25"/>
 </g>
</svg>
