<svg width="16" height="16" enable-background="new" version="1.1" xmlns="http://www.w3.org/2000/svg">
 <title>Paper Symbolic Icon Theme</title>
 <path d="m2.498 3.052c-0.831 0-1.5 0.669-1.5 1.5v7c0 0.831 0.669 1.5 1.5 1.5h11c0.831 0 1.5-0.669 1.5-1.5v-7c0-0.831-0.669-1.5-1.5-1.5zm0.475 1h10.048l-5.023 3.871zm11.025 0.512v6.988c0 0.277-0.223 0.5-0.5 0.5h-11a0.499 0.499 0 0 1-0.5-0.5v-6.986l5.691 4.382c0.016 0.013 0.035 0.016 0.051 0.026a0.56 0.56 0 0 0 0.17 0.064c0.03 6e-3 0.058 6e-3 0.088 6e-3s0.059 0 0.088-6e-3a0.49 0.49 0 0 0 0.115-0.037c0.019-9e-3 0.037-0.016 0.055-0.027 0.016-0.01 0.035-0.013 0.05-0.026z" color="#000000" fill="#5d656b" overflow="visible" style="isolation:auto;mix-blend-mode:normal"/>
</svg>
