<svg width="16" height="16" version="1.1" xmlns="http://www.w3.org/2000/svg">
 <path d="m11.162 4.27c-0.02547 5.142e-4 -0.05087 0.00285-0.076 7e-3v8e-3c-1.1061 0.83083-2.0976 1.9904-3.102 2.992l-1.764-1.757c-0.3354-0.54596-1.2796 0.39437-0.735 0.732l2.135 2.135c0.20556 0.19467 0.52744 0.19467 0.733 0l3.2-3.201c0.35167-0.33969 0.0986-0.93407-0.39-0.916z" color="#000000" fill="#fff" font-weight="400" overflow="visible" style="font-feature-settings:normal;font-variant-alternates:normal;font-variant-caps:normal;font-variant-ligatures:normal;font-variant-numeric:normal;font-variant-position:normal;isolation:auto;mix-blend-mode:normal;shape-padding:0;text-decoration-color:#000000;text-decoration-line:none;text-decoration-style:solid;text-indent:0;text-orientation:mixed;text-transform:none;white-space:normal"/>
 <path d="m8 0c-4.424 0-8 3.576-8 8s3.576 8 8 8 8-3.576 8-8-3.576-8-8-8zm0 1c3.87 0 7 3.13 7 7s-3.13 7-7 7-7-3.13-7-7 3.13-7 7-7z" color="#bebebe" fill="#fff" overflow="visible" style="text-indent:0;text-transform:none"/>
</svg>
