<svg width="16" height="16" version="1.1" xmlns="http://www.w3.org/2000/svg">
 <path d="m7.781 1.003c-0.13 0.013-0.3 0.034-0.437 0.094 0 0-0.089 0.296-0.157 1.031-0.083 0.9-0.428 1.13-0.687 1.313-0.26 0.183-0.34 0.237-0.438 0.281-0.508 0.085-0.961 0.14-1.656-0.437-0.568-0.472-0.812-0.625-0.812-0.625-0.28 0.11-0.532 0.406-0.532 0.406s-0.295 0.25-0.406 0.531c0 0 0.153 0.245 0.625 0.813 0.577 0.694 0.523 1.148 0.438 1.656-0.044 0.097-0.098 0.178-0.282 0.437-0.183 0.26-0.413 0.605-1.312 0.688-0.735 0.068-1 0.156-1 0.156-0.12 0.277-0.125 0.656-0.125 0.656s5e-3 0.38 0.125 0.657c0 0 0.265 0.088 1 0.156 0.899 0.083 1.128 0.428 1.312 0.687 0.184 0.26 0.238 0.34 0.282 0.438 0.085 0.508 0.14 0.962-0.438 1.656-0.472 0.568-0.625 0.813-0.625 0.813 0.111 0.28 0.406 0.53 0.406 0.53s0.25 0.297 0.532 0.407c0 0 0.244-0.153 0.812-0.625 0.695-0.577 1.148-0.522 1.656-0.437 0.097 0.044 0.178 0.097 0.438 0.28 0.26 0.184 0.604 0.414 0.687 1.313 0.068 0.735 0.157 1 0.157 1 0.277 0.12 0.656 0.125 0.656 0.125s0.38-5e-3 0.656-0.125c0 0 0.089-0.264 0.156-1 0.083-0.899 0.425-1.138 0.844-1.437v-0.031c0.1-0.037 0.184-0.081 0.281-0.125 0.508-0.086 0.962-0.14 1.657 0.437 0.567 0.472 0.812 0.625 0.812 0.625 0.281-0.11 0.531-0.406 0.531-0.406s0.296-0.25 0.407-0.531c0 0-0.153-0.245-0.625-0.813-0.578-0.694-0.523-1.148-0.438-1.656 0.044-0.097 0.088-0.182 0.125-0.281h0.031c0.3-0.42 0.539-0.76 1.438-0.844 0.735-0.068 1.031-0.156 1.031-0.156 0.12-0.277 0.094-0.657 0.094-0.657s0.026-0.38-0.094-0.656c0 0-0.296-0.088-1.031-0.156-0.9-0.083-1.138-0.424-1.438-0.844-0.037-0.1-0.112-0.184-0.156-0.281-0.085-0.508-0.14-0.962 0.438-1.656 0.471-0.568 0.625-0.813 0.625-0.813-0.111-0.28-0.407-0.531-0.407-0.531s-0.25-0.296-0.53-0.406c0 0-0.245 0.153-0.813 0.625-0.695 0.577-1.13 0.52-1.75 0.25s-0.949-0.507-1.032-1.407c-0.068-0.735-0.156-1.03-0.156-1.03-0.276-0.122-0.656-0.096-0.656-0.096s-0.09-0.012-0.219 0zm0.219 5a2 2 0 1 1 0 4 2 2 0 0 1 0-4z" fill="#5d656b"/>
</svg>
