<svg width="16" height="16" version="1.1" xmlns="http://www.w3.org/2000/svg">
 <g id="radio-unchecked" transform="matrix(3.7795 0 0 3.7795 -193 -476.52)">
  <rect x="51.065" y="126.08" width="4.2333" height="4.2333" ry="1.6885e-6" fill="none" stroke-width=".14111" style="paint-order:stroke fill markers"/>
  <path d="m53.314 126.34a1.9844 1.9844 0 0 0-1.9844 1.9844 1.9844 1.9844 0 0 0 1.9844 1.9844 1.9844 1.9844 0 0 0 1.9844-1.9844 1.9844 1.9844 0 0 0-1.9844-1.9844zm0 0.26459a1.7198 1.7198 0 0 1 1.7198 1.7198 1.7198 1.7198 0 0 1-1.7198 1.7198 1.7198 1.7198 0 0 1-1.7198-1.7198 1.7198 1.7198 0 0 1 1.7198-1.7198z" fill="#9d9d9d" stroke-width=".26458" style="paint-order:stroke fill markers"/>
 </g>
</svg>
