<?xml version="1.0" encoding="UTF-8" standalone="no"?>
<svg
   xmlns:dc="http://purl.org/dc/elements/1.1/"
   xmlns:cc="http://creativecommons.org/ns#"
   xmlns:rdf="http://www.w3.org/1999/02/22-rdf-syntax-ns#"
   xmlns:svg="http://www.w3.org/2000/svg"
   xmlns="http://www.w3.org/2000/svg"
   xmlns:sodipodi="http://sodipodi.sourceforge.net/DTD/sodipodi-0.dtd"
   xmlns:inkscape="http://www.inkscape.org/namespaces/inkscape"
   width="16"
   height="16"
   enable-background="new"
   version="1.1"
   id="svg8"
   sodipodi:docname="starred-symbolic.svg"
   inkscape:version="0.92.4 5da689c313, 2019-01-14">
  <metadata
     id="metadata14">
    <rdf:RDF>
      <cc:Work
         rdf:about="">
        <dc:format>image/svg+xml</dc:format>
        <dc:type
           rdf:resource="http://purl.org/dc/dcmitype/StillImage" />
      </cc:Work>
    </rdf:RDF>
  </metadata>
  <defs
     id="defs12" />
  <sodipodi:namedview
     pagecolor="#ffffff"
     bordercolor="#666666"
     borderopacity="1"
     objecttolerance="10"
     gridtolerance="10"
     guidetolerance="10"
     inkscape:pageopacity="0"
     inkscape:pageshadow="2"
     inkscape:window-width="1366"
     inkscape:window-height="702"
     id="namedview10"
     showgrid="false"
     inkscape:zoom="29.09668"
     inkscape:cx="8"
     inkscape:cy="8"
     inkscape:window-x="0"
     inkscape:window-y="36"
     inkscape:window-maximized="1"
     inkscape:current-layer="svg8" />
  <title
     id="title2">Gnome Symbolic Icons</title>
  <path
     class="ColorScheme-Text"
     d="m8.0234 0.80273a1.0001 1.0001 0 0 0-0.96289 0.66016l-1.6309 4.5059h-3.4297a1.0001 1.0001 0 0 0-0.59766 1.8008l2.8965 2.1641-1.0449 4.0117a1.0001 1.0001 0 0 0 1.543 1.0703l3.2051-2.2539 3.2051 2.252a1.0001 1.0001 0 0 0 1.543-1.0703l-1.0469-4.0117 2.8945-2.1602a1.0001 1.0001 0 0 0-0.59766-1.8027h-3.4297l-1.6289-4.5059a1.0001 1.0001 0 0 0-0.91797-0.66016zm-0.023438 1 1.7637 4.8711a0.43338 0.4609 0 0 0 0.4043 0.29492h3.832l-3.1855 2.3789a0.43338 0.4609 0 0 0-0.16797 0.5l1.1348 4.3477-3.541-2.4883a0.43338 0.4609 0 0 0-0.47852 0l-3.5391 2.4902 1.1309-4.3477a0.43338 0.4609 0 0 0-0.16602-0.5l-3.1875-2.3809h3.832a0.43338 0.4609 0 0 0 0.40625-0.29492z"
     fill="#5d656b"
     id="path4"
     style="fill:#5d656b;fill-opacity:1" />
  <path
     class="ColorScheme-Text"
     d="m8.0005 1.8025-1.763 4.8713a0.43338 0.4609 0 0 1-0.4049 0.29481h-3.8326l3.187 2.3811a0.43338 0.4609 0 0 1 0.167 0.5002l-1.1321 4.3476 3.5398-2.4902a0.43338 0.4609 0 0 1 0.4786 0l3.5417 2.4882-1.135-4.3476a0.43338 0.4609 0 0 1 0.167-0.50021l3.186-2.3782h-3.8326a0.43338 0.4609 0 0 1-0.4039-0.2958z"
     fill="#5d656b"
     opacity=".25"
     id="path6"
     style="fill:#5d656b;fill-opacity:1" />
</svg>
