<svg width="57" height="63" enable-background="new" version="1.0" xmlns="http://www.w3.org/2000/svg">
 <g transform="translate(0,-237)">
  <path d="m28.5 252a16.5 16.5 0 1 0 0 33 16.5 16.5 0 0 0 0-33zm5.8814 4.599a2.1982 2.1982 0 0 1 1.637 3.2856 2.2022 2.2022 0 1 1-1.637-3.2856zm-5.8852 2.3307c0.88863 0 1.746 0.12075 2.5606 0.34687a3.0908 3.0908 0 0 0 4.143 2.4009c1.6292 1.6018 2.6892 3.7806 2.8452 6.2088l-3.1374 0.0429a6.4347 6.4347 0 0 0-9.1202-5.2616l-1.5316-2.7477a9.5372 9.5372 0 0 1 4.2444-0.98995zm-5.3084 1.6058 1.6136 2.7009a6.4269 6.4269 0 0 0 0 10.527l-1.6136 2.697a9.58 9.58 0 0 1-3.952-5.5617 3.083 3.083 0 0 0 0-4.7979 9.5878 9.5878 0 0 1 3.952-5.5656zm-5.9086 5.7604a2.2041 2.2041 0 1 1 0 4.408 2.2022 2.2022 0 0 1 0-4.4042zm17.628 2.7711 3.1374 0.0505a9.541 9.541 0 0 1-2.8452 6.2048 3.079 3.079 0 0 0-4.143 2.397 9.5644 9.5644 0 0 1-6.8012-0.6392l1.5316-2.7438a6.4308 6.4308 0 0 0 9.1202-5.2694zm-1.0718 6.9609a2.2068 2.2068 0 1 1 0.53786 4.3808 2.2068 2.2068 0 0 1-0.53786-4.3808z" fill="#ffffff" stroke-width="6.9293"/>
 </g>
</svg>
