<svg width="57" height="63" version="1.1" viewBox="0 0 15.081 16.668" xmlns="http://www.w3.org/2000/svg">
 <path d="m7.541 3.9684a4.365 4.365 0 0 0-4.3661 4.3661 4.365 4.365 0 0 0 4.3661 4.365 4.365 4.365 0 0 0 4.365-4.365 4.365 4.365 0 0 0-4.365-4.3661zm1.1673 1.0209c0.12374-0.00206 0.22583 0.012375 0.34751 0.031967 0.44547 0.072183 0.87446 0.35783 1.1467 0.83012 0.36813 0.63728 0.28152 1.4437-0.12993 1.8872-0.22377 0.20624-0.2712 0.2217-0.40938 0.31554 0.09487-0.14849 0.11137-0.17736 0.13406-0.31452-0.0051601-0.076306-0.0030901-0.10827-0.04331-0.2114a0.55272 0.55272 0 0 0-0.24749-0.26708 0.89302 0.89302 0 0 0-0.38463-0.076306c-0.077339 0-0.12478-0.0021-0.22893 0.01335-0.47847 0.13199-1.0147-0.05157-1.2663-0.48879-0.30111-0.52174-0.082496-1.2137 0.45785-1.5252a1.289 1.289 0 0 1 0.49188-0.18459c0.047435-0.00618 0.090744-0.00825 0.13199-0.010305zm-3.1751 1.422c0.077341 0.00206 0.15261 0.012375 0.22686 0.029904 0.28977 0.089714 0.3269 0.12271 0.47744 0.19593-0.17531-0.00722-0.20933-0.00825-0.33926 0.041247-0.063935 0.042285-0.092807 0.056715-0.16086 0.14334a0.55272 0.55272 0 0 0-0.10828 0.34751 0.89302 0.89302 0 0 0 0.12581 0.37124c0.039185 0.067035 0.06084 0.10931 0.12684 0.19077 0.3537 0.34958 0.46197 0.90539 0.20933 1.3416-0.30111 0.52281-1.0106 0.67749-1.55 0.36608a1.289 1.289 0 0 1-0.40526-0.33411 1.5551 1.5551 0 0 1-0.2217-0.42692c-0.16086-0.42073-0.12787-0.9353 0.14437-1.4076 0.32277-0.55788 0.93118-0.87961 1.4736-0.86002zm3.372 2.81c0.60324 0 1.092 0.53622 1.092 1.1601 0 0.18356-0.017529 0.35679-0.086621 0.51767-0.075278 0.17531-0.15468 0.27636-0.25781 0.40422-0.28461 0.35061-0.74762 0.57851-1.2931 0.57851-0.73524 0-1.3921-0.47847-1.5684-1.057-0.067028-0.29595-0.056715-0.34442-0.068058-0.51147 0.081464 0.15674 0.096932 0.18561 0.20418 0.27224 0.06909 0.03505 0.095902 0.05156 0.2052 0.06909a0.55685 0.55685 0 0 0 0.35474-0.08147 0.88993 0.88993 0 0 0 0.25883-0.2939c0.038154-0.06704 0.064965-0.10725 0.10312-0.2052 0.12374-0.48054 0.55272-0.85177 1.057-0.85177z" fill="#ffffff" stroke-width="1.0312"/>
</svg>
