<svg width="76" height="84" enable-background="new" version="1.0" xmlns="http://www.w3.org/2000/svg">
 <g transform="translate(0,-216)">
  <path d="m37.997 236c-1.9592 4.8012-3.1387 7.9447-5.3213 12.6 1.3355 1.4185 2.9776 3.0656 5.6435 4.9363-2.8634-1.1795-4.8224-2.3642-6.2827-3.5958-2.7906 5.8249-7.161 14.118-16.037 30.059 6.974-4.0219 12.384-6.5054 17.419-7.4512a12.768 12.767 0 0 1-0.32738-2.9876l0.0051-0.22342c0.11433-4.4687 2.4372-7.9032 5.1915-7.6695 2.7542 0.23394 4.8901 4.0478 4.7809 8.5111a12.612 12.611 0 0 1-0.28062 2.4006c4.9835 0.97685 10.331 3.4501 17.211 7.4199-1.3563-2.4941-2.5672-4.7439-3.7261-6.8899-1.8188-1.4133-3.7207-3.2474-7.5922-5.2377 2.6608 0.69106 4.5731 1.4913 6.0542 2.385-11.755-21.886-12.706-24.796-16.738-34.257z" fill="#ffffff" fill-rule="evenodd" stroke-width="9.239"/>
 </g>
</svg>
