<svg width="57" height="63" enable-background="new" version="1.0" xmlns="http://www.w3.org/2000/svg">
 <g transform="translate(0,-237)">
  <path d="m28.097 252c-0.26892 0.14805-0.52935 0.25988-0.77879 0.43506 1.0055-0.2376 0.95689 0.10425 1.9819-0.0322-0.35856 0.0544-0.79522 0.1926-0.7251 0.24707 1.1498 0.13244 1.3246-0.35466 2.3847 0l-0.06981-0.31151c1.481 0.53004 1.7872 0.43941 3.3891 1.289 0.56124 0.0311 0.62055-0.34294 1.4663 0 0.15201 0.26503-0.0294 0.31099 1.0151 0.93457 0.11694-0.0468-0.21394-0.34634-0.46728-0.58006 2.0968 1.1224 4.3818 3.5178 5.0757 6.0747-0.65088-1.1965-0.06399 0.60911-0.29004 0.5156 0.29845 0.78712 0.52497 1.5997 0.67674 2.4277-0.19486-0.68593-0.6154-2.3373-1.3481-3.4053-0.06237 0.68984-0.95446-0.47415-0.46728 1.042 0.37026 0.53794 0.07573-0.54669 0.53173 0.40819 8e-3 0.456 0.17941 0.90613 0.28467 1.4985-0.15979-0.0272-0.35034-0.65319-0.46728-0.47803 0.15979 0.74437 0.41967 1.1287 0.52098 1.187-0.05456 0.12465-0.18153-0.11445-0.19336 0.39209 0.06237 1.1653 0.32644 0.67064 0.45117 0.72509-0.12861 0.57292-0.64005 1.2483-0.3867 2.2344-0.07407-0.30015-0.21313-0.60171-0.32226-0.88624-0.10134 0.84182 0.18564 1.0091-0.20409 2.0302 0.28053-0.91979 0.24889-1.7496-0.0162-1.3481 0.11692 1.3056-1.0324 2.3064-0.9077 3.1366l-0.333-0.46193c-0.90811 1.3096-0.018 0.71953-0.63378 1.7133 0.22605-0.38989-0.12433-0.15727 0.17187-0.60154-0.19486 0.0105-0.87343 0.8326-1.4931 1.3159-2.4358 1.9486-5.3392 2.2071-8.1532 1.1548-0.10912 0.0895 0.49857 0.56652 0.95065 0.80027 1.0718 0.39341 2.2839 0.41502 3.2388 0.37596-2.0656 0.86523-5.9968-0.87235-7.283-3.1797 0.29232 0.0624 1.2873 1.6212 2.0356 1.8744-0.44041-0.35466-0.78145-0.80378-1.1011-1.2675 0.58566 0.6798 1.3063 1.2303 2.1162 1.6167-0.02534-0.0975 0.02884-0.15435 0.04297-0.22026 0.01425-0.0657-0.0117-0.13649-0.19873-0.26318-2.3851-1.8279-3.7995-3.381-3.3085-6.9823 0.36247-0.2728 0.46036-1.7727 1.2944-2.2987 0.50667-1.1225 2.0338-2.1612 3.663-2.1861 1.6642-0.0896 3.069 0.88635 3.7705 1.81-1.2784-1.1965-3.3849-1.5561-5.1777-0.67139-1.8318 0.82625-2.9112 2.8428-2.7553 4.8501 0.06629-0.0976 0.12457-0.0354 0.15576-0.28466-0.05456 3.9052 4.2103 6.7646 7.2776 5.3227l0.03759 0.086c1.2472-0.33907 1.0907-0.62427 1.9014-1.1816-0.06237 0.1287-0.54622 0.46726-0.2578 0.46726 0.39366-0.1053 1.6317-1.2482 2.2396-1.794 0.28062-0.60018-0.14805-0.32494 0.24169-1.0849l0.47803-0.23095c0.26502-0.76389 0.55608-1.1968 0.52098-2.0893l-0.27928 0.58545c0.40924-1.2394 0.17788-2.5836 0.23634-3.7489l-0.11817-0.0322c-0.09745-2.9308-2.6325-6.0481-4.893-7.1004-1.941-0.9003-4.9312-1.0502-6.3109-0.37595 0.18708-0.16763 0.94429-0.24192 0.71434-0.37062-2.1631 0.21442-1.675 0.75677-3.3354 1.1816-0.45211 0.44055 1.3294-0.35419 0.37059 0.21487-0.88862 0.24552-1.3091-0.15568-2.6263 1.2085 0.11692 0.19505 0.84043-0.55737 0.23634 0.19865-1.2394-0.15209-3.9159 2.8288-4.4848 3.8188l0.29539 0.0537c-0.48718 1.2238-1.1281 2.0011-1.2139 2.7339-0.12471 1.8006-0.75486 5.0814 0.11817 6.0906l-0.08592 0.84326c0.11692 0.24164 0.21174 0.48294 0.35986 0.70897l-0.19336 0.0158c0.91978 2.8957 0.98854 0.0526 2.1967 3.0615-0.17538-0.0585-0.35118-0.12195-0.6123-0.47265-0.02727 0.26892 0.37998 1.06 0.85934 1.6758l-0.20947 0.23634c0.27283 0.48718 0.51655 0.58956 0.7036 0.75732-0.99775-0.54567 0.92957 1.8 1.1011 2.1l0.15039-0.27391c-0.01957 0.38974 0.28495 0.89363 0.85399 1.5952l0.47265-0.0157c0.19486 0.38976 0.91402 1.0861 1.3427 1.1172l-0.29004 0.37597c1.0913 0.34296 0.53376 0.45761 1.8745 0.92919l-0.27393-0.47263c0.68594 0.58847 0.89033 1.1055 1.8529 1.5576 1.3368 0.46389 1.5162 0.287 2.8842 0.67674-1.1614-0.0351-2.5231-0.018-3.4429-0.34911-6.2671-1.6954-12.001-9.0452-11.58-16.618-0.10134-1.5316 0.15129-3.4515-0.10206-3.8295 0.35856-1.1692 0.77186-2.5906 1.6059-4.2862-0.06237-0.1092 0.13914 0.33283 0.56395-0.39208 0.25723-0.56512 0.46606-1.1892 0.78954-1.7349l0.17187-0.0376c0.16368-0.97045 2.2605-2.4583 2.8842-3.2064l0.04297 0.28467c1.3602-1.2745 3.7867-2.1312 5.1508-2.7391-0.35856 0.39753 0.80557-0.0408 1.6435-0.0913z" fill="#ffffff" stroke-width="10.394" style="paint-order:stroke markers fill"/>
 </g>
</svg>
