<svg width="76" height="84" enable-background="new" version="1.0" xmlns="http://www.w3.org/2000/svg">
 <g transform="translate(0,-216)">
  <path d="m37.463 236c-0.35856 0.1974-0.7058 0.3465-1.0384 0.58008 1.3407-0.3168 1.2759 0.139 2.6426-0.043-0.47808 0.0726-1.0603 0.25679-0.96679 0.32941 1.533 0.1766 1.7661-0.47287 3.1796 0l-0.09308-0.41533c1.9747 0.70671 2.383 0.58587 4.5188 1.7187 0.74832 0.0414 0.82739-0.45726 1.955 0 0.20268 0.35337-0.0392 0.41465 1.3535 1.2461 0.15592-0.0624-0.28526-0.46178-0.62304-0.77342 2.7958 1.4966 5.8424 4.6904 6.7676 8.0996-0.86784-1.5953-0.08532 0.81215-0.38672 0.68747 0.39794 1.0495 0.69996 2.133 0.90231 3.237-0.25982-0.91457-0.82053-3.1164-1.7975-4.5404-0.08316 0.91979-1.2726-0.63219-0.62304 1.3893 0.49368 0.71726 0.10098-0.72891 0.70898 0.54426 0.0106 0.60799 0.23922 1.2082 0.37956 1.998-0.21306-0.0362-0.46712-0.87091-0.62304-0.63737 0.21306 0.99249 0.55956 1.5049 0.69464 1.5826-0.07274 0.1662-0.24204-0.1526-0.25782 0.52277 0.08316 1.5538 0.43526 0.8942 0.60156 0.9668-0.17148 0.76389-0.8534 1.6644-0.5156 2.9792-0.09876-0.4002-0.28418-0.80228-0.42968-1.1816-0.13512 1.1224 0.24752 1.3455-0.27212 2.707 0.37404-1.2264 0.33186-2.3328-0.0216-1.7975 0.1559 1.7408-1.3766 3.0752-1.2103 4.1822l-0.444-0.6159c-1.2108 1.7461-0.024 0.95938-0.84503 2.2844 0.3014-0.51986-0.16578-0.2097 0.22916-0.80206-0.25982 0.014-1.1646 1.1101-1.9908 1.7545-3.2478 2.5982-7.119 2.9428-10.871 1.5397-0.1455 0.1194 0.66476 0.75536 1.2675 1.067 1.4291 0.52454 3.0452 0.55336 4.3184 0.50128-2.7542 1.1536-7.9957-1.1631-9.7107-4.2396 0.38976 0.0832 1.7164 2.1616 2.7142 2.4992-0.58722-0.47287-1.0419-1.0717-1.4681-1.69 0.78087 0.9064 1.7417 1.6404 2.8216 2.1556-0.03378-0.13 0.03846-0.2058 0.0573-0.29368 0.019-0.0876-0.0156-0.182-0.26498-0.35092-3.1802-2.4372-5.066-4.508-4.4114-9.3097 0.4833-0.36374 0.61382-2.3636 1.7259-3.065 0.67556-1.4966 2.7118-2.8816 4.884-2.9148 2.219-0.1194 4.092 1.1818 5.0274 2.4134-1.7045-1.5954-4.5132-2.0748-6.9036-0.89519-2.4424 1.1017-3.8816 3.7904-3.6738 6.4668 0.08838-0.13019 0.1661-0.0472 0.20768-0.37955-0.07274 5.207 5.6138 9.0195 9.7035 7.097l0.05012 0.1146c1.6629-0.4521 1.4542-0.83236 2.5352-1.5755-0.08316 0.1716-0.7283 0.62301-0.34374 0.62301 0.52488-0.14039 2.1756-1.6643 2.9862-2.392 0.37416-0.80023-0.1974-0.43326 0.32226-1.4466l0.63738-0.30794c0.35336-1.0185 0.74143-1.5957 0.69463-2.7858l-0.37238 0.7806c0.54566-1.6525 0.23718-3.4448 0.31512-4.9986l-0.15756-0.043c-0.12994-3.9078-3.51-8.0641-6.524-9.4671-2.588-1.2004-6.575-1.4003-8.4145-0.50128 0.24944-0.2235 1.2591-0.32256 0.95245-0.49416-2.8842 0.2859-2.2334 1.009-4.4472 1.5755-0.60282 0.5874 1.7725-0.47226 0.49412 0.2865-1.1848 0.32736-1.7455-0.20758-3.5018 1.6113 0.1559 0.26008 1.1206-0.74316 0.31512 0.26488-1.6525-0.2028-5.2212 3.7718-5.9798 5.0918l0.39386 0.0716c-0.64958 1.6317-1.5042 2.6682-1.6185 3.6452-0.16628 2.4008-1.0065 6.7752 0.15756 8.1207l-0.11456 1.1244c0.1559 0.32218 0.28232 0.64392 0.47982 0.9453l-0.25782 0.021c1.2264 3.861 1.3181 0.0702 2.929 4.082-0.23384-0.078-0.46824-0.1626-0.8164-0.6302-0.03636 0.35856 0.50664 1.4133 1.1458 2.2344l-0.2793 0.31512c0.36378 0.64957 0.68874 0.78607 0.93813 1.0098-1.3303-0.72756 1.2394 2.4 1.4681 2.8l0.20052-0.36522c-0.0261 0.51966 0.37994 1.1915 1.1387 2.127l0.6302-0.021c0.25982 0.51967 1.2187 1.4481 1.7903 1.4896l-0.38672 0.50129c1.455 0.45728 0.71168 0.61014 2.4994 1.2389l-0.36524-0.63018c0.91459 0.78463 1.1871 1.474 2.4706 2.0768 1.7824 0.61851 2.0216 0.38265 3.8456 0.90231-1.5486-0.0468-3.3642-0.024-4.5906-0.46548-8.3561-2.2606-16.001-12.06-15.44-22.158-0.13512-2.0422 0.20172-4.602-0.13608-5.106 0.47808-1.559 1.0292-3.4542 2.1412-5.715-0.08316-0.1456 0.18552 0.44378 0.75193-0.52278 0.34298-0.75349 0.62142-1.5856 1.0527-2.3132l0.22916-0.0502c0.21824-1.2939 3.014-3.2778 3.8456-4.2752l0.0573 0.37955c1.8136-1.6993 5.049-2.8416 6.8678-3.6522-0.47808 0.53004 1.0741-0.0544 2.1914-0.1218z" fill="#ffffff" stroke-width="13.858" style="paint-order:stroke markers fill"/>
 </g>
</svg>
