<svg width="76" height="84" enable-background="new" version="1.0" xmlns="http://www.w3.org/2000/svg">
 <g transform="translate(0,-216)">
  <path d="m52.018 236c-8.6888 0-10.315 13.2-5.4306 13.2 4.8848 0 14.119-13.2 5.4306-13.2zm-13.792 1.4966c-4.9681 0.70154-3.222 10.061-0.57164 10.237 2.64 0.1716 5.5448-10.934 0.57164-10.237zm-8.9902 2.9101a3.0453 3.0453 0 0 0-0.81589 0.20778c-4.6511 1.7669-0.70674 9.0526 1.902 8.5642 2.4424-0.4625 2.7231-9.1411-1.0809-8.7668zm-6.1114 5.8618a2.4684 2.4684 0 0 0-1.3459 0.38456c-3.8249 2.2554 1.2888 7.7015 3.5337 6.8597 1.9747-0.74312 0.71713-7.1611-2.1878-7.2493zm17.835 4.4015c-6.844-0.1246-15.876 3.4714-17.414 10.684-1.6681 7.8106 6.8648 18.646 15.772 18.646 4.3807 0 9.432-4.1417 10.378-9.3853 0.72234-3.9962-9.0839-2.3905-8.7512 0.24946 0.27023 2.1618-0.86265 3.2844-2.4217 3.3259-2.1306-0.25984-3.17-1.4914-3.4557-3.3518-0.37936-4.8745 14.987-8.3562 13.771-15.917-0.44692-2.7698-3.7677-4.1781-7.8783-4.2509z" fill="#ffffff" stroke-width="9.2391"/>
 </g>
</svg>
