<svg width="38" height="42" enable-background="new" inkscape:export-xdpi="90.000000" inkscape:export-ydpi="90.000000" inkscape:output_extension="org.inkscape.output.svg.inkscape" inkscape:version="0.92.4 5da689c313, 2019-01-14" sodipodi:docname="logo-arch.svg" sodipodi:version="0.32" version="1.0" xmlns="http://www.w3.org/2000/svg" xmlns:inkscape="http://www.inkscape.org/namespaces/inkscape" xmlns:osb="http://www.openswatchbook.org/uri/2009/osb" xmlns:sodipodi="http://sodipodi.sourceforge.net/DTD/sodipodi-0.dtd">
 <sodipodi:namedview id="base" width="400px" height="300px" fill="#f57900" stroke="#ef2929" bordercolor="#525252" borderlayer="true" borderopacity="1" gridtolerance="10000" guidecolor="#ff0b00" guidehicolor="#001aff" guidehiopacity="0.49803922" guideopacity="1" guidetolerance="10000" inkscape:bbox-nodes="true" inkscape:bbox-paths="false" inkscape:current-layer="layer1" inkscape:cx="4.1024054" inkscape:cy="26.661784" inkscape:document-units="px" inkscape:grid-bbox="true" inkscape:guide-bbox="true" inkscape:object-nodes="true" inkscape:pageopacity="1" inkscape:pageshadow="2" inkscape:showpageshadow="true" inkscape:snap-bbox="true" inkscape:snap-bbox-edge-midpoints="false" inkscape:snap-bbox-midpoints="false" inkscape:snap-grids="true" inkscape:snap-nodes="true" inkscape:window-height="710" inkscape:window-maximized="1" inkscape:window-width="1366" inkscape:window-x="0" inkscape:window-y="28" inkscape:zoom="11.335806" objecttolerance="10000" pagecolor="#bebebe" showborder="true" showgrid="true" showguides="false">
  <inkscape:grid empspacing="4" enabled="true" snapvisiblegridlinesonly="true" type="xygrid" visible="true"/>
  <sodipodi:guide inkscape:locked="false" orientation="1,0" position="12,12"/>
 </sodipodi:namedview>
 <g transform="translate(0,-258)" inkscape:groupmode="layer" inkscape:label="Base">
  <path d="m18.999 270c-0.80147 1.9641-1.284 3.2501-2.1769 5.1547 0.54636 0.58031 1.2181 1.2541 2.3087 2.0194-1.1714-0.48252-1.9728-0.96717-2.5702-1.471-1.1416 2.3829-2.9295 5.7754-6.5605 12.297 2.853-1.6453 5.066-2.6613 7.126-3.0482a5.2233 5.2227 0 0 1-0.13393-1.2222l0.0021-0.0914c0.04677-1.8281 0.99705-3.2331 2.1238-3.1375 1.1267 0.0957 2.0005 1.6559 1.9558 3.4818a5.1596 5.159 0 0 1-0.1148 0.98206c2.0387 0.39962 4.2263 1.4114 7.041 3.0354-0.55486-1.0203-1.0502-1.9407-1.5243-2.8186-0.74407-0.57818-1.5221-1.3285-3.1059-2.1427 1.0885 0.28271 1.8708 0.61006 2.4767 0.97567-4.8088-8.9532-5.1978-10.144-6.8475-14.014z" fill="#fff" fill-rule="evenodd" stroke-width="3.7796" inkscape:connector-curvature="0"/>
 </g>
</svg>
