<svg width="38" height="42" enable-background="new" inkscape:export-xdpi="90.000000" inkscape:export-ydpi="90.000000" inkscape:output_extension="org.inkscape.output.svg.inkscape" inkscape:version="0.92.4 5da689c313, 2019-01-14" sodipodi:docname="logo-gnome.svg" sodipodi:version="0.32" version="1.0" xmlns="http://www.w3.org/2000/svg" xmlns:inkscape="http://www.inkscape.org/namespaces/inkscape" xmlns:osb="http://www.openswatchbook.org/uri/2009/osb" xmlns:sodipodi="http://sodipodi.sourceforge.net/DTD/sodipodi-0.dtd">
 <sodipodi:namedview id="base" width="400px" height="300px" fill="#f57900" stroke="#ef2929" bordercolor="#525252" borderlayer="true" borderopacity="1" gridtolerance="10000" guidecolor="#ff0b00" guidehicolor="#001aff" guidehiopacity="0.49803922" guideopacity="1" guidetolerance="10000" inkscape:bbox-nodes="true" inkscape:bbox-paths="false" inkscape:current-layer="layer1" inkscape:cx="19.639154" inkscape:cy="23.026834" inkscape:document-units="px" inkscape:grid-bbox="true" inkscape:guide-bbox="true" inkscape:object-nodes="true" inkscape:pageopacity="1" inkscape:pageshadow="2" inkscape:showpageshadow="true" inkscape:snap-bbox="true" inkscape:snap-bbox-edge-midpoints="false" inkscape:snap-bbox-midpoints="false" inkscape:snap-grids="true" inkscape:snap-nodes="true" inkscape:window-height="710" inkscape:window-maximized="1" inkscape:window-width="1366" inkscape:window-x="0" inkscape:window-y="28" inkscape:zoom="8.015625" objecttolerance="10000" pagecolor="#bebebe" showborder="true" showgrid="true" showguides="false">
  <inkscape:grid empspacing="4" enabled="true" snapvisiblegridlinesonly="true" type="xygrid" visible="true"/>
  <sodipodi:guide inkscape:locked="false" orientation="1,0" position="12,12"/>
 </sodipodi:namedview>
 <g transform="translate(0,-258)" inkscape:groupmode="layer" inkscape:label="Base">
  <path d="m24.734 270c-3.5545 0-4.2199 5.3998-2.2216 5.3998s5.7761-5.3998 2.2216-5.3998zm-5.6421 0.61226c-2.0324 0.28699-1.3181 4.1157-0.23385 4.188 1.08 0.0702 2.2683-4.4729 0.23385-4.188zm-3.6778 1.1905a1.2458 1.2458 0 0 0-0.33377 0.085c-1.9027 0.7228-0.28912 3.7033 0.77808 3.5035 0.99917-0.1892 1.114-3.7395-0.44219-3.5864zm-2.5001 2.398a1.0098 1.0098 0 0 0-0.55061 0.15732c-1.5647 0.92264 0.52722 3.1506 1.4456 2.8062 0.80784-0.304 0.29337-2.9295-0.895-2.9656zm7.2961 1.8006c-2.7998-0.051-6.4946 1.4201-7.1239 4.3708-0.68241 3.1952 2.8083 7.6277 6.4521 7.6277 1.7921 0 3.8585-1.6943 4.2454-3.8394 0.2955-1.6348-3.7161-0.97791-3.58 0.10205 0.11055 0.88437-0.3529 1.3436-0.99067 1.3606-0.87162-0.1063-1.2968-0.61013-1.4137-1.3712-0.15519-1.9941 6.1311-3.4184 5.6336-6.5116-0.18283-1.1331-1.5413-1.7092-3.2229-1.739z" fill="#fff" stroke-width="3.7796" inkscape:connector-curvature="0"/>
 </g>
</svg>
