<svg width="38" height="42" version="1.1" viewBox="0 0 10.054 11.112" xmlns="http://www.w3.org/2000/svg">
 <path d="m5.0273 2.6456a2.91 2.91 0 0 0-2.9107 2.9107 2.91 2.91 0 0 0 2.9107 2.91 2.91 2.91 0 0 0 2.91-2.91 2.91 2.91 0 0 0-2.91-2.9107zm0.77821 0.68059c0.082495-0.00137 0.15055 0.00825 0.23167 0.021311 0.29698 0.048122 0.58297 0.23855 0.76446 0.55341 0.24542 0.42485 0.18768 0.96245-0.08662 1.2581-0.14918 0.13749-0.1808 0.1478-0.27292 0.21036 0.063246-0.098994 0.074246-0.11824 0.08937-0.20968-0.00344-0.050872-0.00206-0.072183-0.028873-0.14093a0.36848 0.36848 0 0 0-0.16499-0.17805 0.59534 0.59534 0 0 0-0.25642-0.050872c-0.051559 0-0.083183-0.00138-0.15262 0.00894-0.31898 0.087991-0.67646-0.034377-0.8442-0.32586-0.20074-0.34786-0.054997-0.80914 0.30523-1.0168a0.85933 0.85933 0 0 1 0.32792-0.12306c0.031623-0.00412 0.060496-0.0055 0.087995-0.00687zm-2.1167 0.94801c0.05156 0.00137 0.10174 0.00825 0.15124 0.019936 0.19318 0.059809 0.21793 0.081808 0.31829 0.13062-0.11687-0.00481-0.13955-0.0055-0.22617 0.027498-0.042623 0.028186-0.061871 0.03781-0.10724 0.095557a0.36848 0.36848 0 0 0-0.072183 0.23167 0.59534 0.59534 0 0 0 0.08387 0.24749c0.026123 0.044685 0.04056 0.072871 0.084558 0.12718 0.2358 0.23305 0.30798 0.60359 0.13955 0.89439-0.20074 0.34854-0.67371 0.45166-1.0333 0.24405a0.85933 0.85933 0 0 1-0.27017-0.22274 1.0367 1.0367 0 0 1-0.1478-0.28461c-0.10724-0.28048-0.085245-0.62353 0.096245-0.93838 0.21518-0.37192 0.62078-0.5864 0.98238-0.57334zm2.248 1.8733c0.40216 0 0.72802 0.35748 0.72802 0.77339 0 0.12237-0.011686 0.23786-0.057747 0.34511-0.050185 0.11687-0.10312 0.18424-0.17187 0.26948-0.18974 0.23374-0.49841 0.38567-0.86208 0.38567-0.49016 0-0.92807-0.31898-1.0456-0.70465-0.044685-0.1973-0.03781-0.22961-0.045372-0.34098 0.054309 0.10449 0.064621 0.12374 0.13612 0.18149 0.04606 0.023374 0.063934 0.034373 0.1368 0.04606a0.37123 0.37123 0 0 0 0.23649-0.05431 0.59328 0.59328 0 0 0 0.17255-0.19593c0.025436-0.044685 0.04331-0.071496 0.068746-0.1368 0.082495-0.32036 0.36848-0.56784 0.70465-0.56784z" fill="#fff" stroke-width=".68746"/>
</svg>
