<svg width="38" height="42" inkscape:version="0.92.4 5da689c313, 2019-01-14" sodipodi:docname="logo.svg" version="1.1" viewBox="0 0 10.054 11.112" xmlns="http://www.w3.org/2000/svg" xmlns:inkscape="http://www.inkscape.org/namespaces/inkscape" xmlns:osb="http://www.openswatchbook.org/uri/2009/osb" xmlns:sodipodi="http://sodipodi.sourceforge.net/DTD/sodipodi-0.dtd" xmlns:xlink="http://www.w3.org/1999/xlink">
 <sodipodi:namedview bordercolor="#666666" borderopacity="1" gridtolerance="10" guidetolerance="10" inkscape:current-layer="svg22" inkscape:cx="45.606703" inkscape:cy="10.100748" inkscape:pageopacity="0" inkscape:pageshadow="2" inkscape:window-height="710" inkscape:window-maximized="1" inkscape:window-width="1366" inkscape:window-x="0" inkscape:window-y="28" inkscape:zoom="3.5124464" objecttolerance="10" pagecolor="#565656" showgrid="true">
  <inkscape:grid type="xygrid"/>
 </sodipodi:namedview>
 <g fill="#fff" stroke-width=".26458">
  <path d="m5.027 2.6458a2.9104 2.9104 0 0 0-2.9104 2.9104 2.9104 2.9104 0 0 0 2.9104 2.9104 2.9104 2.9104 0 0 0 2.9104-2.9104 2.9104 2.9104 0 0 0-2.9104-2.9104zm0 0.26458a2.6458 2.6458 0 0 1 2.6458 2.6458 2.6458 2.6458 0 0 1-2.6458 2.6458 2.6458 2.6458 0 0 1-2.6458-2.6458 2.6458 2.6458 0 0 1 2.6458-2.6458z" style="paint-order:stroke fill markers" inkscape:connector-curvature="0"/>
  <path d="m7.1436 6.6145h-2.6458l1.0583-2.3812z" opacity=".5" style="paint-order:stroke fill markers" inkscape:connector-curvature="0"/>
  <path d="m6.0853 6.6145h-3.175l1.3229-2.9104z" style="paint-order:stroke fill markers" inkscape:connector-curvature="0"/>
 </g>
</svg>
