<svg width="76" height="84" version="1.1" viewBox="0 0 20.108 22.224" xmlns="http://www.w3.org/2000/svg">
 <path d="m10.055 5.2913a5.82 5.82 0 0 0-5.8214 5.8214 5.82 5.82 0 0 0 5.8214 5.82 5.82 5.82 0 0 0 5.82-5.82 5.82 5.82 0 0 0-5.82-5.8214zm1.5564 1.3612c0.16499-0.0028 0.3011 0.0166 0.46334 0.04262 0.59396 0.096241 1.1659 0.4771 1.5289 1.1068 0.49084 0.84971 0.37536 1.9249-0.17324 2.5162-0.29836 0.27498-0.3616 0.2956-0.54584 0.42072 0.12649-0.19798 0.14849-0.23648 0.17874-0.41936-0.0069-0.10174-0.0041-0.14436-0.05775-0.28186a0.73696 0.73696 0 0 0-0.32998-0.3561 1.1907 1.1907 0 0 0-0.51284-0.10174c-0.10312 0-0.16637-0.0028-0.30524 0.0178-0.63796 0.17598-1.3529-0.06876-1.6884-0.65172-0.40148-0.69572-0.11-1.6183 0.61046-2.0336a1.7187 1.7187 0 0 1 0.65584-0.24612c0.06325-0.0082 0.12099-0.011 0.17599-0.0138zm-4.2334 1.896c0.10312 0.0028 0.20348 0.0166 0.30248 0.03988 0.38636 0.11962 0.43586 0.16362 0.63658 0.26124-0.23374-0.0096-0.2791-0.011-0.45234 0.055-0.085247 0.05638-0.12374 0.07562-0.21448 0.19112a0.73696 0.73696 0 0 0-0.14437 0.46334 1.1907 1.1907 0 0 0 0.16774 0.49498c0.052246 0.08938 0.08112 0.14574 0.16912 0.25436 0.4716 0.4661 0.61596 1.2072 0.2791 1.7888-0.40148 0.69708-1.3474 0.90333-2.0666 0.4881a1.7187 1.7187 0 0 1-0.54034-0.44548 2.0734 2.0734 0 0 1-0.2956-0.56922c-0.21448-0.56096-0.17049-1.2471 0.19249-1.8768 0.43036-0.74384 1.2416-1.1728 1.9648-1.1467zm4.496 3.7466c0.80432 0 1.456 0.71496 1.456 1.5468 0 0.24474-0.02337 0.47572-0.11549 0.69022-0.10037 0.23374-0.20624 0.36848-0.34374 0.53896-0.37948 0.46748-0.99683 0.77134-1.7242 0.77134-0.98033 0-1.8562-0.63796-2.0912-1.4093-0.089371-0.3946-0.075621-0.45922-0.090745-0.68196 0.10862 0.20898 0.12924 0.24748 0.27224 0.36298 0.092121 0.04674 0.12787 0.06874 0.2736 0.09212a0.74246 0.74246 0 0 0 0.47298-0.10862 1.1866 1.1866 0 0 0 0.3451-0.39186c0.05087-0.08938 0.08662-0.143 0.13749-0.2736 0.16499-0.64072 0.73696-1.1357 1.4093-1.1357z" fill="#ffffff" stroke-width="1.3749"/>
</svg>
