<svg width="76" height="84" version="1.1" viewBox="0 0 20.108 22.224" xmlns="http://www.w3.org/2000/svg">
 <g transform="matrix(2 0 0 2 .00010909 -.00027943)" fill="#ffffff" stroke-width=".26458">
  <path d="m5.027 2.6458a2.9104 2.9104 0 0 0-2.9104 2.9104 2.9104 2.9104 0 0 0 2.9104 2.9104 2.9104 2.9104 0 0 0 2.9104-2.9104 2.9104 2.9104 0 0 0-2.9104-2.9104zm0 0.26458a2.6458 2.6458 0 0 1 2.6458 2.6458 2.6458 2.6458 0 0 1-2.6458 2.6458 2.6458 2.6458 0 0 1-2.6458-2.6458 2.6458 2.6458 0 0 1 2.6458-2.6458z" style="paint-order:stroke fill markers"/>
  <path d="m7.1436 6.6145h-2.6458l1.0583-2.3812z" opacity=".5" style="paint-order:stroke fill markers"/>
  <path d="m6.0853 6.6145h-3.175l1.3229-2.9104z" style="paint-order:stroke fill markers"/>
 </g>
</svg>
