<svg width="38" height="42" enable-background="new" inkscape:export-xdpi="90.000000" inkscape:export-ydpi="90.000000" inkscape:output_extension="org.inkscape.output.svg.inkscape" inkscape:version="0.92.4 5da689c313, 2019-01-14" sodipodi:docname="logo-fedora.svg" sodipodi:version="0.32" version="1.0" xmlns="http://www.w3.org/2000/svg" xmlns:inkscape="http://www.inkscape.org/namespaces/inkscape" xmlns:osb="http://www.openswatchbook.org/uri/2009/osb" xmlns:sodipodi="http://sodipodi.sourceforge.net/DTD/sodipodi-0.dtd">
 <sodipodi:namedview id="base" width="400px" height="300px" fill="#f57900" stroke="#ef2929" bordercolor="#525252" borderlayer="true" borderopacity="1" gridtolerance="10000" guidecolor="#ff0b00" guidehicolor="#001aff" guidehiopacity="0.49803922" guideopacity="1" guidetolerance="10000" inkscape:bbox-nodes="true" inkscape:bbox-paths="false" inkscape:current-layer="layer1" inkscape:cx="-1.4081342" inkscape:cy="6.4805984" inkscape:document-units="px" inkscape:grid-bbox="true" inkscape:guide-bbox="true" inkscape:object-nodes="true" inkscape:pageopacity="1" inkscape:pageshadow="2" inkscape:showpageshadow="true" inkscape:snap-bbox="true" inkscape:snap-bbox-edge-midpoints="false" inkscape:snap-bbox-midpoints="false" inkscape:snap-grids="true" inkscape:snap-nodes="true" inkscape:window-height="710" inkscape:window-maximized="1" inkscape:window-width="1366" inkscape:window-x="0" inkscape:window-y="28" inkscape:zoom="11.467617" objecttolerance="10000" pagecolor="#bebebe" showborder="true" showgrid="true" showguides="false">
  <inkscape:grid empspacing="4" enabled="true" snapvisiblegridlinesonly="true" type="xygrid" visible="true"/>
  <sodipodi:guide inkscape:locked="false" orientation="1,0" position="12,12"/>
 </sodipodi:namedview>
 <g transform="translate(0,-258)" inkscape:groupmode="layer" inkscape:label="Base">
  <path d="m19.003 268a11.005 11.001 0 0 0-11.003 10.994v9.2994c0 0.94579 0.76158 1.7071 1.7077 1.7071h9.3001a11.004 11 0 0 0-0.0053-22zm3.3166 2.4112c0.44187 0 0.75638 0.0519 1.1645 0.15589 0.59782 0.1559 1.0839 0.64699 1.0839 1.216 0 0.68596-0.49645 1.1874-1.245 1.1874-0.3535 0-0.48346-0.0702-1.0033-0.0702-1.5361 0-2.7812 1.2472-2.7838 2.7802v2.406c0 0.21827 0.17415 0.39495 0.38988 0.39495h1.8325a1.2281 1.2277 0 1 1 0 2.4554h-2.2223v2.8088a5.2765 5.2746 0 0 1-5.2765 5.2746c-0.44187 0-0.75638-0.052-1.1645-0.1585-0.59783-0.15589-1.0865-0.64439-1.0865-1.2134 0-0.68855 0.49905-1.1874 1.2476-1.1874 0.3535 0 0.48346 0.0676 1.0033 0.0676 1.5361 0 2.7812-1.2446 2.7838-2.7802v-2.4164a0.39249 0.39235 0 0 0-0.39249-0.39495h-1.8299a1.2282 1.2277 0 1 1 0.013-2.4554h2.2094v-2.7958a5.2765 5.2746 0 0 1 5.2765-5.2746z" fill="#fff" stroke-width="4.6202" inkscape:connector-curvature="0"/>
 </g>
</svg>
