<?xml version="1.0" encoding="UTF-8" standalone="no"?>
<svg
   width="76"
   height="84"
   version="1.1"
   id="svg4"
   sodipodi:docname="logo@2-mxlinux.svg"
   inkscape:version="1.1.1 (3bf5ae0d25, 2021-09-20, custom)"
   xmlns:inkscape="http://www.inkscape.org/namespaces/inkscape"
   xmlns:sodipodi="http://sodipodi.sourceforge.net/DTD/sodipodi-0.dtd"
   xmlns="http://www.w3.org/2000/svg"
   xmlns:svg="http://www.w3.org/2000/svg">
  <defs
     id="defs8" />
  <sodipodi:namedview
     id="namedview6"
     pagecolor="#b3b3b3"
     bordercolor="#666666"
     borderopacity="1.0"
     inkscape:pageshadow="2"
     inkscape:pageopacity="0"
     inkscape:pagecheckerboard="0"
     showgrid="false"
     inkscape:zoom="2.7253075"
     inkscape:cx="124.38963"
     inkscape:cy="41.830142"
     inkscape:window-width="1600"
     inkscape:window-height="832"
     inkscape:window-x="0"
     inkscape:window-y="32"
     inkscape:window-maximized="1"
     inkscape:current-layer="svg4" />
  <path
     d="M 38,20 C 25.812,20 16,29.812 16,42 16,54.188 25.812,64 38,64 50.188,64 60,54.188 60,42 60,29.812 50.188,20 38,20 Z m -6.3338,10.185266 7.554556,8.498356 7.223578,-8.498356 1.408414,1.406828 -7.299844,8.589044 5.076622,5.711688 0.814808,-0.929402 7.03731,8.44409 H 22.517866 l 10.55609,-11.962868 1.978142,2.142068 1.569162,-1.84607 -7.769422,-8.741822 z m 6.287844,13.054556 -1.54528,1.81742 5.110112,5.534956 1.473658,-1.685322 z"
     fill="#ffffff"
     stroke-width="0.814806"
     id="path2" />
</svg>
