<svg width="76" height="84" enable-background="new" version="1.0" xmlns="http://www.w3.org/2000/svg">
 <g transform="translate(0,-216)">
  <path d="m38 236a22 22 0 1 0 0 44 22 22 0 0 0 0-44zm7.8418 6.132a2.931 2.931 0 0 1 2.1826 4.3808 2.9362 2.9362 0 1 1-2.1826-4.3808zm-7.847 3.1076c1.1848 0 2.328 0.161 3.4142 0.4625a4.121 4.121 0 0 0 5.524 3.2012c2.1722 2.1358 3.5856 5.0408 3.7936 8.2784l-4.1832 0.0572a8.5796 8.5796 0 0 0-12.16-7.0154l-2.0422-3.6636a12.716 12.716 0 0 1 5.6592-1.3199zm-7.0778 2.141 2.1514 3.6012a8.5692 8.5692 0 0 0 0 14.036l-2.1514 3.596a12.773 12.773 0 0 1-5.2694-7.4156 4.1106 4.1106 0 0 0 0-6.3972 12.784 12.784 0 0 1 5.2694-7.4208zm-7.8782 7.6806a2.9388 2.9388 0 1 1 0 5.8774 2.9362 2.9362 0 0 1 0-5.8722zm23.504 3.6948 4.1832 0.0674a12.721 12.721 0 0 1-3.7936 8.273 4.1054 4.1054 0 0 0-5.524 3.196 12.753 12.753 0 0 1-9.0682-0.85226l2.0422-3.6584a8.5744 8.5744 0 0 0 12.16-7.0258zm-1.4291 9.2812a2.9424 2.9424 0 1 1 0.71714 5.841 2.9424 2.9424 0 0 1-0.71714-5.841z" fill="#ffffff" stroke-width="9.239"/>
 </g>
</svg>
