<?xml version="1.0" encoding="UTF-8"?>
<svg width="76" height="84" enable-background="new" version="1.0" xmlns="http://www.w3.org/2000/svg" xmlns:cc="http://creativecommons.org/ns#" xmlns:dc="http://purl.org/dc/elements/1.1/" xmlns:rdf="http://www.w3.org/1999/02/22-rdf-syntax-ns#">
 <metadata>
  <rdf:RDF>
   <cc:Work rdf:about="">
    <dc:format>image/svg+xml</dc:format>
    <dc:type rdf:resource="http://purl.org/dc/dcmitype/StillImage"/>
    <dc:title/>
   </cc:Work>
  </rdf:RDF>
 </metadata>
 <g transform="matrix(.19643 0 0 .19643 -57.41 -45.733)" fill="#fff">
  <path d="m485.72 334.64c-61.829 0-111.95 50.101-112 111.92v86.675c0.0345 14.032 11.416 25.402 25.462 25.402 0.0345 0 0.0884-4e-3 0.12061-4e-3v4e-3h86.456c61.836-0.0287 111.96-50.157 111.96-112 0-61.856-50.144-112-112-112zm22.704 46.083v1e-3c18.809 0 36.571 14.422 36.571 34.285 0 1.8426-0.023 3.6743-0.31475 5.7702-0.52037 5.2828-5.3456 9.069-10.602 8.3228-5.262-0.75356-8.8352-5.7364-7.8575-10.958 0.0827-0.58866 0.12061-1.5276 0.12061-3.135 0-11.26-9.1988-15.613-17.918-15.613-8.7141 0-16.569 7.3085-16.599 15.591v28.673l16.167-0.11774c12.621-0.26478 12.751 18.762 0.12923 18.673l-16.297 0.0885-0.11775 26.748c-1.9503 20.994-19.824 37.784-41.296 37.784-22.758 0-41.533-18.618-41.533-41.432 0.68521-23.47 19.439-41.924 42.998-41.703l13.123-0.0884v18.644l-13.232 0.11775c-12.951 0.38252-24.024 9.1649-24.236 23.032 0 12.643 10.218 22.76 22.887 22.76 12.657 0 22.761-9.207 22.761-22.733v-70.526c6e-3 -1.3069 0.0678-2.3547 0.21768-3.7985 2.1273-17.256 17.556-30.406 35.025-30.406z" fill="#fff"/>
 </g>
</svg>
