<svg width="38" height="42" enable-background="new" version="1.0" xmlns="http://www.w3.org/2000/svg">
 <g transform="translate(0,-258)">
  <path d="m18.999 268c-0.97958 2.4006-1.5693 3.9724-2.6607 6.3002 0.66777 0.70927 1.4888 1.5328 2.8217 2.4682-1.4317-0.58975-2.4112-1.1821-3.1414-1.7979-1.3953 2.9124-3.5805 7.0588-8.0184 15.03 3.487-2.0109 6.1918-3.2527 8.7096-3.7256a6.384 6.3833 0 0 1-0.16369-1.4938l0.0026-0.11171c0.05716-2.2344 1.2186-3.9516 2.5958-3.8347 1.3771 0.11697 2.4451 2.0239 2.3904 4.2555a6.3062 6.3055 0 0 1-0.14031 1.2003c2.4917 0.48843 5.1655 1.725 8.6057 3.7099-0.67816-1.247-1.2836-2.372-1.863-3.445-0.90942-0.70667-1.8603-1.6237-3.7961-2.6189 1.3304 0.34553 2.2865 0.74563 3.0271 1.1925-5.8774-10.943-6.3529-12.398-8.3692-17.128z" fill="#ffffff" fill-rule="evenodd" stroke-width="4.6195"/>
 </g>
</svg>
