<svg width="38" height="42" version="1.1" xmlns="http://www.w3.org/2000/svg">
 <path d="m19 10a11 11 0 0 0-11 11 11 11 0 0 0 11 11 11 11 0 0 0 11-11 11 11 0 0 0-11-11zm-1.9002 3.2609c0.92803-0.02198 1.3177 0.19733 1.8572 0.54905 0.82012 0.54956 1.4026 1.4075 1.6185 2.3967 0.21582 0.98923 0.15157 1.7588-0.10742 2.3084v0.04297c-0.51799 1.1211-1.3815 2.0239-2.59 2.4635l1.036 2.7476c0.19424 0.5056 0.36591 1.0322 0.21484 1.5158-0.15108 0.48363-0.8428 0.63738-1.3392 0.1098-0.94963-1.0332-4.1428-7.5396-4.3804-8.0233-0.2374-0.48363-0.49653-0.87942-0.49653-1.363 0.02158-0.72545 1.1219-1.4716 1.6615-1.8453 0.53955-0.37371 1.5976-0.88034 2.5256-0.90234zm-0.84744 2.0029c-0.67126 0.01874-0.304 1.4469-0.1671 1.8453 0.15108 0.43967 0.5613 1.3622 1.0145 1.8238 0.10791 0.10991 0.21664 0.19763 0.34613 0.21962 0.1295 0.02198 0.38862-0.1106 0.49653-0.28646 0.10791-0.17586 0.12891-0.30634 0.12891-0.4822a2.7626 2.8138 0 0 0-0.04297-1.0551c-0.19423-0.68149-0.6039-1.3411-1.1434-1.7808-0.10791-0.08793-0.23803-0.19953-0.38911-0.24349-0.09307-0.03092-0.17404-0.04252-0.24349-0.04058zm7.3023 1.6615c0.10223-0.0017 0.20099 0.0052 0.28407 0.02149a1.8694 1.9521 0 0 1 1.0169 0.5204c0.24924 0.23859 0.26928 0.50057 0.18619 0.82595-0.08308 0.32534-0.3731 1.0194-0.60157 1.5182l-0.58246 1.1482c-1.1216 2.0822-1.3499 2.3001-1.6615 2.1699-0.37385-0.15182-0.24806-2.2342 0.10504-4.7719 0.10385-0.69406 0.26902-1.0416 0.45595-1.2151 0.1402-0.13014 0.49062-0.21215 0.7973-0.21722zm-1.2771 7.3333c0.48747 0.0084 0.69489 0.54771 0.5777 0.96441-0.04466 0.17859-0.15559 0.33763-0.3342 0.43685-0.17862 0.09922-0.60423 0.09982-0.84982-0.07877-0.24559-0.17859-0.28898-0.47804-0.222-0.71615 0.06698-0.23813 0.28898-0.49595 0.60157-0.5753 0.08094-0.02232 0.15714-0.03223 0.22678-0.03103zm-7.3619 2.201h8.6104c0.45868 0 0.82834 0.32659 0.82834 0.73286s-0.36966 0.73286-0.82834 0.73286h-8.6104c-0.45868 0-0.82834-0.32659-0.82834-0.73286s0.36966-0.73286 0.82834-0.73286z" fill="#ffffff" stroke-width="1.2222"/>
</svg>
