<?xml version="1.0" encoding="UTF-8" standalone="no"?>
<svg
   width="38"
   height="42"
   version="1.1"
   id="svg4"
   sodipodi:docname="logo-zorin.svg"
   inkscape:version="1.1.1 (3bf5ae0d25, 2021-09-20, custom)"
   xmlns:inkscape="http://www.inkscape.org/namespaces/inkscape"
   xmlns:sodipodi="http://sodipodi.sourceforge.net/DTD/sodipodi-0.dtd"
   xmlns="http://www.w3.org/2000/svg"
   xmlns:svg="http://www.w3.org/2000/svg">
  <defs
     id="defs8" />
  <sodipodi:namedview
     id="namedview6"
     pagecolor="#d6d6d6"
     bordercolor="#666666"
     borderopacity="1.0"
     inkscape:pageshadow="2"
     inkscape:pageopacity="0"
     inkscape:pagecheckerboard="0"
     showgrid="false"
     inkscape:zoom="10.90123"
     inkscape:cx="13.57645"
     inkscape:cy="20.364674"
     inkscape:window-width="1600"
     inkscape:window-height="832"
     inkscape:window-x="0"
     inkscape:window-y="32"
     inkscape:window-maximized="1"
     inkscape:current-layer="svg4" />
  <path
     d="m 13.952858,10 c -0.672096,0 -1.497704,0.482861 -1.833324,1.071822 l -1.62567,2.85742 h 17.010805 l 1.95029,3.418416 -3.57596,-6.275836 C 25.543428,10.482849 24.717771,10 24.045674,10 Z m 15.50259,7.347597 -14.618928,7.581528 h 14.461263 l 1.627991,-2.857418 c 0.335609,-0.588974 0.335609,-1.554659 0,-2.143645 z M 8.7022176,17.070691 7.0742256,19.928112 c -0.3356083,0.588972 -0.3356083,1.554658 0,2.143644 L 8.5446738,24.65222 23.163602,17.070691 Z M 12.120634,30.928178 C 12.456254,31.517152 13.281862,32 13.953958,32 h 10.092817 c 0.672097,0 1.497825,-0.482848 1.833325,-1.071822 l 1.625668,-2.857419 H 10.494964"
     fill="#ffffff"
     stroke-width="0.392857"
     id="path2" />
</svg>
