<svg width="76" height="84" enable-background="new" version="1.0" xmlns="http://www.w3.org/2000/svg">
 <g transform="translate(0,-216)">
  <path d="m37.999 236a22.003 22.001 0 0 0-21.999 21.988v18.598c0 1.8915 1.5227 3.4141 3.4143 3.4141h18.594a22.001 22 0 0 0-0.01054-43.999zm6.631 4.8223c0.88345 0 1.5123 0.10378 2.3282 0.31176 1.1953 0.31181 2.1671 1.294 2.1671 2.432 0 1.3719-0.99258 2.3748-2.4892 2.3748-0.70677 0-0.96661-0.14041-2.0059-0.14041-3.0712 0-5.5606 2.4943-5.5658 5.5603v4.8119c0 0.43654 0.34819 0.78989 0.77951 0.78989h3.6638a2.4554 2.4553 0 1 1 0 4.9107h-4.4432v5.6175a10.55 10.549 0 0 1-10.55 10.549c-0.88345 0-1.5123-0.10405-2.3282-0.317-1.1953-0.31177-2.1723-1.2887-2.1723-2.4267 0-1.3771 0.99778-2.3747 2.4944-2.3747 0.70677 0 0.96661 0.13519 2.0059 0.13519 3.0712 0 5.5606-2.4892 5.5658-5.5603v-4.8327a0.78472 0.78468 0 0 0-0.78472-0.78988h-3.6586a2.4556 2.4554 0 1 1 0.02599-4.9107h4.4174v-5.5915a10.55 10.549 0 0 1 10.55-10.549z" fill="#ffffff"/>
 </g>
</svg>
