<?xml version="1.0" encoding="UTF-8" standalone="no"?>
<svg
   width="38"
   height="42"
   version="1.1"
   viewBox="0 0 38 42"
   id="svg4"
   sodipodi:docname="logo-opensuse.svg"
   inkscape:version="1.1.1 (3bf5ae0d25, 2021-09-20, custom)"
   xmlns:inkscape="http://www.inkscape.org/namespaces/inkscape"
   xmlns:sodipodi="http://sodipodi.sourceforge.net/DTD/sodipodi-0.dtd"
   xmlns="http://www.w3.org/2000/svg"
   xmlns:svg="http://www.w3.org/2000/svg">
  <defs
     id="defs8" />
  <sodipodi:namedview
     id="namedview6"
     pagecolor="#dbdbdb"
     bordercolor="#666666"
     borderopacity="1.0"
     inkscape:pageshadow="2"
     inkscape:pageopacity="0"
     inkscape:pagecheckerboard="0"
     showgrid="false"
     inkscape:zoom="5.450615"
     inkscape:cx="7.1551559"
     inkscape:cy="23.300123"
     inkscape:window-width="1600"
     inkscape:window-height="832"
     inkscape:window-x="0"
     inkscape:window-y="32"
     inkscape:window-maximized="1"
     inkscape:current-layer="svg4" />
  <path
     d="m 19,10 a 11,11 0 1 0 0,22 11,11 0 0 0 0,-22 z m 0,2.44502 a 8.5562742,8.5562742 0 1 1 0,17.109776 8.4911389,8.4911389 0 0 1 -5.807198,-2.291744 c 0.493688,-0.06756 1.273186,-0.07795 2.291743,0.03894 1.488825,0.168895 2.304725,0.226056 3.284294,0.153304 2.234554,-0.168894 3.710398,-0.537851 5.347556,-1.338136 0.857429,-0.415734 1.039346,-0.605388 1.221217,-1.106884 0.179283,-0.475487 0.244238,-0.917205 0.155899,-0.917205 -0.03377,0 -0.3144,0.109127 -0.649597,0.267627 -1.260205,0.597628 -2.364455,0.891244 -3.325869,0.841908 -0.995137,-0.05196 -2.603516,-0.633984 -4.541866,-1.566803 l -0.917206,-0.42093 -0.688538,-1.717492 0.649596,0.41833 a 19.2925,19.2925 0 0 0 4.011822,1.948745 c 1.668109,0.527456 2.969889,0.454708 4.313199,-0.228653 0.475487,-0.241643 1.377125,-0.831468 1.377125,-0.917206 0,-0.155899 -0.462506,-1.70451 -0.727528,-2.40603 -0.659991,-1.751258 -1.125084,-2.343711 -2.213766,-2.863361 -1.210822,-0.576839 -2.551546,-0.969175 -5.004326,-1.527814 -1.169246,-0.249439 -2.322925,-0.501495 -3.51296,-0.649596 l -0.03894,1.449882 a 39.546321,39.546321 0 0 0 -2.252801,-0.610608 8.5742904,8.5742904 0 0 1 7.028599,-3.663648 z m 2.024089,6.18646 a 1.8188435,1.8188435 0 0 1 1.792835,1.41348 c 0.116925,0.454709 0.08055,0.779498 -0.150702,1.260206 A 1.7564799,1.7564799 0 0 1 20.756466,22.26136 1.7850285,1.7850285 0 0 1 19.41833,21.229821 c -0.316996,-0.688539 -0.16889,-1.603158 0.381955,-2.102066 a 1.8889677,1.8889677 0 0 1 1.221217,-0.493688 z m 0.41833,0.956195 c -0.639204,0 -1.039346,0.467679 -0.685953,0.800285 0.285814,0.270224 0.76393,0.311794 1.143285,0.116925 0.249435,-0.127319 0.332582,-0.319598 0.270224,-0.57162 -0.04677,-0.189677 -0.415735,-0.345577 -0.727529,-0.345577 z"
     fill="#ffffff"
     overflow="visible"
     stroke-width="2.59834"
     id="path2" />
</svg>
