<svg width="76" height="84" enable-background="new" version="1.0" xmlns="http://www.w3.org/2000/svg">
 <path d="m33.441 20.015c-9.4811 0.45095-16.907 9.0155-16.535 13.677 0.37214 4.5334 11.901 8.515 11.773 8.6507-2.3556 1.9835-3.9175 3.3235-5.8863 5.12-4.7332 4.3116-8.0054 7.5049-6.3519 11.994 1.9193 5.1768 6.1008 4.9624 11.017 4.0036 12.704-2.4986 33.576-18.478 32.496-24.375-0.87442-4.7699-12.531-14.2-19.441-17.58-2.1558-1.0522-4.6049-1.604-7.1035-1.4904m1.9908 8.185c1.1879-0.12098 2.5628 0.18698 4.1099 0.93124 3.3657 1.6187 6.8523 5.9211 0 8.3702-1.8625 0.65077-7.8276-1.604-7.6553-4.7405 0.15762-2.9074 1.5674-4.3904 3.5453-4.5609" fill="#fff" fill-rule="evenodd"/>
</svg>
