<?xml version="1.0" encoding="UTF-8" standalone="no"?>
<svg
   width="38"
   height="42"
   version="1.1"
   id="svg4"
   sodipodi:docname="logo-mxlinux.svg"
   inkscape:version="1.1.1 (3bf5ae0d25, 2021-09-20, custom)"
   xmlns:inkscape="http://www.inkscape.org/namespaces/inkscape"
   xmlns:sodipodi="http://sodipodi.sourceforge.net/DTD/sodipodi-0.dtd"
   xmlns="http://www.w3.org/2000/svg"
   xmlns:svg="http://www.w3.org/2000/svg">
  <defs
     id="defs8" />
  <sodipodi:namedview
     id="namedview6"
     pagecolor="#b3b3b3"
     bordercolor="#666666"
     borderopacity="1.0"
     inkscape:pageshadow="2"
     inkscape:pageopacity="0"
     inkscape:pagecheckerboard="0"
     showgrid="false"
     inkscape:zoom="10.90123"
     inkscape:cx="2.385052"
     inkscape:cy="23.300123"
     inkscape:window-width="1600"
     inkscape:window-height="832"
     inkscape:window-x="0"
     inkscape:window-y="32"
     inkscape:window-maximized="1"
     inkscape:current-layer="svg4" />
  <path
     d="M 19,10 C 12.906,10 8,14.906 8,21 8,27.094 12.906,32 19,32 25.094,32 30,27.094 30,21 30,14.906 25.094,10 19,10 Z m -3.1669,5.092633 3.777278,4.249178 3.611789,-4.249178 0.704207,0.703414 -3.649922,4.294522 2.538311,2.855844 0.407404,-0.464701 3.518655,4.222045 H 11.258933 l 5.278045,-5.981434 0.989071,1.071034 0.784581,-0.923035 -3.884711,-4.370911 z m 3.143922,6.527278 -0.77264,0.90871 2.555056,2.767478 0.736829,-0.842661 z"
     fill="#ffffff"
     stroke-width="0.407403"
     id="path2" />
</svg>
