<svg width="76" height="84" version="1.1" xmlns="http://www.w3.org/2000/svg">
 <path d="m38 20a22 22 0 0 0-22 22 22 22 0 0 0 22 22 22 22 0 0 0 22-22 22 22 0 0 0-22-22zm-3.8004 6.5218c1.8561-0.04396 2.6354 0.39466 3.7144 1.0981 1.6402 1.0991 2.8052 2.815 3.237 4.7934 0.43164 1.9785 0.30314 3.5176-0.21484 4.6168v0.08594c-1.036 2.2422-2.763 4.0478-5.18 4.927l2.072 5.4952c0.38848 1.0112 0.73182 2.0644 0.42968 3.0316-0.30216 0.96726-1.6856 1.2748-2.6784 0.2196-1.8993-2.0664-8.2856-15.079-8.7608-16.047-0.4748-0.96726-0.99306-1.7588-0.99306-2.726 0.04316-1.4509 2.2438-2.9432 3.323-3.6906 1.0791-0.74742 3.1952-1.7607 5.0512-1.8047zm-1.6949 4.0058c-1.3425 0.03748-0.608 2.8938-0.3342 3.6906 0.30216 0.87934 1.1226 2.7244 2.029 3.6476 0.21582 0.21982 0.43328 0.39526 0.69226 0.43924 0.259 0.04396 0.77724-0.2212 0.99306-0.57292s0.25782-0.61268 0.25782-0.9644a5.5252 5.6276 0 0 0-0.08594-2.1102c-0.38846-1.363-1.2078-2.6822-2.2868-3.5616-0.21582-0.17586-0.47606-0.39906-0.77822-0.48698-0.18614-0.06184-0.34808-0.08504-0.48698-0.08116zm14.605 3.323c0.20446-0.0034 0.40198 0.0104 0.56814 0.04298a3.7388 3.9042 0 0 1 2.0338 1.0408c0.49848 0.47718 0.53856 1.0011 0.37238 1.6519-0.16616 0.65068-0.7462 2.0388-1.2031 3.0364l-1.1649 2.2964c-2.2432 4.1644-2.6998 4.6002-3.323 4.3398-0.7477-0.30364-0.49612-4.4684 0.21008-9.5438 0.2077-1.3881 0.53804-2.0832 0.9119-2.4302 0.2804-0.26028 0.98124-0.4243 1.5946-0.43444zm-2.5542 14.667c0.97494 0.0168 1.3898 1.0954 1.1554 1.9288-0.08932 0.35718-0.31118 0.67526-0.6684 0.8737-0.35724 0.19844-1.2085 0.19964-1.6996-0.15754s-0.57796-0.95608-0.444-1.4323c0.13396-0.47626 0.57796-0.9919 1.2031-1.1506 0.16188-0.04464 0.31428-0.06446 0.45356-0.06206zm-14.724 4.402h17.221c0.91736 0 1.6567 0.65318 1.6567 1.4657s-0.73932 1.4657-1.6567 1.4657h-17.221c-0.91736 0-1.6567-0.65318-1.6567-1.4657s0.73932-1.4657 1.6567-1.4657z" fill="#ffffff" stroke-width="2.4444"/>
</svg>
