<?xml version="1.0" encoding="UTF-8" standalone="no"?>
<svg
   width="76"
   height="84"
   version="1.1"
   viewBox="0 0 76 84"
   id="svg4"
   sodipodi:docname="logo@2-opensuse.svg"
   inkscape:version="1.1.1 (3bf5ae0d25, 2021-09-20, custom)"
   xmlns:inkscape="http://www.inkscape.org/namespaces/inkscape"
   xmlns:sodipodi="http://sodipodi.sourceforge.net/DTD/sodipodi-0.dtd"
   xmlns="http://www.w3.org/2000/svg"
   xmlns:svg="http://www.w3.org/2000/svg">
  <defs
     id="defs8" />
  <sodipodi:namedview
     id="namedview6"
     pagecolor="#dbdbdb"
     bordercolor="#666666"
     borderopacity="1.0"
     inkscape:pageshadow="2"
     inkscape:pageopacity="0"
     inkscape:pagecheckerboard="0"
     showgrid="false"
     inkscape:zoom="5.450615"
     inkscape:cx="7.1551559"
     inkscape:cy="23.300123"
     inkscape:window-width="1600"
     inkscape:window-height="832"
     inkscape:window-x="0"
     inkscape:window-y="32"
     inkscape:window-maximized="1"
     inkscape:current-layer="svg4"
     width="76px" />
  <path
     d="m 38,20 a 22,22 0 1 0 0,44 22,22 0 0 0 0,-44 z m 0,4.89004 a 17.112548,17.112548 0 1 1 0,34.219552 16.982278,16.982278 0 0 1 -11.614396,-4.583488 c 0.987376,-0.13512 2.546372,-0.1559 4.583486,0.07788 2.97765,0.33779 4.60945,0.452112 6.568588,0.306608 4.469108,-0.337788 7.420796,-1.075702 10.695112,-2.676272 1.714858,-0.831468 2.078692,-1.210776 2.442434,-2.213768 0.358566,-0.950974 0.488476,-1.83441 0.311798,-1.83441 -0.06754,0 -0.6288,0.218254 -1.299194,0.535254 -2.52041,1.195256 -4.72891,1.782488 -6.651738,1.683816 -1.990274,-0.10392 -5.207032,-1.267968 -9.083732,-3.133606 l -1.834412,-0.84186 -1.377076,-3.434984 1.299192,0.83666 a 38.585,38.585 0 0 0 8.023644,3.89749 c 3.336218,1.054912 5.939778,0.909416 8.626398,-0.457306 0.950974,-0.483286 2.75425,-1.662936 2.75425,-1.834412 0,-0.311798 -0.925012,-3.40902 -1.455056,-4.81206 -1.319982,-3.502516 -2.250168,-4.687422 -4.427532,-5.726722 -2.421644,-1.153678 -5.103092,-1.93835 -10.008652,-3.055628 -2.338492,-0.498878 -4.64585,-1.00299 -7.02592,-1.299192 l -0.07788,2.899764 A 79.092642,79.092642 0 0 0 23.943712,32.22214 17.148581,17.148581 0 0 1 38.00091,24.894844 Z m 4.048178,12.37292 a 3.637687,3.637687 0 0 1 3.58567,2.82696 c 0.23385,0.909418 0.1611,1.558996 -0.301404,2.520412 A 3.5129598,3.5129598 0 0 1 41.512932,44.52272 3.570057,3.570057 0 0 1 38.83666,42.459642 c -0.633992,-1.377078 -0.33778,-3.206316 0.76391,-4.204132 a 3.7779354,3.7779354 0 0 1 2.442434,-0.987376 z m 0.83666,1.91239 c -1.278408,0 -2.078692,0.935358 -1.371906,1.60057 0.571628,0.540448 1.52786,0.623588 2.28657,0.23385 0.49887,-0.254638 0.665164,-0.639196 0.540448,-1.14324 -0.09354,-0.379354 -0.83147,-0.691154 -1.455058,-0.691154 z"
     fill="#ffffff"
     overflow="visible"
     stroke-width="5.19668"
     id="path2" />
</svg>
