<?xml version="1.0" encoding="UTF-8" standalone="no"?>
<svg
   width="76"
   height="84"
   version="1.1"
   id="svg4"
   sodipodi:docname="logo@2-zorin.svg"
   inkscape:version="1.1.1 (3bf5ae0d25, 2021-09-20, custom)"
   xmlns:inkscape="http://www.inkscape.org/namespaces/inkscape"
   xmlns:sodipodi="http://sodipodi.sourceforge.net/DTD/sodipodi-0.dtd"
   xmlns="http://www.w3.org/2000/svg"
   xmlns:svg="http://www.w3.org/2000/svg">
  <defs
     id="defs8" />
  <sodipodi:namedview
     id="namedview6"
     pagecolor="#d6d6d6"
     bordercolor="#666666"
     borderopacity="1.0"
     inkscape:pageshadow="2"
     inkscape:pageopacity="0"
     inkscape:pagecheckerboard="0"
     showgrid="false"
     inkscape:zoom="3.8541668"
     inkscape:cx="29.059458"
     inkscape:cy="20.237837"
     inkscape:window-width="1600"
     inkscape:window-height="832"
     inkscape:window-x="0"
     inkscape:window-y="32"
     inkscape:window-maximized="1"
     inkscape:current-layer="svg4" />
  <path
     d="m 27.905716,20 c -1.344192,0 -2.995408,0.965722 -3.666648,2.143644 l -3.25134,5.71484 h 34.02161 l 3.90058,6.836832 -7.15192,-12.551672 C 51.086856,20.965698 49.435542,20 48.091348,20 Z M 58.910896,34.695194 29.67304,49.85825 h 28.922526 l 3.255982,-5.714836 c 0.671218,-1.177948 0.671218,-3.109318 0,-4.28729 z m -41.506461,-0.553812 -3.255984,5.714842 c -0.671217,1.177944 -0.671217,3.109316 0,4.287288 l 2.940896,5.160928 29.237857,-15.163058 z m 6.836833,27.714974 C 24.912508,63.034304 26.563724,64 27.907916,64 H 48.09355 c 1.344194,0 2.99565,-0.965696 3.66665,-2.143644 l 3.251336,-5.714838 H 20.989928"
     fill="#ffffff"
     stroke-width="0.785714"
     id="path2" />
</svg>
