<svg width="38" height="42" version="1.1" viewBox="0 0 10.054 11.112" xmlns="http://www.w3.org/2000/svg">
 <path d="m4.4239 2.6476c-1.2542 0.059656-2.2366 1.1927-2.1874 1.8093 0.04923 0.59972 1.5744 1.1264 1.5574 1.1444-0.31162 0.26239-0.51824 0.43967-0.77869 0.67732-0.62615 0.57038-1.059 0.99283-0.84029 1.5867 0.25391 0.68484 0.80707 0.65647 1.4575 0.52964 1.6806-0.33054 4.4418-2.4445 4.2989-3.2246-0.11568-0.631-1.6578-1.8785-2.5718-2.3256-0.28519-0.1392-0.60918-0.21219-0.93972-0.19716m0.26336 1.0828c0.15714-0.016005 0.33903 0.024736 0.5437 0.12319 0.44524 0.21413 0.90649 0.7833 0 1.1073-0.24639 0.08609-1.0355-0.21219-1.0127-0.62712 0.020852-0.38462 0.20734-0.58081 0.46901-0.60336" fill="#fff" fill-rule="evenodd"/>
</svg>
